<mxfile host="app.diagrams.net" modified="2023-06-15T08:09:28.564Z" agent="Mozilla/5.0 (Windows NT 10.0; Win64; x64) AppleWebKit/537.36 (KHTML, like Gecko) Chrome/114.0.0.0 Safari/537.36" etag="_F-tVHG7qdQ_vLnKuNom" version="21.4.0" type="device">
  <diagram name="Page-1" id="7a6c530e-6e37-e111-ec74-82921da8cc10">
    <mxGraphModel dx="2156" dy="1173" grid="1" gridSize="10" guides="1" tooltips="1" connect="1" arrows="1" fold="1" page="1" pageScale="1.5" pageWidth="1169" pageHeight="826" background="none" math="0" shadow="0">
      <root>
        <mxCell id="0" style=";html=1;" />
        <mxCell id="1" style=";html=1;" parent="0" />
        <mxCell id="B0hOVwlSUektJ_psYXs9-91" value="" style="rounded=0;whiteSpace=wrap;html=1;strokeWidth=2;movable=0;resizable=0;rotatable=0;deletable=0;editable=0;locked=1;connectable=0;" vertex="1" parent="1">
          <mxGeometry x="437" y="590" width="301" height="220" as="geometry" />
        </mxCell>
        <mxCell id="B0hOVwlSUektJ_psYXs9-48" value="" style="endArrow=none;dashed=1;html=1;dashPattern=1 3;strokeWidth=2;rounded=0;movable=0;resizable=0;rotatable=0;deletable=0;editable=0;locked=1;connectable=0;" edge="1" parent="1">
          <mxGeometry width="50" height="50" relative="1" as="geometry">
            <mxPoint x="426" y="817" as="sourcePoint" />
            <mxPoint x="426.06" y="582" as="targetPoint" />
          </mxGeometry>
        </mxCell>
        <mxCell id="B0hOVwlSUektJ_psYXs9-79" value="" style="rounded=0;whiteSpace=wrap;html=1;fillColor=#ffffc8;strokeWidth=2;movable=0;resizable=0;rotatable=0;deletable=0;editable=0;locked=1;connectable=0;" vertex="1" parent="1">
          <mxGeometry x="374" y="595" width="40" height="210" as="geometry" />
        </mxCell>
        <mxCell id="23046e2b9bb16c14-113" value="Title" style="text;strokeColor=none;fillColor=none;html=1;fontSize=24;fontStyle=1;verticalAlign=middle;align=center;rounded=0;shadow=0;fontColor=#FFFFFF;" parent="1" vertex="1">
          <mxGeometry x="1406" y="940" width="1510" height="40" as="geometry" />
        </mxCell>
        <mxCell id="B0hOVwlSUektJ_psYXs9-59" value="" style="shape=image;html=1;verticalAlign=top;verticalLabelPosition=bottom;labelBackgroundColor=#ffffff;imageAspect=0;aspect=fixed;image=https://cdn4.iconfinder.com/data/icons/evil-icons-user-interface/64/play-128.png;movable=0;resizable=0;rotatable=0;deletable=0;editable=0;locked=1;connectable=0;" vertex="1" parent="1">
          <mxGeometry x="55" y="685" width="30" height="30" as="geometry" />
        </mxCell>
        <mxCell id="B0hOVwlSUektJ_psYXs9-60" value="" style="sketch=0;outlineConnect=0;fontColor=#232F3E;gradientColor=none;fillColor=#067F68;strokeColor=none;dashed=0;verticalLabelPosition=bottom;verticalAlign=top;align=center;html=1;fontSize=12;fontStyle=0;aspect=fixed;pointerEvents=1;shape=mxgraph.aws4.sagemaker_model;movable=0;resizable=0;rotatable=0;deletable=0;editable=0;locked=1;connectable=0;" vertex="1" parent="1">
          <mxGeometry x="380" y="605" width="30" height="30" as="geometry" />
        </mxCell>
        <mxCell id="B0hOVwlSUektJ_psYXs9-139" style="edgeStyle=orthogonalEdgeStyle;rounded=0;orthogonalLoop=1;jettySize=auto;html=1;exitX=1;exitY=0.5;exitDx=0;exitDy=0;entryX=0;entryY=0.5;entryDx=0;entryDy=0;movable=0;resizable=0;rotatable=0;deletable=0;editable=0;locked=1;connectable=0;" edge="1" parent="1" source="B0hOVwlSUektJ_psYXs9-63" target="B0hOVwlSUektJ_psYXs9-103">
          <mxGeometry relative="1" as="geometry" />
        </mxCell>
        <mxCell id="B0hOVwlSUektJ_psYXs9-63" value="" style="shape=image;verticalLabelPosition=bottom;labelBackgroundColor=#ffffff;verticalAlign=top;aspect=fixed;imageAspect=0;image=data:image/svg+xml,PHN2ZyB4bWxuczpjYz0iaHR0cDovL2NyZWF0aXZlY29tbW9ucy5vcmcvbnMjIiB4bWxuczpkYz0iaHR0cDovL3B1cmwub3JnL2RjL2VsZW1lbnRzLzEuMS8iIHhtbG5zOmlua3NjYXBlPSJodHRwOi8vd3d3Lmlua3NjYXBlLm9yZy9uYW1lc3BhY2VzL2lua3NjYXBlIiB4bWxuczpyZGY9Imh0dHA6Ly93d3cudzMub3JnLzE5OTkvMDIvMjItcmRmLXN5bnRheC1ucyMiIHhtbG5zOnNvZGlwb2RpPSJodHRwOi8vc29kaXBvZGkuc291cmNlZm9yZ2UubmV0L0RURC9zb2RpcG9kaS0wLmR0ZCIgeG1sbnM6c3ZnPSJodHRwOi8vd3d3LnczLm9yZy8yMDAwL3N2ZyIgeG1sbnM9Imh0dHA6Ly93d3cudzMub3JnLzIwMDAvc3ZnIiB4bWxuczp4bGluaz0iaHR0cDovL3d3dy53My5vcmcvMTk5OS94bGluayIgdmVyc2lvbj0iMS4xIiBpZD0ic3ZnNDUwMTUiIGlua3NjYXBlOnZlcnNpb249IjAuOTIuMyAoMjQwNTU0NiwgMjAxOC0wMy0xMSkiIHNvZGlwb2RpOmRvY25hbWU9ImZpbGVfZ3JlZW4uc3ZnIiB4PSIwcHgiIHk9IjBweCIgdmlld0JveD0iMCAwIDM2IDQ4IiBzdHlsZT0iZW5hYmxlLWJhY2tncm91bmQ6bmV3IDAgMCAzNiA0ODsiIHhtbDpzcGFjZT0icHJlc2VydmUiPiYjeGE7PHNvZGlwb2RpOm5hbWVkdmlldyBib3JkZXJjb2xvcj0iIzY2NjY2NiIgYm9yZGVyb3BhY2l0eT0iMSIgZml0LW1hcmdpbi1ib3R0b209IjAiIGZpdC1tYXJnaW4tbGVmdD0iMCIgZml0LW1hcmdpbi1yaWdodD0iMCIgZml0LW1hcmdpbi10b3A9IjAiIGdyaWR0b2xlcmFuY2U9IjEwIiBndWlkZXRvbGVyYW5jZT0iMTAiIGlkPSJuYW1lZHZpZXc0NTAxNyIgaW5rc2NhcGU6Y3VycmVudC1sYXllcj0ic3ZnNDUwMTUiIGlua3NjYXBlOmN4PSIyNC41IiBpbmtzY2FwZTpjeT0iMzIiIGlua3NjYXBlOnBhZ2VvcGFjaXR5PSIwIiBpbmtzY2FwZTpwYWdlc2hhZG93PSIyIiBpbmtzY2FwZTp3aW5kb3ctaGVpZ2h0PSIxMDE3IiBpbmtzY2FwZTp3aW5kb3ctbWF4aW1pemVkPSIxIiBpbmtzY2FwZTp3aW5kb3ctd2lkdGg9IjE5MjAiIGlua3NjYXBlOndpbmRvdy14PSItOCIgaW5rc2NhcGU6d2luZG93LXk9Ii04IiBpbmtzY2FwZTp6b29tPSIxMy4xMzYzNjQiIG9iamVjdHRvbGVyYW5jZT0iMTAiIHBhZ2Vjb2xvcj0iI2ZmZmZmZiIgc2hvd2dyaWQ9ImZhbHNlIj4mI3hhOwk8L3NvZGlwb2RpOm5hbWVkdmlldz4mI3hhOzxnIGlkPSJnNDUwMTMiIHRyYW5zZm9ybT0idHJhbnNsYXRlKC0wLjc1LC0wLjc1KSI+JiN4YTsJPHRpdGxlIGlkPSJ0aXRsZTQ0OTUwIj5QYWdlLTE8L3RpdGxlPiYjeGE7CTxnIGlkPSJncm91cDM5MzQtMSIgdHJhbnNmb3JtPSJ0cmFuc2xhdGUoMS41LC0xLjUpIj4mI3hhOwkJPHRpdGxlIGlkPSJ0aXRsZTQ0OTUyIj5GaWxlIChHcmVlbik8L3RpdGxlPiYjeGE7CQk8ZyBpZD0iZ3JvdXAzOTM1LTIiPiYjeGE7CQkJPHRpdGxlIGlkPSJ0aXRsZTQ0OTU0Ij5nNDU5Ny4zNTE4NjwvdGl0bGU+JiN4YTsJCQk8ZyBpZD0ic2hhcGUzOTM2LTMiPiYjeGE7CQkJCTx0aXRsZSBpZD0idGl0bGU0NDk1NiI+cGF0aDQ1ODU8L3RpdGxlPiYjeGE7CQkJCTxwYXRoIGlkPSJwYXRoNDQ5NTgiIGlua3NjYXBlOmNvbm5lY3Rvci1jdXJ2YXR1cmU9IjAiIHN0eWxlPSJmaWxsOiNGRkZGRkY7IiBkPSJNMTkuNDEsM0gwLjc1QzAuMzQsMywwLDMuMzQsMCwzLjc1djQ1ICAgICAgYzAsMC40MSwwLjM0LDAuNzUsMC43NSwwLjc1aDMzYzAuNDEsMCwwLjc1LTAuMzQsMC43NS0wLjc1VjE3LjUzTDE5LjQxLDN6Ii8+JiN4YTsJCQk8L2c+JiN4YTsJCQk8ZyBpZD0ic2hhcGUzOTM3LTUiIHRyYW5zZm9ybT0idHJhbnNsYXRlKDE5LjUsLTMxLjUpIj4mI3hhOwkJCQk8dGl0bGUgaWQ9InRpdGxlNDQ5NjEiPnBvbHlnb240NTg3PC90aXRsZT4mI3hhOwkJCQk8cGF0aCBpZD0icGF0aDQ0OTYzIiBpbmtzY2FwZTpjb25uZWN0b3ItY3VydmF0dXJlPSIwIiBzdHlsZT0iZmlsbDojQkFEODBBOyIgZD0iTTAsMzQuNWwxNSwxNUwwLDQ5LjEyVjM0LjV6Ii8+JiN4YTsJCQk8L2c+JiN4YTsJCQk8ZyBpZD0ic2hhcGUzOTM4LTciIHRyYW5zZm9ybT0idHJhbnNsYXRlKDEuNSwtMS4xMjUpIj4mI3hhOwkJCQk8dGl0bGUgaWQ9InRpdGxlNDQ5NjYiPnJlY3Q0NTg5PC90aXRsZT4mI3hhOwkJCQk8cmVjdCBpZD0icmVjdDQ0OTY4IiB5PSI0LjUiIHN0eWxlPSJmaWxsOiNGRkZGRkY7IiB3aWR0aD0iMTgiIGhlaWdodD0iNDUiLz4mI3hhOwkJCTwvZz4mI3hhOwkJCTxnIGlkPSJzaGFwZTM5MzktOSI+JiN4YTsJCQkJPHRpdGxlIGlkPSJ0aXRsZTQ0OTcxIj5wYXRoNDU5MTwvdGl0bGU+JiN4YTsJCQkJJiN4YTsJCQkJCTxwYXRoIGlkPSJwYXRoNDQ5NzMiIGlua3NjYXBlOmNvbm5lY3Rvci1jdXJ2YXR1cmU9IjAiIHN0eWxlPSJmaWxsOm5vbmU7c3Ryb2tlOiM1NTZBOEE7c3Ryb2tlLXdpZHRoOjEuNTtzdHJva2UtbWl0ZXJsaW1pdDozOyIgZD0iICAgICAgTTE5LjQxLDNIMC43NUMwLjM0LDMsMCwzLjM0LDAsMy43NXY0NWMwLDAuNDEsMC4zNCwwLjc1LDAuNzUsMC43NWgzM2MwLjQxLDAsMC43NS0wLjM0LDAuNzUtMC43NVYxNy41M0wxOS40MSwzeiIvPiYjeGE7CQkJPC9nPiYjeGE7CQkJPGcgaWQ9InNoYXBlMzk0MC0xMSIgdHJhbnNmb3JtPSJ0cmFuc2xhdGUoMC43NSwtMC43NSkiPiYjeGE7CQkJCTx0aXRsZSBpZD0idGl0bGU0NDk3NiI+cmVjdDQ1OTM8L3RpdGxlPiYjeGE7CQkJCTxyZWN0IGlkPSJyZWN0NDQ5NzgiIHk9IjQuNSIgc3R5bGU9ImZpbGw6I0U1RTVFNTsiIHdpZHRoPSIxMiIgaGVpZ2h0PSI0NSIvPiYjeGE7CQkJPC9nPiYjeGE7CQkJPGcgaWQ9InNoYXBlMzk0MS0xMyIgdHJhbnNmb3JtPSJ0cmFuc2xhdGUoMTkuNSwtMzEuNSkiPiYjeGE7CQkJCTx0aXRsZSBpZD0idGl0bGU0NDk4MSI+cG9seWxpbmU0NTk1PC90aXRsZT4mI3hhOwkJCQk8cGF0aCBpZD0icGF0aDQ0OTgzIiBpbmtzY2FwZTpjb25uZWN0b3ItY3VydmF0dXJlPSIwIiBzdHlsZT0iZmlsbDpub25lOyIgZD0iTTAsMzQuNXYxNWgxNS43NUwwLDM0LjV6Ii8+JiN4YTsJCQkJJiN4YTsJCQkJCTxwYXRoIGlkPSJwYXRoNDQ5ODUiIGlua3NjYXBlOmNvbm5lY3Rvci1jdXJ2YXR1cmU9IjAiIHN0eWxlPSJmaWxsOm5vbmU7c3Ryb2tlOiM1NTZBOEE7c3Ryb2tlLXdpZHRoOjEuNTtzdHJva2UtbWl0ZXJsaW1pdDozOyIgZD0iICAgICAgTTAsMzQuNXYxNWgxNS43NSIvPiYjeGE7CQkJPC9nPiYjeGE7CQk8L2c+JiN4YTsJCTxnIGlkPSJncm91cDM5NDItMTYiIHRyYW5zZm9ybT0idHJhbnNsYXRlKDcuNSwtOSkiPiYjeGE7CQkJPHRpdGxlIGlkPSJ0aXRsZTQ0OTg5Ij5nNDYxMy4zNTE5MzwvdGl0bGU+JiN4YTsJCQk8ZyBpZD0ic2hhcGUzOTQzLTE3IiB0cmFuc2Zvcm09InRyYW5zbGF0ZSgwLC0yMC4yNSkiPiYjeGE7CQkJCTx0aXRsZSBpZD0idGl0bGU0NDk5MSI+bGluZTQ2MDU8L3RpdGxlPiYjeGE7CQkJCSYjeGE7CQkJCQk8cGF0aCBpZD0icGF0aDQ0OTkzIiBpbmtzY2FwZTpjb25uZWN0b3ItY3VydmF0dXJlPSIwIiBzdHlsZT0iZmlsbDpub25lO3N0cm9rZTojQTdBOUFDO3N0cm9rZS13aWR0aDoxLjU7c3Ryb2tlLW1pdGVybGltaXQ6MzsiIGQ9IiAgICAgIE0wLDQ5LjVoOS43NSIvPiYjeGE7CQkJPC9nPiYjeGE7CQkJPGcgaWQ9InNoYXBlMzk0NC0yMCIgdHJhbnNmb3JtPSJ0cmFuc2xhdGUoMCwtMTMuNSkiPiYjeGE7CQkJCTx0aXRsZSBpZD0idGl0bGU0NDk5NiI+bGluZTQ2MDc8L3RpdGxlPiYjeGE7CQkJCSYjeGE7CQkJCQk8cGF0aCBpZD0icGF0aDQ0OTk4IiBpbmtzY2FwZTpjb25uZWN0b3ItY3VydmF0dXJlPSIwIiBzdHlsZT0iZmlsbDpub25lO3N0cm9rZTojQTdBOUFDO3N0cm9rZS13aWR0aDoxLjU7c3Ryb2tlLW1pdGVybGltaXQ6MzsiIGQ9IiAgICAgIE0wLDQ5LjVoMjQiLz4mI3hhOwkJCTwvZz4mI3hhOwkJCTxnIGlkPSJzaGFwZTM5NDUtMjMiIHRyYW5zZm9ybT0idHJhbnNsYXRlKDAsLTYuNzUpIj4mI3hhOwkJCQk8dGl0bGUgaWQ9InRpdGxlNDUwMDEiPmxpbmU0NjA5PC90aXRsZT4mI3hhOwkJCQkmI3hhOwkJCQkJPHBhdGggaWQ9InBhdGg0NTAwMyIgaW5rc2NhcGU6Y29ubmVjdG9yLWN1cnZhdHVyZT0iMCIgc3R5bGU9ImZpbGw6bm9uZTtzdHJva2U6I0E3QTlBQztzdHJva2Utd2lkdGg6MS41O3N0cm9rZS1taXRlcmxpbWl0OjM7IiBkPSIgICAgICBNMCw0OS41aDI0Ii8+JiN4YTsJCQk8L2c+JiN4YTsJCQk8ZyBpZD0ic2hhcGUzOTQ2LTI2Ij4mI3hhOwkJCQk8dGl0bGUgaWQ9InRpdGxlNDUwMDYiPmxpbmU0NjExPC90aXRsZT4mI3hhOwkJCQkmI3hhOwkJCQkJPHBhdGggaWQ9InBhdGg0NTAwOCIgaW5rc2NhcGU6Y29ubmVjdG9yLWN1cnZhdHVyZT0iMCIgc3R5bGU9ImZpbGw6bm9uZTtzdHJva2U6I0E3QTlBQztzdHJva2Utd2lkdGg6MS41O3N0cm9rZS1taXRlcmxpbWl0OjM7IiBkPSIgICAgICBNMCw0OS41aDI0Ii8+JiN4YTsJCQk8L2c+JiN4YTsJCTwvZz4mI3hhOwk8L2c+JiN4YTs8L2c+JiN4YTs8L3N2Zz4=;movable=0;resizable=0;rotatable=0;deletable=0;editable=0;locked=1;connectable=0;" vertex="1" parent="1">
          <mxGeometry x="383.75" y="765" width="22.5" height="30" as="geometry" />
        </mxCell>
        <mxCell id="B0hOVwlSUektJ_psYXs9-97" value="&lt;b style=&quot;border-color: var(--border-color);&quot;&gt;Client-side Video Play&lt;/b&gt;" style="text;html=1;align=center;verticalAlign=middle;resizable=0;points=[];autosize=1;strokeColor=none;fillColor=none;movable=0;rotatable=0;deletable=0;editable=0;locked=1;connectable=0;" vertex="1" parent="1">
          <mxGeometry x="512" y="560" width="150" height="30" as="geometry" />
        </mxCell>
        <mxCell id="B0hOVwlSUektJ_psYXs9-98" style="edgeStyle=orthogonalEdgeStyle;rounded=0;orthogonalLoop=1;jettySize=auto;html=1;entryX=0;entryY=0.5;entryDx=0;entryDy=0;movable=0;resizable=0;rotatable=0;deletable=0;editable=0;locked=1;connectable=0;" edge="1" parent="1" source="B0hOVwlSUektJ_psYXs9-60" target="B0hOVwlSUektJ_psYXs9-99">
          <mxGeometry relative="1" as="geometry">
            <mxPoint x="347" y="630" as="sourcePoint" />
            <mxPoint x="390" y="630" as="targetPoint" />
          </mxGeometry>
        </mxCell>
        <mxCell id="B0hOVwlSUektJ_psYXs9-148" style="edgeStyle=orthogonalEdgeStyle;rounded=0;orthogonalLoop=1;jettySize=auto;html=1;exitX=0.763;exitY=1.002;exitDx=0;exitDy=0;entryX=0.75;entryY=0;entryDx=0;entryDy=0;exitPerimeter=0;movable=0;resizable=0;rotatable=0;deletable=0;editable=0;locked=1;connectable=0;" edge="1" parent="1" source="B0hOVwlSUektJ_psYXs9-99" target="B0hOVwlSUektJ_psYXs9-103">
          <mxGeometry relative="1" as="geometry" />
        </mxCell>
        <mxCell id="B0hOVwlSUektJ_psYXs9-99" value="&lt;span style=&quot;font-size: 16px;&quot;&gt;Load Model&lt;/span&gt;" style="rounded=1;whiteSpace=wrap;html=1;fillColor=#FFFF66;strokeColor=default;movable=0;resizable=0;rotatable=0;deletable=0;editable=0;locked=1;connectable=0;" vertex="1" parent="1">
          <mxGeometry x="485" y="595" width="127" height="50" as="geometry" />
        </mxCell>
        <mxCell id="B0hOVwlSUektJ_psYXs9-101" value="①" style="text;html=1;align=center;verticalAlign=middle;resizable=0;points=[];autosize=1;strokeColor=none;fillColor=none;movable=0;rotatable=0;deletable=0;editable=0;locked=1;connectable=0;" vertex="1" parent="1">
          <mxGeometry x="432.5" y="593" width="40" height="30" as="geometry" />
        </mxCell>
        <mxCell id="B0hOVwlSUektJ_psYXs9-233" style="edgeStyle=orthogonalEdgeStyle;rounded=0;orthogonalLoop=1;jettySize=auto;html=1;exitX=1;exitY=0.5;exitDx=0;exitDy=0;entryX=0;entryY=0.5;entryDx=0;entryDy=0;movable=0;resizable=0;rotatable=0;deletable=0;editable=0;locked=1;connectable=0;" edge="1" parent="1" source="B0hOVwlSUektJ_psYXs9-103" target="B0hOVwlSUektJ_psYXs9-230">
          <mxGeometry relative="1" as="geometry" />
        </mxCell>
        <mxCell id="B0hOVwlSUektJ_psYXs9-103" value="&lt;span style=&quot;font-size: 16px;&quot;&gt;RePC&lt;/span&gt;" style="rounded=1;whiteSpace=wrap;html=1;fillColor=#00b4ff;strokeColor=default;movable=0;resizable=0;rotatable=0;deletable=0;editable=0;locked=1;connectable=0;" vertex="1" parent="1">
          <mxGeometry x="486" y="755" width="127" height="50" as="geometry" />
        </mxCell>
        <mxCell id="B0hOVwlSUektJ_psYXs9-104" value="" style="sketch=0;outlineConnect=0;fontColor=#232F3E;gradientColor=none;fillColor=#067F68;strokeColor=none;dashed=0;verticalLabelPosition=bottom;verticalAlign=top;align=center;html=1;fontSize=12;fontStyle=0;aspect=fixed;pointerEvents=1;shape=mxgraph.aws4.sagemaker_model;movable=0;resizable=0;rotatable=0;deletable=0;editable=0;locked=1;connectable=0;" vertex="1" parent="1">
          <mxGeometry x="461.5" y="600.5" width="16" height="15" as="geometry" />
        </mxCell>
        <mxCell id="B0hOVwlSUektJ_psYXs9-109" style="edgeStyle=orthogonalEdgeStyle;rounded=0;orthogonalLoop=1;jettySize=auto;html=1;exitX=1;exitY=0.5;exitDx=0;exitDy=0;entryX=0;entryY=0.5;entryDx=0;entryDy=0;strokeWidth=5;endArrow=block;endFill=1;fillColor=#0050ef;strokeColor=#001DBC;movable=0;resizable=0;rotatable=0;deletable=0;editable=0;locked=1;connectable=0;" edge="1" parent="1" source="B0hOVwlSUektJ_psYXs9-69" target="B0hOVwlSUektJ_psYXs9-79">
          <mxGeometry relative="1" as="geometry">
            <mxPoint x="351" y="694.92" as="sourcePoint" />
            <mxPoint x="379" y="694.92" as="targetPoint" />
          </mxGeometry>
        </mxCell>
        <mxCell id="B0hOVwlSUektJ_psYXs9-78" value="&lt;b style=&quot;border-color: var(--border-color);&quot;&gt;Server-side Preparation&lt;/b&gt;" style="text;html=1;align=center;verticalAlign=middle;resizable=0;points=[];autosize=1;strokeColor=none;fillColor=none;movable=0;rotatable=0;deletable=0;editable=0;locked=1;connectable=0;" vertex="1" parent="1">
          <mxGeometry x="150" y="560" width="160" height="30" as="geometry" />
        </mxCell>
        <mxCell id="B0hOVwlSUektJ_psYXs9-69" value="" style="rounded=0;whiteSpace=wrap;html=1;strokeWidth=2;movable=0;resizable=0;rotatable=0;deletable=0;editable=0;locked=1;connectable=0;" vertex="1" parent="1">
          <mxGeometry x="112" y="590" width="236" height="220" as="geometry" />
        </mxCell>
        <mxCell id="B0hOVwlSUektJ_psYXs9-187" style="edgeStyle=orthogonalEdgeStyle;rounded=0;orthogonalLoop=1;jettySize=auto;html=1;exitX=1;exitY=0.5;exitDx=0;exitDy=0;entryX=0;entryY=0.5;entryDx=0;entryDy=0;movable=0;resizable=0;rotatable=0;deletable=0;editable=0;locked=1;connectable=0;" edge="1" parent="1" source="B0hOVwlSUektJ_psYXs9-49" target="B0hOVwlSUektJ_psYXs9-186">
          <mxGeometry relative="1" as="geometry" />
        </mxCell>
        <mxCell id="B0hOVwlSUektJ_psYXs9-49" value="&lt;font style=&quot;font-size: 13px;&quot;&gt;Model Trainer&lt;/font&gt;" style="rounded=1;whiteSpace=wrap;html=1;fillColor=#c8ffc8;strokeColor=default;movable=0;resizable=0;rotatable=0;deletable=0;editable=0;locked=1;connectable=0;" vertex="1" parent="1">
          <mxGeometry x="137" y="606" width="126" height="50" as="geometry" />
        </mxCell>
        <mxCell id="B0hOVwlSUektJ_psYXs9-65" style="edgeStyle=orthogonalEdgeStyle;rounded=0;orthogonalLoop=1;jettySize=auto;html=1;exitX=0;exitY=0.5;exitDx=0;exitDy=0;entryX=0;entryY=0.5;entryDx=0;entryDy=0;movable=0;resizable=0;rotatable=0;deletable=0;editable=0;locked=1;connectable=0;" edge="1" parent="1" source="B0hOVwlSUektJ_psYXs9-49" target="B0hOVwlSUektJ_psYXs9-51">
          <mxGeometry relative="1" as="geometry">
            <mxPoint x="101" y="760" as="targetPoint" />
            <Array as="points">
              <mxPoint x="137" y="630" />
              <mxPoint x="122" y="630" />
              <mxPoint x="122" y="767" />
            </Array>
          </mxGeometry>
        </mxCell>
        <mxCell id="B0hOVwlSUektJ_psYXs9-50" value="&lt;font style=&quot;font-size: 13px;&quot;&gt;Video Encoder&lt;/font&gt;" style="rounded=1;whiteSpace=wrap;html=1;fillColor=#96c8ff;strokeColor=default;movable=0;resizable=0;rotatable=0;deletable=0;editable=0;locked=1;connectable=0;" vertex="1" parent="1">
          <mxGeometry x="137" y="675" width="126" height="50" as="geometry" />
        </mxCell>
        <mxCell id="B0hOVwlSUektJ_psYXs9-64" style="edgeStyle=orthogonalEdgeStyle;rounded=0;orthogonalLoop=1;jettySize=auto;html=1;exitX=0.5;exitY=1;exitDx=0;exitDy=0;entryX=0.5;entryY=0;entryDx=0;entryDy=0;movable=0;resizable=0;rotatable=0;deletable=0;editable=0;locked=1;connectable=0;" edge="1" parent="1" source="B0hOVwlSUektJ_psYXs9-49" target="B0hOVwlSUektJ_psYXs9-50">
          <mxGeometry relative="1" as="geometry" />
        </mxCell>
        <mxCell id="B0hOVwlSUektJ_psYXs9-183" style="edgeStyle=orthogonalEdgeStyle;rounded=0;orthogonalLoop=1;jettySize=auto;html=1;exitX=1;exitY=0.5;exitDx=0;exitDy=0;entryX=0.029;entryY=0.617;entryDx=0;entryDy=0;entryPerimeter=0;movable=0;resizable=0;rotatable=0;deletable=0;editable=0;locked=1;connectable=0;" edge="1" parent="1" source="B0hOVwlSUektJ_psYXs9-51" target="B0hOVwlSUektJ_psYXs9-237">
          <mxGeometry relative="1" as="geometry">
            <mxPoint x="297" y="767" as="targetPoint" />
          </mxGeometry>
        </mxCell>
        <mxCell id="B0hOVwlSUektJ_psYXs9-51" value="&lt;font style=&quot;font-size: 13px;&quot;&gt;Patch Method Matrix&lt;br&gt;Constructor&lt;/font&gt;" style="rounded=1;whiteSpace=wrap;html=1;fillColor=#ffc896;strokeColor=default;movable=0;resizable=0;rotatable=0;deletable=0;editable=0;locked=1;connectable=0;" vertex="1" parent="1">
          <mxGeometry x="137" y="742" width="126" height="50" as="geometry" />
        </mxCell>
        <mxCell id="B0hOVwlSUektJ_psYXs9-66" style="edgeStyle=orthogonalEdgeStyle;rounded=0;orthogonalLoop=1;jettySize=auto;html=1;exitX=0.5;exitY=1;exitDx=0;exitDy=0;entryX=0.5;entryY=0;entryDx=0;entryDy=0;movable=0;resizable=0;rotatable=0;deletable=0;editable=0;locked=1;connectable=0;" edge="1" parent="1" source="B0hOVwlSUektJ_psYXs9-50" target="B0hOVwlSUektJ_psYXs9-51">
          <mxGeometry relative="1" as="geometry" />
        </mxCell>
        <mxCell id="B0hOVwlSUektJ_psYXs9-206" value="" style="rounded=1;whiteSpace=wrap;html=1;dashed=1;fillColor=#FFFB94;strokeColor=none;dashPattern=1 4;movable=0;resizable=0;rotatable=0;deletable=0;editable=0;locked=1;connectable=0;glass=0;shadow=0;" vertex="1" parent="1">
          <mxGeometry x="376" y="668" width="36" height="60" as="geometry" />
        </mxCell>
        <mxCell id="B0hOVwlSUektJ_psYXs9-128" style="edgeStyle=orthogonalEdgeStyle;rounded=0;orthogonalLoop=1;jettySize=auto;html=1;exitX=1;exitY=0.5;exitDx=0;exitDy=0;entryX=0;entryY=0.5;entryDx=0;entryDy=0;entryPerimeter=0;movable=0;resizable=0;rotatable=0;deletable=0;editable=0;locked=1;connectable=0;" edge="1" parent="1" source="B0hOVwlSUektJ_psYXs9-50" target="B0hOVwlSUektJ_psYXs9-117">
          <mxGeometry relative="1" as="geometry">
            <mxPoint x="322" y="700.1904761904761" as="targetPoint" />
          </mxGeometry>
        </mxCell>
        <mxCell id="B0hOVwlSUektJ_psYXs9-129" value="&lt;p style=&quot;line-height: 0%; font-size: 11px;&quot;&gt;&lt;font style=&quot;font-size: 11px;&quot;&gt;Video&lt;/font&gt;&lt;/p&gt;&lt;p style=&quot;line-height: 0%; font-size: 11px;&quot;&gt;&lt;font style=&quot;font-size: 11px;&quot;&gt;&lt;br&gt;&lt;/font&gt;&lt;/p&gt;&lt;p style=&quot;line-height: 0%; font-size: 11px;&quot;&gt;&lt;font style=&quot;font-size: 11px;&quot;&gt;Split&lt;/font&gt;&lt;/p&gt;" style="edgeLabel;html=1;align=center;verticalAlign=middle;resizable=0;points=[];fontSize=7;labelBackgroundColor=none;movable=0;rotatable=0;deletable=0;editable=0;locked=1;connectable=0;" vertex="1" connectable="0" parent="B0hOVwlSUektJ_psYXs9-128">
          <mxGeometry x="0.178" relative="1" as="geometry">
            <mxPoint x="-3" y="-1" as="offset" />
          </mxGeometry>
        </mxCell>
        <mxCell id="B0hOVwlSUektJ_psYXs9-137" style="edgeStyle=orthogonalEdgeStyle;rounded=0;orthogonalLoop=1;jettySize=auto;html=1;exitX=1;exitY=0.5;exitDx=0;exitDy=0;entryX=0;entryY=0.5;entryDx=0;entryDy=0;strokeWidth=5;endArrow=block;endFill=1;fillColor=#0050ef;strokeColor=#001DBC;movable=0;resizable=0;rotatable=0;deletable=0;editable=0;locked=1;connectable=0;" edge="1" parent="1" source="B0hOVwlSUektJ_psYXs9-59" target="B0hOVwlSUektJ_psYXs9-69">
          <mxGeometry relative="1" as="geometry">
            <mxPoint x="86" y="700" as="sourcePoint" />
            <mxPoint x="113" y="700" as="targetPoint" />
          </mxGeometry>
        </mxCell>
        <mxCell id="B0hOVwlSUektJ_psYXs9-184" value="&lt;font style=&quot;font-size: 12px;&quot;&gt;PM&lt;/font&gt;" style="text;html=1;align=center;verticalAlign=middle;resizable=0;points=[];autosize=1;strokeColor=none;fillColor=none;movable=0;rotatable=0;deletable=0;editable=0;locked=1;connectable=0;" vertex="1" parent="1">
          <mxGeometry x="295" y="773" width="40" height="30" as="geometry" />
        </mxCell>
        <mxCell id="B0hOVwlSUektJ_psYXs9-186" value="" style="shape=image;verticalLabelPosition=bottom;labelBackgroundColor=default;verticalAlign=top;aspect=fixed;imageAspect=0;image=data:image/png,iVBORw0KGgoAAAANSUhEUgAAAGQAAABkCAYAAABw4pVUAAAAAXNSR0IArs4c6QAAELhJREFUeJztnHl8FFW2x7/nVichApIACoxbQBQEgWFEBZcxAjLigvJ8wWUAZRkQ1Hn60RHZxh4WcVyeMw8QCT5wQZTgSlBAn4LgwFMfOrLKokZQYFxZhaS76rw/uqu7EhPSnXRCB/v7+eTzSVfVvedW//rcrc4pSJEiRYoUKVKkSJEiRYoUv2jkaDegupz8Rz1DbG5xhCxg+ddNeQW/BI92u6pKnRbk1Du0p9gsRMj0HN4mMKnoBJ6ri8LUYUFUWo5kG9CqvLOOhoTJacZzy+uQMHVWkJyR2txSdrmfHZgvynUi+LzXqbJNDJNPOZG5dUEYc7QbUFXqOdQzCu7fFzPkhnQ4wzjki0PQPW5Ba+MwZ8dutp4xQofl+tVXee1HjzrrIW1v1RxVvnA/b54p4j3nKKNRBpfjMUUGpjT/FbOT0WPqrIdAqPHun5dPn5CiLTNluFq0EZgjEHCvs4QcEWb+axeftr1VbwFNqh9l3RbE02WVx9YZ8vmnM2VwmqGtpcwRJeApc7rlMOfsYbycl6dW7ba8YpLq11EZ7YdoazH8BjhdlbONcJN7bt0sqfReOgzWVliMVWWACGnucYEb186SF2qo2XGR1IKcPVSbGbhKlN4q5Ao0qejaT56sXBCXDoO1lYFnMVwAgMP0T2bL7QlocrVJuhlHrl99e7/iWpRBqvxOINSdVNAtxUvHodrSgjHqcK6E6xTDd4mpvfokjSCt79CMRgcZtr+IuyxDywouU1W2iLDJUX4wwuBY6z9vqLZ0HMZiMxC3u1JAOWAsnk7ALSSEJBBE5bxB3KAHeEAgB6GsN2wXYZEKb6QfYtV78+RHgK63aI5D5YKcO1hbiTKWIAOMVwgAh21iMej9J+WLimuoXY6qIOcN0JZiyBelZ6kTSkDhRTU8+cFpLMcvTnnlK5pdQUgIE2Ss2AygjBAOfCbC5MyWPJtsa5GjJki3m3Ug8LhAfY9HlODwhM/HIyvmyI7K6ihPkIsGayvHZhxB+pcVQuEzgcn1vuTZ5cuTSwiXWhekXZ6mN67HVJRh3uMCC4MOd6+eK9tiqceUoMbT+osG6pnAfQTo/7OuSflMYJK1g7nJKoRLrQrSM08blWTyEkoPz6/2OxFuX/GMzI+nruIGfFv/JwJE1xObIyejdW8DJtcFIVxqbR3SY6A2CSpvC3TyWP9fx6JfLN1TeeQO0CeBIeWc2oYwie08V1eEcKkVD8m9RbM0yFLLKwbMbXKYIQsWSElV622YyR8PHsJR5WaBdIWNRnnI/rruCeFS4x5yzjBNyz7IUuBSz+GH/+c5RoEkZLnXu7dmlGSR9fbz8q9E1Hc0qXFBet2o+Qh/cD+r8uhbz8s9NW23rlKjglxxgw5Q4RnPoRcWP89NifKMY5EaG0OuvElbYTPNo/g/nL3ckhLjyNSYIMZmKnB8eL/oR9vH7xcvluKasnesUCOCXJOn16Nc4X4WuLVwnnxZE7aONRI+hgwbpmnf/MinEg3PWfzKArniiIVSREi4h3z/PUMsCYmhSglKUjz4qSsk9Jm636/GwJ88ITj5L78snyfSxrFOQj3k07VcZSTSVQUlyEOJrP+XQEIFERgWeSzq8NK816q2R/VLJmGC3HSlZovDZe40QQ0zE1X3L4lqCzKgr56oDm0s4RqF9PDW985WnXiXl6vdvlLk5WmDzAAXI7QQPXLbVQii7NKfWPHsm3IwsS0JjZdF/6SjrZyCob6x2Wky2DRngXxbnXqrPO0deI32NXCnKheJlJ4cKOwHnrSUR2YvlJ3VaaDLoGt1hOMwRYRG8ZRTZa8RRs15TRLisUP7aDNbGKPKDQgnljaGrbBKDP/51KvyalXqj1uQgX21iS/AC5gyz8HLZx/CHbNfk2cqv7RiBvXREQKPV6cOVYbPKZT8arajP8oMERpUag/esi1ufOYV+T4eG3EJMuzftIVTwgqE1mWM7xIoAhoqnCGQUeq8MOq/F0qVZlwj87RB8SG+cj1DMthnTuNzEcoNfIjYVIzzJa20mOPDjdxTXMLJVe2+hvTRe0X5aykbUCywFdivkCPQosz5z2ybi556Q3bHaidmQfLyNL3xId5V6BoxqLxmWfzliYXysXvsjt56/GEf/UXxAye4l4rQd2ahvBarPZfhV+jlalgMQD32NfwPDomhWSxl1WH3/r9zHIdDoqhy+azXZWm8bRh2tV6L8jLR7+tblPuDFnNnL5T9keuu0t8A9wN93GOOstrs5pL8NRKIxVbMC8MmB7lVlK6RYGUYNet1udYrBsDUxbJvVqE8DnQR2By+XsRm+oBeWj9We54WnujazGhB0XHQLNOBWP6Og+YZLSiKtFliE9LLXXmaaWymGUWMgoSe3XfJf11meMUAyF8kH+Uvkmss5T7Xpg+6Wc1KB3Qc+XZjwJ+rPqOMiazAHfKfWFS6C7pzmWb5l0WTYfIXyXafQx9xOBQW8KTjLQbG2jAXy8G4dtMVJ1Yx3L90xfG0O+6dieIDDDFwklEwDj9ZAa7KXyTbI9/NMvXduUyzvGVmvC5/NTDbtSswNtYI+5ga+H0mFxqhmQFEORTwMdY9N2Gldpq0Qj9qavGjz7B30gqd7Fc1ANPfkC0+YYabmyFwQyz2vFhEc0B8xCdGphMqE8kNidd4qNx1njyUxx9fGgpT8quaSSt0ss+wt6nFj5NW6EeTV2hHt5wTYLSBw+FyLZr/FA7srtxe5YhwQcQFhXfyC+U7gOnLtEHjAAuzg3TODkK2zXHZQcac8A4jI4Vt5nu6ufPjzsVwPHkgxC+IwZNDcsRpQHmoGOgW8TClwD3TdBm3ZwcZE75nsoN0bhSk8OGloW75iTflG8tmWcRLbC6MxWJsC0OHkyLKKZvcf7OCXIhy6s9uA24EpgFkZrCpJBpXktH8AI2BmBdPVrhCgDQNfcnxkHaEhJ7KuPtqmtiB6Iyx5HD03rMD3FjOlOjUxnAB8BaACJtE6R0+96tYbMYkiE9L5X1F/s0OVJgkEDl+KICke66qZxFXeE64mwQgzamCIA5YbuBcnKsuKcZYnjINjvfcu13+vRsTPS6EJgIAqrElVMQqyM5oVCZnucczD7AqI4PtSBkvUSLZSBk2Z3nu6dCDr7MnFpsulk3kJ1BVQSIeEmfZBiX8cCCNEhHSAewS2gIfAmQHeV6hW6kCDl/Wz2S1+9HnRL8rEWLasYhpDFFllSc3r/vo3noCwKX95EBjuDrbZk22DdkBDmbZTOr2cXRVbTlc7ym7Kt4gB4voGFDlQT36fCYu/MslaMEHkfI217vnun7E9CyHydkBDmbbkG2zprHQp9PvQgvPe3rpiaLkumUVVsViMyYPKcrivdY/shtoDtSTEh6AUKxV22tkLdDli1c0K8dmv1wntltu3KXaJggjPBK8FIs9LwbQcHlfFcYQn2cMiT3pLYoFL6hyUfjjyHGX6cxJb8lWCaVIjNMCvb/I0LBlXynl+WkODwL1CLV/V1FWbILE5CELFohtwQOeefXQsT31Pu81LfvKHukXFeO+XM1RYaGloQR/y2F7RpA5sdgrhWcdYYKYuGdZweg6Bo1/npUe4Glx2BmuI9NxKBzbXU9zz0s/scuKMaaHjjbKII9nTlqwIPrdHImYF0q+bGaKzerIl+MwZXx3LRybq128143qqY3Gddc70oT/M3CmURAHB+E2/3I5HKu9SAOVb1ybe78mJyPI7kwbYvnLCLBrz05aRro8m7hDTf3L5YBPGWkUDU992xhlzfjuevuonlpq53lsrnYZ30MXWRr98VoO7327h1mx2ovLif252twRVgo/21zcDRQZpaGjnCEmNAiGDaij/GnCcnk0Hlsemw0UviK8uehLY3+LU/jMqmRz0VbMrh2cHgzQMNzGPT+lcfIjVdxc9HfXe1AeUs93pg4lRtjqCPuN0lLLbM2ow5agj98+8HbsMcdx96oP9NAmwSDzVOhV6cXKPhGG/3l59XLA/5Krw4EnqlMHyrD735WYf6nlMSFX+9vKNBPDMxmFxWTQ379UfojHRpUfUE28VPs4DncLXCjyswnMboTnrSBTxqys3hO0iL2QKA8CWZVdW4Y9KPeOr6YYLpMv1ha24R6EPwgh73NRxQbeFeGx8ctlUVXqr3agnD9Xm/oc2gEtjOGg2mwPrGS9n/ITNavDw720fkmAi7A5CalkhqgEsfg6sI+V/jXyUyLbUZCn1tZv2EH4+YcjPCrwarCYjf7V8XlEWZL6TQ7JypTfai8B97lKiTo0H/1eKF27uiRBnnrdw4Khno2QJfcmSAxICRI3j+Vqjh2gr9u3iCY23CklSLwEuM+AL5xmsXXfKpYksvqUIHHwtwu1DQ5DPFswDyd68pISJB4cHot4B2z9IaMKW0GVkBIkRqaer/09D5tQZbS/BlKvU9PeGJh5jp5q+/iI8AvUFBbf9n7NJCHV6Xcu1gb/1VsznDReNNAkHLCwTy1G1JS9lCBHQFHJ+IEnLYdzPbvcI29fVXP5kqkxpAIUldld+LvPob/n8PQhH8pzNWm3TntIQTfNnHW+xh2NWBmKylPnMM3AHZ4wnsU76nNnom2VpU4O6nM7azvbMBa4DshQ2CQOQ27+WFZXVrYyCrpp5qESngL6RQ46fBA8jp5D/lE6dLQmqFOCzO2s7VQYT+jLKuXdjrIXh/Y3fyJfV7X+Ob/WHEuYL8J57jGB1elC735rZG/VWx47dWIMmdtZ26nDeIF+ouV3swYaqeEGoEpPJp/rrANUmSrQKPICNIclxYfp139zzXuGS1ILMq+TtlfDeKPkIZgyoWYbUCaK8ls1odBVgZPjtVHQUdsEYVrkRZyuDWFa82zuurSW37uVlILM66TtDYwXyKNMxLooGxAmbvyEBX7Emd9Ru0bCjOKI+CroqC1tYZyjDLQksh2CKntEGH79P6XgyDXUDEklyIudtL06/Bnl3ykzRqiywRgmrF/Li94NPQMxC1GQpxab6C7CCJQ+vjJvzVZYJEFu67cxmm5Q2ySFIAXttIElTMVhoFC6a1JlPTBxw/rSQkQviCpX3rZr4TnatDjAJaJcppvoK95EzehYsQXDqLx1VUvUTCRJIUiaRT6hiPkoynoVJqxbz0tH2uL23oA4dHi1g45SaI7Q2nFoHyghx3Jnk2XnlCEhpmSdwNzaHisq4qgLUnimNlWNxsw6sF6ECR9XIoSLN10BoQdKD8LHSp0Lo1AsyhIDM67cwJuSZC9UO+qCYJFtolNZxxImfrguNjEATAxXqfKVwnJjWJqRQeFltbSmqApHXZAGzfji0Dd8DZxEaPyYf1471r0hOuGDDbxcmTClBnVlO4bV2Hwjwg4V1gdhQ5+jOEjHS1Ks1JecpVcqvCjhaHEXgXWOMPH9jRV7zJKz9DGI7DH97fJNcldNt7cmSYrNxcs3yes4/NpAgfFEu4vSwXIouKANn7zZRvP86M/aK54cxMSH5tU+SSEIQO/NsrnXJrneBOkgyrNGsT3JnmcbKLjgTNa+daYOLCCaOOpN6kyam6kGSXcPPbfJxss2y0BsOpoywvigvQVPNz2Tte+EhfF5PMR3DHhIUowhR2JFa23nVLDDC2xQKBHoDCDCg5dskdG13sgEkvSCuLjCiNJPKvBsgT4Xb5PC2m5bIqkzgrisaK3tLGWcCteXEWb+Bdu4MdkWevFS5wRxWZWjbcXi90AWwsqu23hRjol5VooUKVKkSJEiRYoUKVKk+EXz//6zwz34H2hFAAAAAElFTkSuQmCC;movable=0;resizable=0;rotatable=0;deletable=0;editable=0;locked=1;connectable=0;" vertex="1" parent="1">
          <mxGeometry x="296" y="609" width="43" height="43" as="geometry" />
        </mxCell>
        <mxCell id="B0hOVwlSUektJ_psYXs9-197" value="" style="group;movable=0;resizable=0;rotatable=0;deletable=0;editable=0;locked=1;connectable=0;" vertex="1" connectable="0" parent="1">
          <mxGeometry x="378" y="705" width="33" height="20" as="geometry" />
        </mxCell>
        <mxCell id="B0hOVwlSUektJ_psYXs9-133" value="" style="html=1;whiteSpace=wrap;shape=isoCube2;backgroundOutline=1;isoAngle=20.100036621093977;strokeWidth=1;fillColor=#dae8fc;strokeColor=#6c8ebf;shadow=0;perimeterSpacing=0;movable=0;resizable=0;rotatable=0;deletable=0;editable=0;locked=1;connectable=0;" vertex="1" parent="B0hOVwlSUektJ_psYXs9-197">
          <mxGeometry x="21" width="5" height="20" as="geometry" />
        </mxCell>
        <mxCell id="B0hOVwlSUektJ_psYXs9-134" value="" style="html=1;whiteSpace=wrap;shape=isoCube2;backgroundOutline=1;isoAngle=20.100036621093977;strokeWidth=1;fillColor=#dae8fc;strokeColor=#6c8ebf;shadow=0;perimeterSpacing=0;movable=0;resizable=0;rotatable=0;deletable=0;editable=0;locked=1;connectable=0;" vertex="1" parent="B0hOVwlSUektJ_psYXs9-197">
          <mxGeometry width="5" height="20" as="geometry" />
        </mxCell>
        <mxCell id="B0hOVwlSUektJ_psYXs9-135" value="" style="html=1;whiteSpace=wrap;shape=isoCube2;backgroundOutline=1;isoAngle=20.100036621093977;strokeWidth=1;fillColor=#dae8fc;strokeColor=#6c8ebf;shadow=0;perimeterSpacing=0;movable=0;resizable=0;rotatable=0;deletable=0;editable=0;locked=1;connectable=0;" vertex="1" parent="B0hOVwlSUektJ_psYXs9-197">
          <mxGeometry x="7" width="5" height="20" as="geometry" />
        </mxCell>
        <mxCell id="B0hOVwlSUektJ_psYXs9-136" value="" style="html=1;whiteSpace=wrap;shape=isoCube2;backgroundOutline=1;isoAngle=20.100036621093977;strokeWidth=1;fillColor=#dae8fc;strokeColor=#6c8ebf;shadow=0;perimeterSpacing=0;movable=0;resizable=0;rotatable=0;deletable=0;editable=0;locked=1;connectable=0;" vertex="1" parent="B0hOVwlSUektJ_psYXs9-197">
          <mxGeometry x="14" width="5" height="20" as="geometry" />
        </mxCell>
        <mxCell id="B0hOVwlSUektJ_psYXs9-196" value="" style="html=1;whiteSpace=wrap;shape=isoCube2;backgroundOutline=1;isoAngle=20.100036621093977;strokeWidth=1;fillColor=#dae8fc;strokeColor=#6c8ebf;shadow=0;perimeterSpacing=0;movable=0;resizable=0;rotatable=0;deletable=0;editable=0;locked=1;connectable=0;" vertex="1" parent="B0hOVwlSUektJ_psYXs9-197">
          <mxGeometry x="28" width="5" height="20" as="geometry" />
        </mxCell>
        <mxCell id="B0hOVwlSUektJ_psYXs9-204" value="" style="html=1;whiteSpace=wrap;shape=isoCube2;backgroundOutline=1;isoAngle=20.100036621093977;strokeWidth=1;fillColor=#dae8fc;strokeColor=#6c8ebf;shadow=0;perimeterSpacing=0;movable=0;resizable=0;rotatable=0;deletable=0;editable=0;locked=1;connectable=0;" vertex="1" parent="1">
          <mxGeometry x="465.5" y="675" width="6" height="20" as="geometry" />
        </mxCell>
        <mxCell id="B0hOVwlSUektJ_psYXs9-140" style="edgeStyle=orthogonalEdgeStyle;rounded=0;orthogonalLoop=1;jettySize=auto;html=1;exitX=1;exitY=0.5;exitDx=0;exitDy=0;entryX=0;entryY=0.5;entryDx=0;entryDy=0;movable=0;resizable=0;rotatable=0;deletable=0;editable=0;locked=1;connectable=0;" edge="1" parent="1" source="B0hOVwlSUektJ_psYXs9-206" target="B0hOVwlSUektJ_psYXs9-210">
          <mxGeometry relative="1" as="geometry">
            <mxPoint x="501" y="698" as="targetPoint" />
          </mxGeometry>
        </mxCell>
        <mxCell id="B0hOVwlSUektJ_psYXs9-132" value="" style="shape=image;verticalLabelPosition=bottom;labelBackgroundColor=#ffffff;verticalAlign=top;aspect=fixed;imageAspect=0;image=data:image/svg+xml,PHN2ZyB4bWxuczpjYz0iaHR0cDovL2NyZWF0aXZlY29tbW9ucy5vcmcvbnMjIiB4bWxuczpkYz0iaHR0cDovL3B1cmwub3JnL2RjL2VsZW1lbnRzLzEuMS8iIHhtbG5zOmlua3NjYXBlPSJodHRwOi8vd3d3Lmlua3NjYXBlLm9yZy9uYW1lc3BhY2VzL2lua3NjYXBlIiB4bWxuczpyZGY9Imh0dHA6Ly93d3cudzMub3JnLzE5OTkvMDIvMjItcmRmLXN5bnRheC1ucyMiIHhtbG5zOnNvZGlwb2RpPSJodHRwOi8vc29kaXBvZGkuc291cmNlZm9yZ2UubmV0L0RURC9zb2RpcG9kaS0wLmR0ZCIgeG1sbnM6c3ZnPSJodHRwOi8vd3d3LnczLm9yZy8yMDAwL3N2ZyIgeG1sbnM9Imh0dHA6Ly93d3cudzMub3JnLzIwMDAvc3ZnIiB4bWxuczp4bGluaz0iaHR0cDovL3d3dy53My5vcmcvMTk5OS94bGluayIgdmVyc2lvbj0iMS4xIiBpZD0ic3ZnNDExNTUiIGlua3NjYXBlOnZlcnNpb249IjAuOTIuMyAoMjQwNTU0NiwgMjAxOC0wMy0xMSkiIHNvZGlwb2RpOmRvY25hbWU9ImVkaWZhY3Quc3ZnIiB4PSIwcHgiIHk9IjBweCIgdmlld0JveD0iMCAwIDI3Ljk4IDM2LjQzIiBzdHlsZT0iZW5hYmxlLWJhY2tncm91bmQ6bmV3IDAgMCAyNy45OCAzNi40MzsiIHhtbDpzcGFjZT0icHJlc2VydmUiPiYjeGE7PHNvZGlwb2RpOm5hbWVkdmlldyBib3JkZXJjb2xvcj0iIzY2NjY2NiIgYm9yZGVyb3BhY2l0eT0iMSIgZml0LW1hcmdpbi1ib3R0b209IjAiIGZpdC1tYXJnaW4tbGVmdD0iMCIgZml0LW1hcmdpbi1yaWdodD0iMCIgZml0LW1hcmdpbi10b3A9IjAiIGdyaWR0b2xlcmFuY2U9IjEwIiBndWlkZXRvbGVyYW5jZT0iMTAiIGlkPSJuYW1lZHZpZXc0MTE1NyIgaW5rc2NhcGU6Y3VycmVudC1sYXllcj0ic3ZnNDExNTUiIGlua3NjYXBlOmN4PSIxOC42NTE5ODQiIGlua3NjYXBlOmN5PSIyNC4yODYxMTUiIGlua3NjYXBlOnBhZ2VvcGFjaXR5PSIwIiBpbmtzY2FwZTpwYWdlc2hhZG93PSIyIiBpbmtzY2FwZTp3aW5kb3ctaGVpZ2h0PSIxMDE3IiBpbmtzY2FwZTp3aW5kb3ctbWF4aW1pemVkPSIxIiBpbmtzY2FwZTp3aW5kb3ctd2lkdGg9IjE5MjAiIGlua3NjYXBlOndpbmRvdy14PSItOCIgaW5rc2NhcGU6d2luZG93LXk9Ii04IiBpbmtzY2FwZTp6b29tPSIxMS4xNTQ3MzIiIG9iamVjdHRvbGVyYW5jZT0iMTAiIHBhZ2Vjb2xvcj0iI2ZmZmZmZiIgc2hvd2dyaWQ9ImZhbHNlIj4mI3hhOwk8L3NvZGlwb2RpOm5hbWVkdmlldz4mI3hhOzxnIGlkPSJnNDExNTMiIHRyYW5zZm9ybT0idHJhbnNsYXRlKC0xMC45Mjg2LC0xMC45MzE0NDUpIj4mI3hhOwk8dGl0bGUgaWQ9InRpdGxlNDEwMzUiPlBhZ2UtMTwvdGl0bGU+JiN4YTsJPGcgaWQ9Imdyb3VwNDA4OC0xIiB0cmFuc2Zvcm09InRyYW5zbGF0ZSgxMC45Mjg2LC0xMC45Mjg2KSI+JiN4YTsJCTx0aXRsZSBpZD0idGl0bGU0MTAzNyI+RURJRkFDVDwvdGl0bGU+JiN4YTsJCTxnIGlkPSJzaGFwZTQwODktMiI+JiN4YTsJCQk8dGl0bGUgaWQ9InRpdGxlNDEwMzkiPlNoZWV0LjQwODk8L3RpdGxlPiYjeGE7CQkJPHBhdGggaWQ9InBhdGg0MTA0MSIgaW5rc2NhcGU6Y29ubmVjdG9yLWN1cnZhdHVyZT0iMCIgc3R5bGU9ImZpbGw6I0U5RTlFMDsiIGQ9Ik0xOS44NCwyMS44NkgwLjk1QzAuNDMsMjEuODYsMCwyMi4yOCwwLDIzLjExICAgICB2MzQuNTNjMCwwLjIzLDAuNDMsMC42NSwwLjk1LDAuNjVoMjYuMDhjMC41MiwwLDAuOTUtMC40MiwwLjk1LTAuNjVWMzAuM2MwLTAuNDUtMC4wNi0wLjYtMC4xNy0wLjdsLTcuNTctNy41OCAgICAgQzIwLjEzLDIxLjkyLDE5Ljk5LDIxLjg2LDE5Ljg0LDIxLjg2eiIvPiYjeGE7CQk8L2c+JiN4YTsJCTxnIGlkPSJzaGFwZTQwOTAtNCIgdHJhbnNmb3JtPSJ0cmFuc2xhdGUoMjAuMTcwMiwtMjguNjI4NykiPiYjeGE7CQkJPHRpdGxlIGlkPSJ0aXRsZTQxMDQ0Ij5TaGVldC40MDkwPC90aXRsZT4mI3hhOwkJCTxwYXRoIGlkPSJwYXRoNDEwNDYiIGlua3NjYXBlOmNvbm5lY3Rvci1jdXJ2YXR1cmU9IjAiIHN0eWxlPSJmaWxsOiNEOUQ3Q0E7IiBkPSJNMCw1MC41OHY3LjcxaDcuNzFMMCw1MC41OHoiLz4mI3hhOwkJPC9nPiYjeGE7CQk8ZyBpZD0ic2hhcGU0MDkxLTYiPiYjeGE7CQkJPHRpdGxlIGlkPSJ0aXRsZTQxMDQ5Ij5TaGVldC40MDkxPC90aXRsZT4mI3hhOwkJCTxwYXRoIGlkPSJwYXRoNDEwNTEiIGlua3NjYXBlOmNvbm5lY3Rvci1jdXJ2YXR1cmU9IjAiIHN0eWxlPSJmaWxsOiM5NUE1QTU7IiBkPSJNMjcuMDMsNTguMjlIMC45NUMwLjQzLDU4LjI5LDAsNTcuODcsMCw1Ny4zNCAgICAgVjQ3LjIzaDI3Ljk4djEwLjExQzI3Ljk4LDU3Ljg3LDI3LjU1LDU4LjI5LDI3LjAzLDU4LjI5eiIvPiYjeGE7CQk8L2c+JiN4YTsJCTxnIGlkPSJzaGFwZTQwOTItOCIgdHJhbnNmb3JtPSJ0cmFuc2xhdGUoMy4yNTMyNiwtMjcuOTc4KSI+JiN4YTsJCQk8dGl0bGUgaWQ9InRpdGxlNDEwNTQiPlNoZWV0LjQwOTI8L3RpdGxlPiYjeGE7CQkJPHBhdGggaWQ9InBhdGg0MTA1NiIgaW5rc2NhcGU6Y29ubmVjdG9yLWN1cnZhdHVyZT0iMCIgc3R5bGU9ImZpbGw6I0M4QkRCODsiIGQ9Ik00LjU1LDU4LjI5aC0zLjlDMC4yOSw1OC4yOSwwLDU4LDAsNTcuNjQgICAgIHMwLjI5LTAuNjUsMC42NS0wLjY1aDMuOWMwLjM2LDAsMC42NiwwLjI5LDAuNjYsMC42NVM0LjkxLDU4LjI5LDQuNTUsNTguMjl6Ii8+JiN4YTsJCTwvZz4mI3hhOwkJPGcgaWQ9InNoYXBlNDA5My0xMCIgdHJhbnNmb3JtPSJ0cmFuc2xhdGUoMy4yNTMyNiwtMjQuNzI0OCkiPiYjeGE7CQkJPHRpdGxlIGlkPSJ0aXRsZTQxMDU5Ij5TaGVldC40MDkzPC90aXRsZT4mI3hhOwkJCTxwYXRoIGlkPSJwYXRoNDEwNjEiIGlua3NjYXBlOmNvbm5lY3Rvci1jdXJ2YXR1cmU9IjAiIHN0eWxlPSJmaWxsOiNDOEJEQjg7IiBkPSJNNi41MSw1OC4yOUgwLjY1QzAuMjksNTguMjksMCw1OCwwLDU3LjY0ICAgICBzMC4yOS0wLjY1LDAuNjUtMC42NWg1Ljg2YzAuMzYsMCwwLjY1LDAuMjksMC42NSwwLjY1UzYuODcsNTguMjksNi41MSw1OC4yOXoiLz4mI3hhOwkJPC9nPiYjeGE7CQk8ZyBpZD0ic2hhcGU0MDk0LTEyIiB0cmFuc2Zvcm09InRyYW5zbGF0ZSgxMS43MTE3LC0yNC43MjQ4KSI+JiN4YTsJCQk8dGl0bGUgaWQ9InRpdGxlNDEwNjQiPlNoZWV0LjQwOTQ8L3RpdGxlPiYjeGE7CQkJPHBhdGggaWQ9InBhdGg0MTA2NiIgaW5rc2NhcGU6Y29ubmVjdG9yLWN1cnZhdHVyZT0iMCIgc3R5bGU9ImZpbGw6I0M4QkRCODsiIGQ9Ik0wLjY1LDU4LjI5Yy0wLjE3LDAtMC4zNC0wLjA3LTAuNDYtMC4xOSAgICAgQzAuMDcsNTcuOTgsMCw1Ny44MiwwLDU3LjY0YzAtMC4xNywwLjA3LTAuMzQsMC4yLTAuNDZjMC4yMy0wLjI0LDAuNjctMC4yNCwwLjkxLDBjMC4xMiwwLjEyLDAuMTksMC4yOSwwLjE5LDAuNDYgICAgIHMtMC4wNywwLjM0LTAuMTksMC40NlMwLjgyLDU4LjI5LDAuNjUsNTguMjl6Ii8+JiN4YTsJCTwvZz4mI3hhOwkJPGcgaWQ9InNoYXBlNDA5NS0xNCIgdHJhbnNmb3JtPSJ0cmFuc2xhdGUoMTQuMzE0MywtMjQuNzI0OCkiPiYjeGE7CQkJPHRpdGxlIGlkPSJ0aXRsZTQxMDY5Ij5TaGVldC40MDk1PC90aXRsZT4mI3hhOwkJCTxwYXRoIGlkPSJwYXRoNDEwNzEiIGlua3NjYXBlOmNvbm5lY3Rvci1jdXJ2YXR1cmU9IjAiIHN0eWxlPSJmaWxsOiNDOEJEQjg7IiBkPSJNNS44Niw1OC4yOUgwLjY1QzAuMjksNTguMjksMCw1OCwwLDU3LjY0ICAgICBzMC4yOS0wLjY1LDAuNjUtMC42NWg1LjIxYzAuMzYsMCwwLjY1LDAuMjksMC42NSwwLjY1UzYuMjIsNTguMjksNS44Niw1OC4yOXoiLz4mI3hhOwkJPC9nPiYjeGE7CQk8ZyBpZD0ic2hhcGU0MDk2LTE2IiB0cmFuc2Zvcm09InRyYW5zbGF0ZSgzLjI1MzI2LC0xNC45NjUpIj4mI3hhOwkJCTx0aXRsZSBpZD0idGl0bGU0MTA3NCI+U2hlZXQuNDA5NjwvdGl0bGU+JiN4YTsJCQk8cGF0aCBpZD0icGF0aDQxMDc2IiBpbmtzY2FwZTpjb25uZWN0b3ItY3VydmF0dXJlPSIwIiBzdHlsZT0iZmlsbDojQzhCREI4OyIgZD0iTTAuNjUsNTguMjljLTAuMTcsMC0wLjM0LTAuMDctMC40Ni0wLjE5ICAgICBDMC4wNyw1Ny45OCwwLDU3LjgxLDAsNTcuNjRjMC0wLjE3LDAuMDctMC4zNCwwLjE5LTAuNDZjMC4yNC0wLjI0LDAuNjgtMC4yNCwwLjkyLDAuMDFjMC4xMiwwLjExLDAuMTksMC4yOCwwLjE5LDAuNDUgICAgIGMwLDAuMTctMC4wNywwLjM0LTAuMTksMC40NlMwLjgyLDU4LjI5LDAuNjUsNTguMjl6Ii8+JiN4YTsJCTwvZz4mI3hhOwkJPGcgaWQ9InNoYXBlNDA5Ny0xOCIgdHJhbnNmb3JtPSJ0cmFuc2xhdGUoNS44NTU4NywtMTQuOTY1KSI+JiN4YTsJCQk8dGl0bGUgaWQ9InRpdGxlNDEwNzkiPlNoZWV0LjQwOTc8L3RpdGxlPiYjeGE7CQkJPHBhdGggaWQ9InBhdGg0MTA4MSIgaW5rc2NhcGU6Y29ubmVjdG9yLWN1cnZhdHVyZT0iMCIgc3R5bGU9ImZpbGw6I0M4QkRCODsiIGQ9Ik01Ljg2LDU4LjI5SDAuNjVDMC4yOSw1OC4yOSwwLDU4LDAsNTcuNjQgICAgIHMwLjI5LTAuNjUsMC42NS0wLjY1aDUuMjFjMC4zNiwwLDAuNjUsMC4yOSwwLjY1LDAuNjVTNi4yMiw1OC4yOSw1Ljg2LDU4LjI5eiIvPiYjeGE7CQk8L2c+JiN4YTsJCTxnIGlkPSJzaGFwZTQwOTgtMjAiIHRyYW5zZm9ybT0idHJhbnNsYXRlKDIyLjEyMjIsLTI0LjcyNDgpIj4mI3hhOwkJCTx0aXRsZSBpZD0idGl0bGU0MTA4NCI+U2hlZXQuNDA5ODwvdGl0bGU+JiN4YTsJCQk8cGF0aCBpZD0icGF0aDQxMDg2IiBpbmtzY2FwZTpjb25uZWN0b3ItY3VydmF0dXJlPSIwIiBzdHlsZT0iZmlsbDojQzhCREI4OyIgZD0iTTEuOTUsNTguMjloLTEuM0MwLjI5LDU4LjI5LDAsNTgsMCw1Ny42NCAgICAgczAuMjktMC42NSwwLjY1LTAuNjVoMS4zYzAuMzYsMCwwLjY1LDAuMjksMC42NSwwLjY1UzIuMzEsNTguMjksMS45NSw1OC4yOXoiLz4mI3hhOwkJPC9nPiYjeGE7CQk8ZyBpZD0ic2hhcGU0MDk5LTIyIiB0cmFuc2Zvcm09InRyYW5zbGF0ZSgzLjI1MzI2LC0yMS40NzE1KSI+JiN4YTsJCQk8dGl0bGUgaWQ9InRpdGxlNDEwODkiPlNoZWV0LjQwOTk8L3RpdGxlPiYjeGE7CQkJPHBhdGggaWQ9InBhdGg0MTA5MSIgaW5rc2NhcGU6Y29ubmVjdG9yLWN1cnZhdHVyZT0iMCIgc3R5bGU9ImZpbGw6I0M4QkRCODsiIGQ9Ik0xNC45Niw1OC4yOUgwLjY1QzAuMjksNTguMjksMCw1OCwwLDU3LjY0ICAgICBzMC4yOS0wLjY1LDAuNjUtMC42NWgxNC4zMWMwLjM2LDAsMC42NiwwLjI5LDAuNjYsMC42NVMxNS4zMiw1OC4yOSwxNC45Niw1OC4yOXoiLz4mI3hhOwkJPC9nPiYjeGE7CQk8ZyBpZD0ic2hhcGU0MTAwLTI0IiB0cmFuc2Zvcm09InRyYW5zbGF0ZSgxOS41MTk2LC0yMS40NzE1KSI+JiN4YTsJCQk8dGl0bGUgaWQ9InRpdGxlNDEwOTQiPlNoZWV0LjQxMDA8L3RpdGxlPiYjeGE7CQkJPHBhdGggaWQ9InBhdGg0MTA5NiIgaW5rc2NhcGU6Y29ubmVjdG9yLWN1cnZhdHVyZT0iMCIgc3R5bGU9ImZpbGw6I0M4QkRCODsiIGQ9Ik00LjU1LDU4LjI5aC0zLjlDMC4yOSw1OC4yOSwwLDU4LDAsNTcuNjQgICAgIHMwLjI5LTAuNjUsMC42NS0wLjY1aDMuOWMwLjM2LDAsMC42NiwwLjI5LDAuNjYsMC42NVM0LjkxLDU4LjI5LDQuNTUsNTguMjl6Ii8+JiN4YTsJCTwvZz4mI3hhOwkJPGcgaWQ9InNoYXBlNDEwMS0yNiIgdHJhbnNmb3JtPSJ0cmFuc2xhdGUoMy4yNTMyNiwtMTguMjE4MikiPiYjeGE7CQkJPHRpdGxlIGlkPSJ0aXRsZTQxMDk5Ij5TaGVldC40MTAxPC90aXRsZT4mI3hhOwkJCTxwYXRoIGlkPSJwYXRoNDExMDEiIGlua3NjYXBlOmNvbm5lY3Rvci1jdXJ2YXR1cmU9IjAiIHN0eWxlPSJmaWxsOiNDOEJEQjg7IiBkPSJNMy4yNSw1OC4yOWgtMi42QzAuMjksNTguMjksMCw1OCwwLDU3LjY0ICAgICBzMC4yOS0wLjY1LDAuNjUtMC42NWgyLjZjMC4zNiwwLDAuNjUsMC4yOSwwLjY1LDAuNjVTMy42MSw1OC4yOSwzLjI1LDU4LjI5eiIvPiYjeGE7CQk8L2c+JiN4YTsJCTxnIGlkPSJzaGFwZTQxMDItMjgiIHRyYW5zZm9ybT0idHJhbnNsYXRlKDguNDU4NDcsLTE4LjIxODIpIj4mI3hhOwkJCTx0aXRsZSBpZD0idGl0bGU0MTEwNCI+U2hlZXQuNDEwMjwvdGl0bGU+JiN4YTsJCQk8cGF0aCBpZD0icGF0aDQxMTA2IiBpbmtzY2FwZTpjb25uZWN0b3ItY3VydmF0dXJlPSIwIiBzdHlsZT0iZmlsbDojQzhCREI4OyIgZD0iTTcuMTYsNTguMjlIMC42NUMwLjI5LDU4LjI5LDAsNTgsMCw1Ny42NCAgICAgczAuMjktMC42NSwwLjY1LTAuNjVoNi41MWMwLjM2LDAsMC42NSwwLjI5LDAuNjUsMC42NVM3LjUyLDU4LjI5LDcuMTYsNTguMjl6Ii8+JiN4YTsJCTwvZz4mI3hhOwkJPGcgaWQ9InNoYXBlNDEwMy0zMCIgdHJhbnNmb3JtPSJ0cmFuc2xhdGUoMTcuNTY3NiwtMTguMjE4MikiPiYjeGE7CQkJPHRpdGxlIGlkPSJ0aXRsZTQxMTA5Ij5TaGVldC40MTAzPC90aXRsZT4mI3hhOwkJCTxwYXRoIGlkPSJwYXRoNDExMTEiIGlua3NjYXBlOmNvbm5lY3Rvci1jdXJ2YXR1cmU9IjAiIHN0eWxlPSJmaWxsOiNDOEJEQjg7IiBkPSJNNi41MSw1OC4yOUgwLjY1QzAuMjksNTguMjksMCw1OCwwLDU3LjY0ICAgICBzMC4yOS0wLjY1LDAuNjUtMC42NWg1Ljg2YzAuMzYsMCwwLjY1LDAuMjksMC42NSwwLjY1UzYuODcsNTguMjksNi41MSw1OC4yOXoiLz4mI3hhOwkJPC9nPiYjeGE7CQk8ZyBpZD0iZ3JvdXA0MTA0LTMyIiB0cmFuc2Zvcm09InRyYW5zbGF0ZSgyLjI2NzcyLC0zLjg2NDQzKSI+JiN4YTsJCQk8dGl0bGUgaWQ9InRpdGxlNDExMTQiPlNoZWV0LjQxMDQ8L3RpdGxlPiYjeGE7CQkJPGcgaWQ9InNoYXBlNDEwNS0zMyIgdHJhbnNmb3JtPSJ0cmFuc2xhdGUoMCwtMC4wNzA3ODcxKSI+JiN4YTsJCQkJPHRpdGxlIGlkPSJ0aXRsZTQxMTE2Ij5TaGVldC40MTA1PC90aXRsZT4mI3hhOwkJCQk8cGF0aCBpZD0icGF0aDQxMTE4IiBpbmtzY2FwZTpjb25uZWN0b3ItY3VydmF0dXJlPSIwIiBzdHlsZT0iZmlsbDojRkZGRkZGOyIgZD0iTTIuOSw1NC4zOXYwLjcySDAuODN2MC44NGgxLjg5djAuNjdIMC44M3YwLjk1ICAgICAgaDIuMTJ2MC43Mkgwdi0zLjlIMi45eiIvPiYjeGE7CQkJPC9nPiYjeGE7CQkJPGcgaWQ9InNoYXBlNDEwNi0zNSIgdHJhbnNmb3JtPSJ0cmFuc2xhdGUoMy41MTg3MSwtMC4wNzk2MzU1KSI+JiN4YTsJCQkJPHRpdGxlIGlkPSJ0aXRsZTQxMTIxIj5TaGVldC40MTA2PC90aXRsZT4mI3hhOwkJCQk8cGF0aCBpZD0icGF0aDQxMTIzIiBpbmtzY2FwZTpjb25uZWN0b3ItY3VydmF0dXJlPSIwIiBzdHlsZT0iZmlsbDojRkZGRkZGOyIgZD0iTTEuNjgsNTQuNGMwLjI0LDAsMC40OCwwLjA0LDAuNywwLjEyICAgICAgYzAuMjEsMC4wOCwwLjQxLDAuMiwwLjU3LDAuMzZjMC4xNiwwLjE3LDAuMjksMC4zNywwLjM3LDAuNTljMC4wOSwwLjI3LDAuMTQsMC41NiwwLjEzLDAuODVjMCwwLjI3LTAuMDMsMC41My0wLjExLDAuNzkgICAgICBjLTAuMDcsMC4yMy0wLjE4LDAuNDQtMC4zMywwLjYyYy0wLjE1LDAuMTgtMC4zNCwwLjMyLTAuNTUsMC40MWMtMC4yNSwwLjExLTAuNTEsMC4xNi0wLjc4LDAuMTVIMFY1NC40SDEuNjh6IE0xLjYyLDU3LjU4ICAgICAgYzAuMTIsMCwwLjI0LTAuMDIsMC4zNi0wLjA2YzAuMTItMC4wNCwwLjIyLTAuMTEsMC4zMS0wLjJjMC4xLTAuMSwwLjE3LTAuMjMsMC4yMi0wLjM2YzAuMDYtMC4xOCwwLjA5LTAuMzYsMC4wOC0wLjU1ICAgICAgYzAtMC4xOC0wLjAyLTAuMzYtMC4wNi0wLjUzYy0wLjAzLTAuMTUtMC4xLTAuMjktMC4xOS0wLjQxYy0wLjA5LTAuMTItMC4yMS0wLjItMC4zNS0wLjI2Yy0wLjE3LTAuMDYtMC4zNS0wLjA5LTAuNTItMC4wOUgwLjg2ICAgICAgdjIuNDZMMS42Miw1Ny41OHoiLz4mI3hhOwkJCTwvZz4mI3hhOwkJCTxnIGlkPSJzaGFwZTQxMDctMzciIHRyYW5zZm9ybT0idHJhbnNsYXRlKDcuNTYyNDIsLTAuMDc2Njg2MSkiPiYjeGE7CQkJCTx0aXRsZSBpZD0idGl0bGU0MTEyNiI+U2hlZXQuNDEwNzwvdGl0bGU+JiN4YTsJCQkJPHJlY3QgaWQ9InJlY3Q0MTEyOCIgeD0iMCIgeT0iNTQuNCIgc3R5bGU9ImZpbGw6I0ZGRkZGRjsiIHdpZHRoPSIwLjg2IiBoZWlnaHQ9IjMuODkiLz4mI3hhOwkJCTwvZz4mI3hhOwkJCTxnIGlkPSJzaGFwZTQxMDgtMzkiIHRyYW5zZm9ybT0idHJhbnNsYXRlKDkuMTcyODMsLTAuMDczNzM2NikiPiYjeGE7CQkJCTx0aXRsZSBpZD0idGl0bGU0MTEzMSI+U2hlZXQuNDEwODwvdGl0bGU+JiN4YTsJCQkJPHBhdGggaWQ9InBhdGg0MTEzMyIgaW5rc2NhcGU6Y29ubmVjdG9yLWN1cnZhdHVyZT0iMCIgc3R5bGU9ImZpbGw6I0ZGRkZGRjsiIGQ9Ik0yLjc0LDU0LjR2MC43MkgwLjg2djAuOWgxLjYzdjAuNjZIMC44NnYxLjYxICAgICAgSDBWNTQuNEgyLjc0eiIvPiYjeGE7CQkJPC9nPiYjeGE7CQkJPGcgaWQ9InNoYXBlNDEwOS00MSIgdHJhbnNmb3JtPSJ0cmFuc2xhdGUoMTEuNzEyMywtMC4wNzM3MzY2KSI+JiN4YTsJCQkJPHRpdGxlIGlkPSJ0aXRsZTQxMTM2Ij5TaGVldC40MTA5PC90aXRsZT4mI3hhOwkJCQk8cGF0aCBpZD0icGF0aDQxMTM4IiBpbmtzY2FwZTpjb25uZWN0b3ItY3VydmF0dXJlPSIwIiBzdHlsZT0iZmlsbDojRkZGRkZGOyIgZD0iTTIuMzQsNTQuNGwxLjQ1LDMuODlIMi45MWwtMC4zLTAuODZIMS4xNiAgICAgIGwtMC4zLDAuODZIMGwxLjQ3LTMuODlIMi4zNHogTTIuMzksNTYuNzlsLTAuNS0xLjQzbC0wLjUsMS40NEwyLjM5LDU2Ljc5eiIvPiYjeGE7CQkJPC9nPiYjeGE7CQkJPGcgaWQ9InNoYXBlNDExMC00MyIgdHJhbnNmb3JtPSJ0cmFuc2xhdGUoMTUuNjk0MSkiPiYjeGE7CQkJCTx0aXRsZSBpZD0idGl0bGU0MTE0MSI+U2hlZXQuNDExMDwvdGl0bGU+JiN4YTsJCQkJPHBhdGggaWQ9InBhdGg0MTE0MyIgaW5rc2NhcGU6Y29ubmVjdG9yLWN1cnZhdHVyZT0iMCIgc3R5bGU9ImZpbGw6I0ZGRkZGRjsiIGQ9Ik0yLjY1LDU1LjM2Yy0wLjA1LTAuMDgtMC4xMi0wLjE1LTAuMTktMC4yMiAgICAgIEMyLjM4LDU1LjA4LDIuMjksNTUuMDMsMi4yLDU1QzIuMSw1NC45NywyLDU0Ljk1LDEuOSw1NC45NWMtMC4xNy0wLjAxLTAuMzQsMC4wMy0wLjQ5LDAuMTFjLTAuMTMsMC4wNy0wLjI0LDAuMTctMC4zMywwLjI5ICAgICAgQzEsNTUuNDgsMC45NCw1NS42MywwLjksNTUuNzhjLTAuMDQsMC4xNi0wLjA1LDAuMzMtMC4wNSwwLjVjMCwwLjE2LDAuMDEsMC4zMiwwLjA1LDAuNDhjMC4wNCwwLjE1LDAuMSwwLjI5LDAuMTksMC40MSAgICAgIGMwLjA4LDAuMTIsMC4yLDAuMjIsMC4zMywwLjI5YzAuMTUsMC4wOCwwLjMyLDAuMTIsMC40OSwwLjExYzAuMjMsMC4wMSwwLjQ1LTAuMDcsMC42MS0wLjI0YzAuMTUtMC4xOCwwLjI1LTAuNCwwLjI3LTAuNjNoMC44MyAgICAgIGMtMC4wMiwwLjIzLTAuMDgsMC40NS0wLjE3LDAuNjZjLTAuMDksMC4xOS0wLjIxLDAuMzYtMC4zNiwwLjVjLTAuMTUsMC4xNC0wLjMzLDAuMjQtMC41MywwLjMxYy0wLjIxLDAuMDgtMC40NCwwLjExLTAuNjYsMC4xMSAgICAgIGMtMC4yNywwLjAxLTAuNTUtMC4wNS0wLjgtMC4xNWMtMC4yMy0wLjEtMC40My0wLjI1LTAuNTktMC40M2MtMC4xNy0wLjE5LTAuMy0wLjQtMC4zOC0wLjY0QzAuMDQsNTYuODIsMCw1Ni41NSwwLDU2LjI4ICAgICAgYzAtMC4yOCwwLjA0LTAuNTUsMC4xMy0wLjgxYzAuMDgtMC4yNCwwLjIxLTAuNDcsMC4zOC0wLjY2YzAuMTYtMC4xOCwwLjM2LTAuMzMsMC41OS0wLjQzYzAuNDUtMC4xOSwwLjk1LTAuMjEsMS40MS0wLjA3ICAgICAgYzAuMTgsMC4wNiwwLjM2LDAuMTUsMC41MSwwLjI3YzAuMTUsMC4xMiwwLjI4LDAuMjcsMC4zOCwwLjQ0YzAuMSwwLjE4LDAuMTYsMC4zOCwwLjE4LDAuNTlIMi43NSAgICAgIEMyLjczLDU1LjUyLDIuNyw1NS40NCwyLjY1LDU1LjM2TDIuNjUsNTUuMzZ6Ii8+JiN4YTsJCQk8L2c+JiN4YTsJCQk8ZyBpZD0ic2hhcGU0MTExLTQ1IiB0cmFuc2Zvcm09InRyYW5zbGF0ZSgxOS41ODE1LC0wLjA3NjY4NjEpIj4mI3hhOwkJCQk8dGl0bGUgaWQ9InRpdGxlNDExNDYiPlNoZWV0LjQxMTE8L3RpdGxlPiYjeGE7CQkJCTxwYXRoIGlkPSJwYXRoNDExNDgiIGlua3NjYXBlOmNvbm5lY3Rvci1jdXJ2YXR1cmU9IjAiIHN0eWxlPSJmaWxsOiNGRkZGRkY7IiBkPSJNMCw1NS4xMlY1NC40aDMuMTl2MC43MkgyLjAxdjMuMTdIMS4xNnYtMy4xNyAgICAgIEwwLDU1LjEyeiIvPiYjeGE7CQkJPC9nPiYjeGE7CQk8L2c+JiN4YTsJPC9nPiYjeGE7PC9nPiYjeGE7PC9zdmc+;movable=0;resizable=0;rotatable=0;deletable=0;editable=0;locked=1;connectable=0;" vertex="1" parent="1">
          <mxGeometry x="382.92" y="672" width="23.33" height="30" as="geometry" />
        </mxCell>
        <mxCell id="B0hOVwlSUektJ_psYXs9-198" value="" style="group;movable=0;resizable=0;rotatable=0;deletable=0;editable=0;locked=1;connectable=0;" vertex="1" connectable="0" parent="1">
          <mxGeometry x="304" y="690" width="33" height="20" as="geometry" />
        </mxCell>
        <mxCell id="B0hOVwlSUektJ_psYXs9-113" value="" style="html=1;whiteSpace=wrap;shape=isoCube2;backgroundOutline=1;isoAngle=20.100036621093977;strokeWidth=1;fillColor=#dae8fc;strokeColor=#6c8ebf;shadow=0;perimeterSpacing=0;movable=0;resizable=0;rotatable=0;deletable=0;editable=0;locked=1;connectable=0;" vertex="1" parent="B0hOVwlSUektJ_psYXs9-198">
          <mxGeometry x="21" width="5" height="20" as="geometry" />
        </mxCell>
        <mxCell id="B0hOVwlSUektJ_psYXs9-117" value="" style="html=1;whiteSpace=wrap;shape=isoCube2;backgroundOutline=1;isoAngle=20.100036621093977;strokeWidth=1;fillColor=#dae8fc;strokeColor=#6c8ebf;shadow=0;perimeterSpacing=0;movable=0;resizable=0;rotatable=0;deletable=0;editable=0;locked=1;connectable=0;" vertex="1" parent="B0hOVwlSUektJ_psYXs9-198">
          <mxGeometry width="5" height="20" as="geometry" />
        </mxCell>
        <mxCell id="B0hOVwlSUektJ_psYXs9-118" value="" style="html=1;whiteSpace=wrap;shape=isoCube2;backgroundOutline=1;isoAngle=20.100036621093977;strokeWidth=1;fillColor=#dae8fc;strokeColor=#6c8ebf;shadow=0;perimeterSpacing=0;movable=0;resizable=0;rotatable=0;deletable=0;editable=0;locked=1;connectable=0;" vertex="1" parent="B0hOVwlSUektJ_psYXs9-198">
          <mxGeometry x="7" width="5" height="20" as="geometry" />
        </mxCell>
        <mxCell id="B0hOVwlSUektJ_psYXs9-119" value="" style="html=1;whiteSpace=wrap;shape=isoCube2;backgroundOutline=1;isoAngle=20.100036621093977;strokeWidth=1;fillColor=#dae8fc;strokeColor=#6c8ebf;shadow=0;perimeterSpacing=0;movable=0;resizable=0;rotatable=0;deletable=0;editable=0;locked=1;connectable=0;" vertex="1" parent="B0hOVwlSUektJ_psYXs9-198">
          <mxGeometry x="14" width="5" height="20" as="geometry" />
        </mxCell>
        <mxCell id="B0hOVwlSUektJ_psYXs9-195" value="" style="html=1;whiteSpace=wrap;shape=isoCube2;backgroundOutline=1;isoAngle=20.100036621093977;strokeWidth=1;fillColor=#dae8fc;strokeColor=#6c8ebf;shadow=0;perimeterSpacing=0;movable=0;resizable=0;rotatable=0;deletable=0;editable=0;locked=1;connectable=0;" vertex="1" parent="B0hOVwlSUektJ_psYXs9-198">
          <mxGeometry x="28" width="5" height="20" as="geometry" />
        </mxCell>
        <mxCell id="B0hOVwlSUektJ_psYXs9-219" style="edgeStyle=orthogonalEdgeStyle;rounded=0;orthogonalLoop=1;jettySize=auto;html=1;exitX=0.5;exitY=1;exitDx=0;exitDy=0;entryX=0.315;entryY=-0.02;entryDx=0;entryDy=0;entryPerimeter=0;movable=0;resizable=0;rotatable=0;deletable=0;editable=0;locked=1;connectable=0;" edge="1" parent="1" source="B0hOVwlSUektJ_psYXs9-210" target="B0hOVwlSUektJ_psYXs9-103">
          <mxGeometry relative="1" as="geometry" />
        </mxCell>
        <mxCell id="B0hOVwlSUektJ_psYXs9-210" value="Video Frame&lt;br&gt;Seletcor" style="rounded=1;whiteSpace=wrap;html=1;fillColor=#c8c8c8;strokeColor=default;movable=0;resizable=0;rotatable=0;deletable=0;editable=0;locked=1;connectable=0;" vertex="1" parent="1">
          <mxGeometry x="484" y="678" width="84" height="40" as="geometry" />
        </mxCell>
        <mxCell id="B0hOVwlSUektJ_psYXs9-212" value="②" style="text;html=1;align=center;verticalAlign=middle;resizable=0;points=[];autosize=1;strokeColor=none;fillColor=none;movable=0;rotatable=0;deletable=0;editable=0;locked=1;connectable=0;" vertex="1" parent="1">
          <mxGeometry x="432.5" y="670" width="40" height="30" as="geometry" />
        </mxCell>
        <mxCell id="B0hOVwlSUektJ_psYXs9-215" value="②" style="text;html=1;align=center;verticalAlign=middle;resizable=0;points=[];autosize=1;strokeColor=none;fillColor=none;movable=0;rotatable=0;deletable=0;editable=0;locked=1;connectable=0;" vertex="1" parent="1">
          <mxGeometry x="432" y="751" width="40" height="30" as="geometry" />
        </mxCell>
        <mxCell id="B0hOVwlSUektJ_psYXs9-227" value="" style="group;movable=0;resizable=0;rotatable=0;deletable=0;editable=0;locked=1;connectable=0;" vertex="1" connectable="0" parent="1">
          <mxGeometry x="529.61" y="724" width="16.91173913043474" height="16" as="geometry" />
        </mxCell>
        <mxCell id="B0hOVwlSUektJ_psYXs9-216" value="" style="shape=image;verticalLabelPosition=bottom;labelBackgroundColor=default;verticalAlign=top;aspect=fixed;imageAspect=0;image=data:image/png,iVBORw0KGgoAAAANSUhEUgAAAGQAAABkCAYAAABw4pVUAAAAAXNSR0IArs4c6QAABTlJREFUeJztndtOG0cYgL/xAWwwEIUE0qQ3VaVc5KJXVas8QanU6z5DHqG9atSbtG+QJ6naO+6gSZUUqQe1SCWAjcvRZ3z29GLtBoFZdtc764n9fxISstfen/mY2fn/mbVBEARBEARBEARBEAR7UINf1p5tPNWKb8YZzCTz01eP1c1HQcx0III/EsMe/PbLR1HHMZFsbhf44XXe12uGCvnkg8VQAhLwLUSGLMsQIZYhQixj6DVkGMWmNhnHO08qrki5tObas42nLi9f//Hrx+vgR0jDc2xTya2UJpW4PtVwy/GU87++DjJkWYfnHiKMxvMnn1557Mnzn688Jj3EMqSHDGE2DjNxiCnoamh0oNOL5twi5AKzcVhOK2biV5+rteGsrukanmzKkNUnnYB7meEyAOaT8F5GEfdUsw2OCAHiMbg7p7iprRP940wiQoClGUXMYzunErgmgKMiQoB00ufxLgngqIgQnKHI5PF+ECGA9jlz8nu8H0QI0Oz6Pd6cERECVFreG7innZzEFCIEOG87P144a2h6MmSZ57iuXaVoHBnVltk4pHTSR2s4OtfMJSGTVMwm+rWsHtQ7UG5q2hHUs0TIJZzha3yrozJkWYYIsQwRYhkixDLGKqTRgd0StHxmypPM2ISUm7BbdGY1b0qOHGEMQjRwVINcBQbT+m4P9kres+VJJlIhPQ3ZMpzWrz7X1bBfhprhTNh2IhPS7jpDk1vpoadhvwLlKZYSiZBaC3aK0PRwndAaDspQbJqLp9KCzaymYqF440KKDdir4Gv7jAbyFTgzsJ/45FzzIqspNeBlVlOwbM+yMSFaw0EF8lWcFg7AYRWOz8OrK2XLmlf5t5ve2j34Jac5rNqzs9+IkE4PdstQCmHYOTlXHNVGew+t4c8T+P3o6vJrT8PWIeyX7JASerW30XFmUmGWqk/rTsOtZrhx79Rluhq28u49TWv449gpsz9cHi3WUQlVSLnpjP0mlg0KDadxH2TwbKXRhV8PtOeeulPQtDqKRyt43qcVNqEI0cBxbXh+ESblptNTHizePNZWWvDqQPuuAOQqmnZP8dE9jG8bHcbI1xC3ZM8E1Rbsl3Bd1x7MpIKWY45qmpc5TXsMNbaRhHhJ9kxw3naKkt0hY+PlmVRQSg14kQsuNSiBhfhJ9kzQ6DgzuUHDu82kglIdQwIZSEiQZM8Ezc7bSvHrPOwVww+o2Yk2gfQlJIxkL2zaXfinAAWDt21HmUB6FhJmshc2SsFqRpG85mabMIgqgfQs5E0R6havV8RV/w4ogxubBgnk36fmzuFZSBSbxEZl0FPcbuAPg52C5rdD96l3UCZuk4MCVjIwN2NWSq6i2fo3/InNxAkZcCcN84almEggJ1YICpbnIDNrVsoggQzrPvbJFdLndhqWUmbPUW055aMwmHghAEspxS3DUoaVcYIwFUIAFlOK2+lxR3EzUyMEnOvJ8pz/Ra4omSoh4My87sw7OYtpVMznDfBMoRCAdFJxNwopMf/NO5VCAFIJxeq8+Q+T8cvUCgGYScDKgl1SploIQDIGqwvK6Mdl+MGSMMZLIuYUJRMGy/deESF94jHzaypeECEXiGJN5SY8n/rzDy268hlnfH+r9BDLECGWIUIsQ4RYxtCL+tr3m1HHIfSRHmIZF3vIunLZQTH4/ouH9xd5eH/BcFjTy/9C+t/wsn7dgZ99t9EXssAXH78fQWjTiQxZliFCLEOEWIbvMtpfuQqQNRCKAAGEbOfLbOdD2hUmXEGGLEEQBEEQBEEQBEEQhGv5D1lJ9sFxFuj+AAAAAElFTkSuQmCC;movable=0;resizable=0;rotatable=0;deletable=0;editable=0;locked=1;connectable=0;" vertex="1" parent="B0hOVwlSUektJ_psYXs9-227">
          <mxGeometry x="1.9986956521738648" y="2.0869565217391255" width="14.91304347826087" height="13.91304347826087" as="geometry" />
        </mxCell>
        <mxCell id="B0hOVwlSUektJ_psYXs9-217" value="" style="shape=image;verticalLabelPosition=bottom;labelBackgroundColor=default;verticalAlign=top;aspect=fixed;imageAspect=0;image=data:image/png,iVBORw0KGgoAAAANSUhEUgAAAGQAAABkCAYAAABw4pVUAAAAAXNSR0IArs4c6QAABTlJREFUeJztndtOG0cYgL/xAWwwEIUE0qQ3VaVc5KJXVas8QanU6z5DHqG9atSbtG+QJ6naO+6gSZUUqQe1SCWAjcvRZ3z29GLtBoFZdtc764n9fxISstfen/mY2fn/mbVBEARBEARBEARBEAR7UINf1p5tPNWKb8YZzCTz01eP1c1HQcx0III/EsMe/PbLR1HHMZFsbhf44XXe12uGCvnkg8VQAhLwLUSGLMsQIZYhQixj6DVkGMWmNhnHO08qrki5tObas42nLi9f//Hrx+vgR0jDc2xTya2UJpW4PtVwy/GU87++DjJkWYfnHiKMxvMnn1557Mnzn688Jj3EMqSHDGE2DjNxiCnoamh0oNOL5twi5AKzcVhOK2biV5+rteGsrukanmzKkNUnnYB7meEyAOaT8F5GEfdUsw2OCAHiMbg7p7iprRP940wiQoClGUXMYzunErgmgKMiQoB00ufxLgngqIgQnKHI5PF+ECGA9jlz8nu8H0QI0Oz6Pd6cERECVFreG7innZzEFCIEOG87P144a2h6MmSZ57iuXaVoHBnVltk4pHTSR2s4OtfMJSGTVMwm+rWsHtQ7UG5q2hHUs0TIJZzha3yrozJkWYYIsQwRYhkixDLGKqTRgd0StHxmypPM2ISUm7BbdGY1b0qOHGEMQjRwVINcBQbT+m4P9kres+VJJlIhPQ3ZMpzWrz7X1bBfhprhTNh2IhPS7jpDk1vpoadhvwLlKZYSiZBaC3aK0PRwndAaDspQbJqLp9KCzaymYqF440KKDdir4Gv7jAbyFTgzsJ/45FzzIqspNeBlVlOwbM+yMSFaw0EF8lWcFg7AYRWOz8OrK2XLmlf5t5ve2j34Jac5rNqzs9+IkE4PdstQCmHYOTlXHNVGew+t4c8T+P3o6vJrT8PWIeyX7JASerW30XFmUmGWqk/rTsOtZrhx79Rluhq28u49TWv449gpsz9cHi3WUQlVSLnpjP0mlg0KDadxH2TwbKXRhV8PtOeeulPQtDqKRyt43qcVNqEI0cBxbXh+ESblptNTHizePNZWWvDqQPuuAOQqmnZP8dE9jG8bHcbI1xC3ZM8E1Rbsl3Bd1x7MpIKWY45qmpc5TXsMNbaRhHhJ9kxw3naKkt0hY+PlmVRQSg14kQsuNSiBhfhJ9kzQ6DgzuUHDu82kglIdQwIZSEiQZM8Ezc7bSvHrPOwVww+o2Yk2gfQlJIxkL2zaXfinAAWDt21HmUB6FhJmshc2SsFqRpG85mabMIgqgfQs5E0R6havV8RV/w4ogxubBgnk36fmzuFZSBSbxEZl0FPcbuAPg52C5rdD96l3UCZuk4MCVjIwN2NWSq6i2fo3/InNxAkZcCcN84almEggJ1YICpbnIDNrVsoggQzrPvbJFdLndhqWUmbPUW055aMwmHghAEspxS3DUoaVcYIwFUIAFlOK2+lxR3EzUyMEnOvJ8pz/Ra4omSoh4My87sw7OYtpVMznDfBMoRCAdFJxNwopMf/NO5VCAFIJxeq8+Q+T8cvUCgGYScDKgl1SploIQDIGqwvK6Mdl+MGSMMZLIuYUJRMGy/deESF94jHzaypeECEXiGJN5SY8n/rzDy268hlnfH+r9BDLECGWIUIsQ4RYxtCL+tr3m1HHIfSRHmIZF3vIunLZQTH4/ouH9xd5eH/BcFjTy/9C+t/wsn7dgZ99t9EXssAXH78fQWjTiQxZliFCLEOEWIbvMtpfuQqQNRCKAAGEbOfLbOdD2hUmXEGGLEEQBEEQBEEQBEEQhGv5D1lJ9sFxFuj+AAAAAElFTkSuQmCC;movable=0;resizable=0;rotatable=0;deletable=0;editable=0;locked=1;connectable=0;" vertex="1" parent="B0hOVwlSUektJ_psYXs9-227">
          <mxGeometry width="14.91304347826087" height="13.91304347826087" as="geometry" />
        </mxCell>
        <mxCell id="B0hOVwlSUektJ_psYXs9-232" value="" style="group;movable=0;resizable=0;rotatable=0;deletable=0;editable=0;locked=1;connectable=0;" vertex="1" connectable="0" parent="1">
          <mxGeometry x="653" y="760" width="46.998695652173865" height="45.996956521739094" as="geometry" />
        </mxCell>
        <mxCell id="B0hOVwlSUektJ_psYXs9-229" value="" style="shape=image;verticalLabelPosition=bottom;labelBackgroundColor=default;verticalAlign=top;aspect=fixed;imageAspect=0;image=data:image/png,iVBORw0KGgoAAAANSUhEUgAAAGQAAABkCAYAAABw4pVUAAAAAXNSR0IArs4c6QAABTlJREFUeJztndtOG0cYgL/xAWwwEIUE0qQ3VaVc5KJXVas8QanU6z5DHqG9atSbtG+QJ6naO+6gSZUUqQe1SCWAjcvRZ3z29GLtBoFZdtc764n9fxISstfen/mY2fn/mbVBEARBEARBEARBEAR7UINf1p5tPNWKb8YZzCTz01eP1c1HQcx0III/EsMe/PbLR1HHMZFsbhf44XXe12uGCvnkg8VQAhLwLUSGLMsQIZYhQixj6DVkGMWmNhnHO08qrki5tObas42nLi9f//Hrx+vgR0jDc2xTya2UJpW4PtVwy/GU87++DjJkWYfnHiKMxvMnn1557Mnzn688Jj3EMqSHDGE2DjNxiCnoamh0oNOL5twi5AKzcVhOK2biV5+rteGsrukanmzKkNUnnYB7meEyAOaT8F5GEfdUsw2OCAHiMbg7p7iprRP940wiQoClGUXMYzunErgmgKMiQoB00ufxLgngqIgQnKHI5PF+ECGA9jlz8nu8H0QI0Oz6Pd6cERECVFreG7innZzEFCIEOG87P144a2h6MmSZ57iuXaVoHBnVltk4pHTSR2s4OtfMJSGTVMwm+rWsHtQ7UG5q2hHUs0TIJZzha3yrozJkWYYIsQwRYhkixDLGKqTRgd0StHxmypPM2ISUm7BbdGY1b0qOHGEMQjRwVINcBQbT+m4P9kres+VJJlIhPQ3ZMpzWrz7X1bBfhprhTNh2IhPS7jpDk1vpoadhvwLlKZYSiZBaC3aK0PRwndAaDspQbJqLp9KCzaymYqF440KKDdir4Gv7jAbyFTgzsJ/45FzzIqspNeBlVlOwbM+yMSFaw0EF8lWcFg7AYRWOz8OrK2XLmlf5t5ve2j34Jac5rNqzs9+IkE4PdstQCmHYOTlXHNVGew+t4c8T+P3o6vJrT8PWIeyX7JASerW30XFmUmGWqk/rTsOtZrhx79Rluhq28u49TWv449gpsz9cHi3WUQlVSLnpjP0mlg0KDadxH2TwbKXRhV8PtOeeulPQtDqKRyt43qcVNqEI0cBxbXh+ESblptNTHizePNZWWvDqQPuuAOQqmnZP8dE9jG8bHcbI1xC3ZM8E1Rbsl3Bd1x7MpIKWY45qmpc5TXsMNbaRhHhJ9kxw3naKkt0hY+PlmVRQSg14kQsuNSiBhfhJ9kzQ6DgzuUHDu82kglIdQwIZSEiQZM8Ezc7bSvHrPOwVww+o2Yk2gfQlJIxkL2zaXfinAAWDt21HmUB6FhJmshc2SsFqRpG85mabMIgqgfQs5E0R6havV8RV/w4ogxubBgnk36fmzuFZSBSbxEZl0FPcbuAPg52C5rdD96l3UCZuk4MCVjIwN2NWSq6i2fo3/InNxAkZcCcN84almEggJ1YICpbnIDNrVsoggQzrPvbJFdLndhqWUmbPUW055aMwmHghAEspxS3DUoaVcYIwFUIAFlOK2+lxR3EzUyMEnOvJ8pz/Ra4omSoh4My87sw7OYtpVMznDfBMoRCAdFJxNwopMf/NO5VCAFIJxeq8+Q+T8cvUCgGYScDKgl1SploIQDIGqwvK6Mdl+MGSMMZLIuYUJRMGy/deESF94jHzaypeECEXiGJN5SY8n/rzDy268hlnfH+r9BDLECGWIUIsQ4RYxtCL+tr3m1HHIfSRHmIZF3vIunLZQTH4/ouH9xd5eH/BcFjTy/9C+t/wsn7dgZ99t9EXssAXH78fQWjTiQxZliFCLEOEWIbvMtpfuQqQNRCKAAGEbOfLbOdD2hUmXEGGLEEQBEEQBEEQBEEQhGv5D1lJ9sFxFuj+AAAAAElFTkSuQmCC;movable=0;resizable=0;rotatable=0;deletable=0;editable=0;locked=1;connectable=0;" vertex="1" parent="B0hOVwlSUektJ_psYXs9-232">
          <mxGeometry x="5.998695652173865" y="5.996956521739094" width="41" height="40" as="geometry" />
        </mxCell>
        <mxCell id="B0hOVwlSUektJ_psYXs9-230" value="" style="shape=image;verticalLabelPosition=bottom;labelBackgroundColor=default;verticalAlign=top;aspect=fixed;imageAspect=0;image=data:image/png,iVBORw0KGgoAAAANSUhEUgAAAGQAAABkCAYAAABw4pVUAAAAAXNSR0IArs4c6QAABTlJREFUeJztndtOG0cYgL/xAWwwEIUE0qQ3VaVc5KJXVas8QanU6z5DHqG9atSbtG+QJ6naO+6gSZUUqQe1SCWAjcvRZ3z29GLtBoFZdtc764n9fxISstfen/mY2fn/mbVBEARBEARBEARBEAR7UINf1p5tPNWKb8YZzCTz01eP1c1HQcx0III/EsMe/PbLR1HHMZFsbhf44XXe12uGCvnkg8VQAhLwLUSGLMsQIZYhQixj6DVkGMWmNhnHO08qrki5tObas42nLi9f//Hrx+vgR0jDc2xTya2UJpW4PtVwy/GU87++DjJkWYfnHiKMxvMnn1557Mnzn688Jj3EMqSHDGE2DjNxiCnoamh0oNOL5twi5AKzcVhOK2biV5+rteGsrukanmzKkNUnnYB7meEyAOaT8F5GEfdUsw2OCAHiMbg7p7iprRP940wiQoClGUXMYzunErgmgKMiQoB00ufxLgngqIgQnKHI5PF+ECGA9jlz8nu8H0QI0Oz6Pd6cERECVFreG7innZzEFCIEOG87P144a2h6MmSZ57iuXaVoHBnVltk4pHTSR2s4OtfMJSGTVMwm+rWsHtQ7UG5q2hHUs0TIJZzha3yrozJkWYYIsQwRYhkixDLGKqTRgd0StHxmypPM2ISUm7BbdGY1b0qOHGEMQjRwVINcBQbT+m4P9kres+VJJlIhPQ3ZMpzWrz7X1bBfhprhTNh2IhPS7jpDk1vpoadhvwLlKZYSiZBaC3aK0PRwndAaDspQbJqLp9KCzaymYqF440KKDdir4Gv7jAbyFTgzsJ/45FzzIqspNeBlVlOwbM+yMSFaw0EF8lWcFg7AYRWOz8OrK2XLmlf5t5ve2j34Jac5rNqzs9+IkE4PdstQCmHYOTlXHNVGew+t4c8T+P3o6vJrT8PWIeyX7JASerW30XFmUmGWqk/rTsOtZrhx79Rluhq28u49TWv449gpsz9cHi3WUQlVSLnpjP0mlg0KDadxH2TwbKXRhV8PtOeeulPQtDqKRyt43qcVNqEI0cBxbXh+ESblptNTHizePNZWWvDqQPuuAOQqmnZP8dE9jG8bHcbI1xC3ZM8E1Rbsl3Bd1x7MpIKWY45qmpc5TXsMNbaRhHhJ9kxw3naKkt0hY+PlmVRQSg14kQsuNSiBhfhJ9kzQ6DgzuUHDu82kglIdQwIZSEiQZM8Ezc7bSvHrPOwVww+o2Yk2gfQlJIxkL2zaXfinAAWDt21HmUB6FhJmshc2SsFqRpG85mabMIgqgfQs5E0R6havV8RV/w4ogxubBgnk36fmzuFZSBSbxEZl0FPcbuAPg52C5rdD96l3UCZuk4MCVjIwN2NWSq6i2fo3/InNxAkZcCcN84almEggJ1YICpbnIDNrVsoggQzrPvbJFdLndhqWUmbPUW055aMwmHghAEspxS3DUoaVcYIwFUIAFlOK2+lxR3EzUyMEnOvJ8pz/Ra4omSoh4My87sw7OYtpVMznDfBMoRCAdFJxNwopMf/NO5VCAFIJxeq8+Q+T8cvUCgGYScDKgl1SploIQDIGqwvK6Mdl+MGSMMZLIuYUJRMGy/deESF94jHzaypeECEXiGJN5SY8n/rzDy268hlnfH+r9BDLECGWIUIsQ4RYxtCL+tr3m1HHIfSRHmIZF3vIunLZQTH4/ouH9xd5eH/BcFjTy/9C+t/wsn7dgZ99t9EXssAXH78fQWjTiQxZliFCLEOEWIbvMtpfuQqQNRCKAAGEbOfLbOdD2hUmXEGGLEEQBEEQBEEQBEEQhGv5D1lJ9sFxFuj+AAAAAElFTkSuQmCC;movable=0;resizable=0;rotatable=0;deletable=0;editable=0;locked=1;connectable=0;" vertex="1" parent="B0hOVwlSUektJ_psYXs9-232">
          <mxGeometry width="41" height="40" as="geometry" />
        </mxCell>
        <mxCell id="B0hOVwlSUektJ_psYXs9-234" style="edgeStyle=orthogonalEdgeStyle;rounded=0;orthogonalLoop=1;jettySize=auto;html=1;exitX=0.556;exitY=-0.016;exitDx=0;exitDy=0;entryX=0.5;entryY=1;entryDx=0;entryDy=0;exitPerimeter=0;movable=0;resizable=0;rotatable=0;deletable=0;editable=0;locked=1;connectable=0;" edge="1" parent="1" source="B0hOVwlSUektJ_psYXs9-230" target="B0hOVwlSUektJ_psYXs9-235">
          <mxGeometry relative="1" as="geometry">
            <mxPoint x="681.5" y="725" as="targetPoint" />
          </mxGeometry>
        </mxCell>
        <mxCell id="B0hOVwlSUektJ_psYXs9-235" value="" style="shape=image;verticalLabelPosition=bottom;labelBackgroundColor=default;verticalAlign=top;aspect=fixed;imageAspect=0;image=data:image/png,iVBORw0KGgoAAAANSUhEUgAAAMgAAADICAYAAACtWK6eAAAAAXNSR0IArs4c6QAAEyFJREFUeF7tnU2MHMUVx9/rWYPXXmPnAAIEsq1EKAqRiHLIhxSJ9Q1lnRuLyGl3DwEpkYLtjSPPIWKt5JIA/kKgBCIxK+UDscaXeBE3llyMpSQKBzgEEAtGQgGhGBtjY3a6ohpPj3tqu2e633RXVW//R0IItl911f/Vr6pefTUTflAACqQqwNAGCkCBdAUACGoHFBigAE9Nz/zRH4X4NiI14U9+iBTxh0zqs/LyhDKXp22ulN9KeloDonIlg4ehQI0UACA1cjaKml+BPkCY+NX8SRRgodQ9imnH9ZT4vQJSzZmE2tlnwPw6KzqfM5Hsj/eX+QoR/ze7cVFP9pX5ChOfLSplMx1FtJlIfTf6/1pbxfxpWe9LTlfdSES3xvNAzK+vz6u6t/dMbIi1try0uMluhon2PjC7oJR69Hqmec/pk60Vm/mwnYep6ZlXiGjSZZmNPKyy4rkydTfft7y0uNumj/W7suZhanrmSyIa0zbxHsQ6ID+cnp1lUs9FQiniuZeWWi2bwtnOg20Yk7S0nQfbMCaV2cxDu8F7Xn6+tZry7HBALh/dt6vMivrrNy9+7/Xza3+NvaO1vLQ4V+Y7zbT33j87qVjp1rzz2zpGJxe/85WDZeVh/t+f3v/e5+FjPjUIO7cEB5/41vaTZZX54X9+uu+TL8JHHPeWuhGejfJwz46xH//qG9tei/57fP+xPlAy9SCfHdn3CseGAUUK+PEXIf3sX33Dz5XlpcU9Rb5jWFr3PTi7q9FW70bP3X3TGD1697ZhZuK/v3FhjQ6/cTFu77xBmLzlBvrpV7eKyzTMcOXjq/T025d6j/kwQvjp17bS5M039GedqbV1/7Fe4+wcEF1RdIXp/lZtj0e7cOhWpRMH3HxjQE99e/swf4v/jgahI53zBmH6js00fef4ej/6BIgJx6CxoLhGDjGMj0c1HAt3b+tAUsZPw6FbUTQIHo8QfAHk6Xcu0cpHV3v1kJX9Gaup6Zm+8ageVunhVVk/NAjkaoSgY8tOHD10hOADIJUZjxZIChoEWvVhhDB0+OwaEDNAZebDp19oLRRYF4cmZc5YpY5Hh6aU7QEfG4Sye8vKNgguAUGASlTHBsHF8Nlc38ncILgCRMOx8MZF0v92PGOVfTyarYNIfQoNQgUbBFeAuJ7O1bXYnLEaOh4dARCPGoTe+s7QAHWE8mrTDdEguADEk/Fo356nzF2usNLUsUEwFnxdzViNtuBrG5Clc5dp6YMrTqdzxePRYuAgF2NwcxMkGoSMzrQJSB1nrNAgULUbBFuAbIjxaMZGJ3oMDYIbOAodIdgApI5w+FBmc32n7A2IG7JBsAEIAlTa8DuSExoE5xsQC2kQygbEgKPa49GMQyw0CBuoQSgTEASobsbgmLEq8IhCWYAkHAJaUcSLGRvhwh6LH9ste4+V2SDocw7K8mUXTJ1LBXon5CxP53bOdjgo80z8HH+hZS4DkAQ4Cqvw0oQKGY8OeLmPZU48IScVMMEuoUEoMHVZUoXCobNQNCAJwZqspAVaOTgyW2DuZUmV3SCYO5JluSzWqpQGoWhAtHBvXtAXP/jzK/NstS6l3jrj269uZb75hiD5yOyojikakFHzA3so4JUCAMQrdyAzvikAQHzzCPLjlQJFA6KD9I+uH4LyoqxlXrygCxi7lcSL8upM1K3Mt9wYlHP7TNGA+Dj152D9wzko+vBXWdcV6cKZOyRcF7i0K5qKBkQL5SMkdasw2g9ll1kfiIodmXbNSKdBKPweszIASWlh9B2niRcCl6isvvuod4+wgwrjtMylVJiYsxKOEeu/Oi2zXv+ZvmO8uN6zLEC0UkYL4+oeJH3ksndJWOEtzOAK02o3+HDaTeFlNAzdq1N7F1EUXmGMTOv4S98OGfUkLm5p6d7Crz+T0fFzoUPqMgFJaGFW2g2e28gVxiyziwrTPQeib4ksvsIkUL1uU6qLu82Mb8kUBkmZgGgtfagwZqtamHgpXcCGrjBZy+zg6thCTxJG5SwbkKSg3UmrWlYLU7cKM2BcaN5W027wbpujBZ01837lkeNOG4AkQeLiexCltDB1qzBDAqcNF3faAkTruiFbmLpVmCHl9THu1IumeqevaF3IJiCY2erULuuzeWYMNlKFyTD1tqHiTtuAJF3BafsafLPC2F4vcBGDYaJCOP1rGxDMbF1rgl1AYsZgtmfzfIg7cx+qcgFIFLTrw1UuF5hQYagzNl/34coMw6isj5hT3i5mtkw/55rZcgWIr9O/qDBZq3725yo9s+USkCRIKtfCZK8nvScrXWEE5a103OkaEMxs+TGzhYmKFPJ9AKTSLYygRU2bqFgLqGVz5dnFzJYncae+RyvbPjUfAPG5wkzecqNsgSkDODqArVyFyVCuQY9Ubp+aL4BoUXVl0QJ6MLOVvYWpW4UZsbyVizt9AsTXmS3b6wWYqCiAwgxJTE3PDD8rJALkiX2zHDuplyEvuR458talydc+uarvmO38fKgwv/nmtuN3TYydz1WQHA/P/eP8I5fW1I6uifXtKPq98QqzdYzPN78+sbiRy2zGYEllVkSrE/PHWpErp6Zn9K2IY/q/eWp6RnX/sLa8tLgph79HftS8odwFJPEKY2MPle33JTnJZh7MCqp3F7ieqBiWB28AMVs0GxXUtwqjb0p3fWR3WIUZtSU0j8u62IKTJw+pgDQaje+PKkZe+zAMbwvD8A/MfJu2VUSnA+Zn8qYzyvNhyLczh7+P0ojyEATBh6Okm2YbhuHeMAwfispMrJ5lCv5WxrvS0lQU/ogU/6T3d1bPNoKx0nRvh2sPme+zXeZQqYeYaO+wMrfb7TNJQyyb/sG7oEAlFIjHIJXIMDIJBWwqYAJy1ebLE97VIKLAcR7M169dG/mV9FO0ibiktOXJlv1tC6uTQUNl0N5lipf5hsgmDkh7eWmxM7WFHxSoswJT0zO6UdSNdd80LwCpc61A2XsKABBUBigwQIFUQEIKOlOt+EGBOisQUKin99cNseqsCcoOBRIVwDQvKgYUGKBADxBF9CUT/QdqQYG6K6CI7mKizlR0vAdZXV5a3F13cVB+KBDfzAlAUB+ggKEAAEGVgAKDp3l7h6zQg6CqQAH0IKgDUCC7AhhiZdcKT9ZQAQBSQ6ejyNkVACDZtcKTNVQAgNTQ6ShydgUASHat8GQNFQAgNXQ6ipxdAQCSXSs8WUMFAEgNnY4iZ1cAgGTXCk/WUAEAUkOno8jZFQAg2bXCkzVUAIDU0OkocnYFAEh2rfBkDRUAIAKn62v8tZnN7wsKsgmTAhQAIAIRu9fnP6eI515aavU+tiJICiaeKwBABA6KAOmarrQbPIfeRCBkBUwAiMBJBiCdFMr+8IwgmzApQAEAIhAxCZBuMquseO70ydaKIFmYeKgAABE4xQBkNfpIfSwp659SExQDJhkUACAZRDIfiQOih1YU0opi9ZwJCoJ4gbiemQAQgUNMQE6/0FrQyUxNz2hIJg1QEMQLNPbFBIAIPJEGiE5q7/2zk0m9CYJ4gdAemAAQgRMGARIlZ35qGEG8QGgPTACIwAlZANHJ6hX3Rls9SkSzxmsQxAt0d2ECQASqpwGijuwf5wNHL5tJpg27EMQLxLdsAkAEgqcBcvnx+Z1h0H4hUMGh8fkjr5hJI4gXiO3YBIAIHDAEEL0uQsz05PjaWJMPPn4p/goE8QLBHZoAEIH4WQDpQvIBh0FzfP7In8zXIIgXCO/ABIAIRM8KSJQ0M50KwqC5ef5I31e7EMQLxLdsAkAEgucFRL9CEVGg1KEt88d/iyBeILojEwAiEF4CSO81TGd1b4IgXiC8AxMAIhB9JECi9yl6ckuIIF4gv1UTACKQuxBAOlE8fRCEqjk+fxxBvMAPNkwAiEDlwgC5/u5TDYUgXuCK0k0AiEDiEgDRvYlSoWpOIIgXeKQ8EwAi0LYUQK7n42yoguY2rMQLPFO8CQARaFoyINdypOjJi+FY81asxAs8VJwJABFoaQWQa/n6QKnOsAtBvMBPRZgAEIGKFgGJcneqrYLmTViJF3hrNBMAItDPASCdQVe3N8FKvMBnUhMAIlDOESBRTs+GKmxumz+B7fQC3+U1ASB5FSMix4AgiBf4TGoCQATKeQEIgniB5/KbAJD8mvnRg/Tn+1Rbfdm8af4pbKcX+HOQCQARCOpRDxLLvY7hCSvxAn8CkIJF8xOQXiHPBkyHxvcfW3c/MM7E568I6EHya+bjEGtdKZj4xPjW7U1+eOHz+B9xJj6fwwFIPr06T3veg/RKxETnmKk5vv/Yn81i4kx8NscDkGw69T1VFUCiTDPxi0Gj3dz8yIm34gXBmfjhzgcgwzVa90TVALlWAKWY+dCW/cd+ZxYIF9ulVwIAUhtAev3JawErPexCEJ/B9wAkg0gp43f9qYPOp9eizx90b1bsXBzn++9aEH+pyQ8/gyB+gLMAiKAmV3OIlVjQcwGC+IE1AIDUG5Bu6fnFBoL4xJoAQABIpEComJoT6UH8ut3DdbidHoAAkI4CzHRsfMeOJs8tXIlL0p3h0t840Z+W6/3isZdAwsqYABCBqzZQDKJLfyYI1KHxfcf/bkqx94HZBaU6HwCK/1ZY8eG6fOoagNQXkLYi1Zw4cPyxdWCkfGexDkMqUwsAUk9ATjbGNh3a/PPH3okXv7uyHn2pN/6n1vLS4pxAqsqbABCBCys8xHq/22v8xSx2vEyxv62y4rm6DKeSqgIAqQkgiuj4/4ibdxrfUKx7ED7M/QBkmEIJf69YD3ImJG5uO3D0VQTh+Z0NQPJrVpXt7gjCBb5FkF6AaBXoQU6uETe3Hzj6NoLw0RyOHkSgn8eAIAgX+HOQCQARCOojIAjCBY7MYAJAMog0aErUg+3uCMIFPsxqAkCyKhV7zpMeBEG4wHd5TQBIXsX8uLThZIO4udkIwnVRpqZn9K7bvo2FRFTblXCBe/tMAIhAQYc9yPsBcXP8wFGshAv8JjEBIALVXACig/CtxE3GSrjAY3ITACLQziYgTHSGr/UaWAkX+GpUEwAiUNAGIMzUJqWaW7AdXeCh4kwAiEDLsgFhopM61sgThLcbfPjl51uVuFFFILkzEwAikL4sQJjpfVYIwgUuKc0EgAikLQMQJjo+jiBc4I1yTQCIQN8iAWGmM91eA0G4wBdlmwAQgcIFARIy8aEtB47iTLjAB7ZMAIhA6dEBUS82KDiEIFwgvmUTACIQfARAzqmQmhO/SP1eR+e+39iv9mfCBe4p1ASACOSUAKKIT1y4cKl5+0LiZdG1vZhNIL9VEwAikDsfIOq1sM3NbQfXf24AF7MJxLdsAkAEgmcEZNhdt3o4tSv++jpezCaQ36oJABHIPRwQ9eLammpu/2X/J8/0q9K2o2MlXOAICyYARCDyIEDajfYPJtI/mokgXKC3SxMAIlA/DZCkpHAxm0Bgj0wAiMAZWQFBEC4Q1zMTACJwyDBA8NVYgaiemgAQgWMGAYIgXCCoxyYAROCcJEBwO7pAyAqYABCBkwwYou+N1/ITZQL5KmUCQATuSuktopRq9YkygXyVMgEgAnelAYKVcIGYnpsAEIGDEgBpYSVcIGQFTACIwEkxQLAdXaBflUwAiMBbGpCAadfpF1oLAnOYVEgBAFIhZyGr9hVIA4SWlxbZfnbwRijglwJT0zMqyhHHaWk3eDcuIvPLWciNfQVigKxqQHpX5wMQ+87AG/1S4L4HZ3c12urdbq46gOjzCrP6f7DiPXX+gLxfrkJuXCjQ3XSqOw39W+kDBIteLlyCd/qkgLnnjodt4/Yp88gLFChbgfh5Hv0tSja7lOWlxT1lZwLpQwFfFYjPYOmYvDOti5ksX92FfNlUwAzQl5cWe4BcD9SZD2O12KZb8C5fFDCHV5qDTg9iDLNW2w3eg/UQX9yGfNhSoG+BsDuj21s571teRy9iyyd4jycKGJdtrOrhlc5aDxBzOzcWDT3xHLJRugJG7NG3Hti39wq9SOm+wAs8VCCt9+jrQRJiEcLCoYfeRJYKVcCIv8kcOa3bvWtefIahVqH+QGIeKWAOrYiotby0OBfPYuL29vhQi4gwq+WRU5GVYhTowqH3XEW37a8kLZInApJgDEiK8QtS8UCBbv3Wa3/RtU29WSsze6kHpJIgYcVz2O3rgYeRBbECZszRCcQH7GIfeIIw6b5ZHbiHDVrBQqLYRzB0pEDCxeJDL+AYesQ2oSfRxcNFaY6cjNfmVyDlcxSZwoahgETZiR+simURoOT3FywsKdBd/J6JxRrRmxMD8qRsZQZEG3dfqL/O2vedPd2j6NkuVry4NkarGH5ZqgF4zToFunX03i4UZj3NvbaXC5AoN92xnCZzXQa6z6xqYDoBEPOr8CMUKEMBpdTObrq6Hkb/JL5KH36S7FIXAZIDlDJ0QZpQIKsCnZGNufiX1bjTwOd5OO1ZHQRRQJNKKd21DSS5iPchDSgwQIGWIn61qJnWQgBJyqye/Rpbo10hpw7D4GUoMLICgaLVMuPe0gAZueRIAAp4oAAA8cAJyIK/CgAQf32DnHmgwP8BY5bB3sYtFdIAAAAASUVORK5CYII=;movable=0;resizable=0;rotatable=0;deletable=0;editable=0;locked=1;connectable=0;" vertex="1" parent="1">
          <mxGeometry x="618" y="610" width="115" height="114" as="geometry" />
        </mxCell>
        <mxCell id="B0hOVwlSUektJ_psYXs9-237" value="" style="shape=image;verticalLabelPosition=bottom;labelBackgroundColor=default;verticalAlign=top;aspect=fixed;imageAspect=0;image=data:image/png,iVBORw0KGgoAAAANSUhEUgAAAFAAAABQCAYAAACOEfKtAAAACXBIWXMAAAsTAAALEwEAmpwYAAAD70lEQVR4nO2a2U8TURTG+e8k7jFxN0ZjfEHR+OarCeKIoBHBNRFBE00URYFESYyCYFkKhUKqLYWyUyhby1ag7TF3Ytu5hTEdO+f2Tjlf0gfKR/nmlzt3bk++vDwSiUQikUiSaI9iA3rZdBkQQCWzBUIAFQII2dxiaAUqBBBoBSrWfdLTLawQQKAVqOyCW5jEiwBmKAKYoQigFQHOBMNw69MgXH/jMvR3axsReNcxBVdr+uFYuR323+mAs496oKzRC57pFeF5hAPc2IrC2/ZJOHy3M/GP09XQzCqce+zQfQruLWlX4YrKIxTgcnhLvbgzD7u3XXg6CoQ24GSFnfu7i8964VKVE/JvJ9/LV2zQ/GsOPY9QgKUNXjhQ2qG7ctJRUZ0n4Werpdu3lPid178Cx8uTcE9XdsNmJIqaRyjAEw/s3MWz/ctIYN/sqrqy4v76Hv82zzfXHPeZXwcCaHmyAvDo/S6oaBqG+eVNqO2cMhS45sd4wnvkXqe6b6UqEo2pD5W472adBy2PcID94yH1AuMyGriwOrlCbrx36/qKPyZvc7ZfYuXJ+jGm1kDgWAzgYFlyv3rVOq7rff1zgvtcduQxO4/lAPqXwpy3YYf9L65GxwznZXun2XksB9A9vcJ5v7v0jyjs+KL1uiZCpuexHEDnWJDz2ocXdb3saKP1ao86ZuWxHED78CLn7RsN6np7R3nYjpGg6XksvwLbPPO63lb3POdlt7/ZeSwH0Ovn98Avzlld7+c+/iEyubBueh7LAQytb3Hefw0L2FAg7mNTGu1Zz6w8lgOY+tWLja30VFI/mPAVVDkhXeU8wGLNNww2PWGH61Sx905VJicrVc1jaHksB7DlN/9wYD9v82jOgPkGDtH/k8dyACPRmDr7i/vZ6Er7hB1MGWex0RdmHssBjB9n9pW0c6us4LkTLr/gB6psFsiGr0a0KwAysa9xhzSDhdTXhae9MBJYA6PaNQCZJhbWobLJB+efONSpMpsBXns5AB+6piG8qT+FzimAuSYCmKEIYIYigFYAuPa3UXCl2txGAZtYG2kUYDQb0AEOqY2Cnqw3CjCaDegAA5I0CszOIQxgkSSNAjNzCAPok6RRYHYOYQBrJGkUmJ1DGMBCSRoFZucQAjAmSaNARA4UgH5JGgUicqAAdEvSKBCRAwWgU5JGgYgcKADtkjQKROQQsgLbstQoEJEDBaBXkkaBiBwoAEOSNApE5EABKFOjADsHGsBiSRoF2DnQALZI0ijAzoEGMCJJowA7BxpAmRoFmDlQAcrUKMDKgQ5QpkYBRg4hAHNZBDBDEcAMRQBFA6SXbUcGBFBBBkgikUgkEilPjP4ALJkvWc4DJNcAAAAASUVORK5CYII=;movable=0;resizable=0;rotatable=0;deletable=0;editable=0;locked=1;connectable=0;" vertex="1" parent="1">
          <mxGeometry x="295.5" y="743" width="40" height="40" as="geometry" />
        </mxCell>
        <mxCell id="B0hOVwlSUektJ_psYXs9-238" value="" style="shape=image;verticalLabelPosition=bottom;labelBackgroundColor=default;verticalAlign=top;aspect=fixed;imageAspect=0;image=data:image/png,iVBORw0KGgoAAAANSUhEUgAAAFAAAABQCAYAAACOEfKtAAAACXBIWXMAAAsTAAALEwEAmpwYAAAD70lEQVR4nO2a2U8TURTG+e8k7jFxN0ZjfEHR+OarCeKIoBHBNRFBE00URYFESYyCYFkKhUKqLYWyUyhby1ag7TF3Ytu5hTEdO+f2Tjlf0gfKR/nmlzt3bk++vDwSiUQikUiSaI9iA3rZdBkQQCWzBUIAFQII2dxiaAUqBBBoBSrWfdLTLawQQKAVqOyCW5jEiwBmKAKYoQigFQHOBMNw69MgXH/jMvR3axsReNcxBVdr+uFYuR323+mAs496oKzRC57pFeF5hAPc2IrC2/ZJOHy3M/GP09XQzCqce+zQfQruLWlX4YrKIxTgcnhLvbgzD7u3XXg6CoQ24GSFnfu7i8964VKVE/JvJ9/LV2zQ/GsOPY9QgKUNXjhQ2qG7ctJRUZ0n4Werpdu3lPid178Cx8uTcE9XdsNmJIqaRyjAEw/s3MWz/ctIYN/sqrqy4v76Hv82zzfXHPeZXwcCaHmyAvDo/S6oaBqG+eVNqO2cMhS45sd4wnvkXqe6b6UqEo2pD5W472adBy2PcID94yH1AuMyGriwOrlCbrx36/qKPyZvc7ZfYuXJ+jGm1kDgWAzgYFlyv3rVOq7rff1zgvtcduQxO4/lAPqXwpy3YYf9L65GxwznZXun2XksB9A9vcJ5v7v0jyjs+KL1uiZCpuexHEDnWJDz2ocXdb3saKP1ao86ZuWxHED78CLn7RsN6np7R3nYjpGg6XksvwLbPPO63lb3POdlt7/ZeSwH0Ovn98Avzlld7+c+/iEyubBueh7LAQytb3Hefw0L2FAg7mNTGu1Zz6w8lgOY+tWLja30VFI/mPAVVDkhXeU8wGLNNww2PWGH61Sx905VJicrVc1jaHksB7DlN/9wYD9v82jOgPkGDtH/k8dyACPRmDr7i/vZ6Er7hB1MGWex0RdmHssBjB9n9pW0c6us4LkTLr/gB6psFsiGr0a0KwAysa9xhzSDhdTXhae9MBJYA6PaNQCZJhbWobLJB+efONSpMpsBXns5AB+6piG8qT+FzimAuSYCmKEIYIYigFYAuPa3UXCl2txGAZtYG2kUYDQb0AEOqY2Cnqw3CjCaDegAA5I0CszOIQxgkSSNAjNzCAPok6RRYHYOYQBrJGkUmJ1DGMBCSRoFZucQAjAmSaNARA4UgH5JGgUicqAAdEvSKBCRAwWgU5JGgYgcKADtkjQKROQQsgLbstQoEJEDBaBXkkaBiBwoAEOSNApE5EABKFOjADsHGsBiSRoF2DnQALZI0ijAzoEGMCJJowA7BxpAmRoFmDlQAcrUKMDKgQ5QpkYBRg4hAHNZBDBDEcAMRQBFA6SXbUcGBFBBBkgikUgkEilPjP4ALJkvWc4DJNcAAAAASUVORK5CYII=;movable=0;resizable=0;rotatable=0;deletable=0;editable=0;locked=1;connectable=0;" vertex="1" parent="1">
          <mxGeometry x="459.5" y="760.5" width="14" height="13" as="geometry" />
        </mxCell>
        <mxCell id="B0hOVwlSUektJ_psYXs9-1" value="" style="shape=image;verticalLabelPosition=bottom;labelBackgroundColor=default;verticalAlign=top;aspect=fixed;imageAspect=0;image=data:image/jpeg,/9j/4AAQSkZJRgABAQEAlgCWAAD/2wBDAAMCAgMCAgMDAwMEAwMEBQgFBQQEBQoHBwYIDAoMDAsKCwsNDhIQDQ4RDgsLEBYQERMUFRUVDA8XGBYUGBIUFRT/2wBDAQMEBAUEBQkFBQkUDQsNFBQUFBQUFBQUFBQUFBQUFBQUFBQUFBQUFBQUFBQUFBQUFBQUFBQUFBQUFBQUFBQUFBT/wAARCAE4AisDASIAAhEBAxEB/8QAHwAAAQUBAQEBAQEAAAAAAAAAAAECAwQFBgcICQoL/8QAtRAAAgEDAwIEAwUFBAQAAAF9AQIDAAQRBRIhMUEGE1FhByJxFDKBkaEII0KxwRVS0fAkM2JyggkKFhcYGRolJicoKSo0NTY3ODk6Q0RFRkdISUpTVFVWV1hZWmNkZWZnaGlqc3R1dnd4eXqDhIWGh4iJipKTlJWWl5iZmqKjpKWmp6ipqrKztLW2t7i5usLDxMXGx8jJytLT1NXW19jZ2uHi4+Tl5ufo6erx8vP09fb3+Pn6/8QAHwEAAwEBAQEBAQEBAQAAAAAAAAECAwQFBgcICQoL/8QAtREAAgECBAQDBAcFBAQAAQJ3AAECAxEEBSExBhJBUQdhcRMiMoEIFEKRobHBCSMzUvAVYnLRChYkNOEl8RcYGRomJygpKjU2Nzg5OkNERUZHSElKU1RVVldYWVpjZGVmZ2hpanN0dXZ3eHl6goOEhYaHiImKkpOUlZaXmJmaoqOkpaanqKmqsrO0tba3uLm6wsPExcbHyMnK0tPU1dbX2Nna4uPk5ebn6Onq8vP09fb3+Pn6/9oADAMBAAIRAxEAPwD7bpGPFLTW9cV9afCDAxHvT1YGo6KkZNT1X1qJD2qVDxUmiHUUUVQmOWo/m39afuwKYXG4mmhSJEcsOaduqOP7pqRaBrYNtG2nbTTgh9KVx6irVmOolXFTLxUFj91Opo5qWNMsKzbsihVjJq3GpVaake2p0SudyvuWojl6U6nBcUpXisJWOiCsQ05aGHNC9aA2ZJSbaWnbu3apNNyvJVSRauyVSmPJraJhIhY4FVLnOzFWpD8tZ95MFU89K66aucs3ZanK6+rKGIJryzxTdbAwY16T4i1IQq27pXj3jC/W6kIjPevvsnpttXWh+cZ5WjGLSepyM7B5SR0plLSZr9BVkrI/Lnq7sueTmNcVWkj2tVizctkE8Ul6v3TWcfisbSScboq0UUVsc45elLTadUMBNtNp5plCGhyfeqSmR96fSZQq0tItLUMoKKKKQBRRRQAUUUUwFpQabTlpDRatztXNW9ysBkVRgyO1TMaxktTsg9Alf0pjSU1s56U2rSsjGUnckUk9adSL92lpgFTKowSTUO0npU6xk96zkbQQzd82AKkWMsuSakVQvbmlk/d4rK5rYptwxqKQgc1anj/iFVJlNbxd0c1RWImYn6U1qdtPpTWXHNWjAbS7TSE02qJPrcwim+UBUzMKacetfhx/RHMyEwqaQ247GpsUu2gFJlfydnPWlVehzVjGeO1N2YpNGkZDKXaafgU5cUja6I2j3DHShYB35qbFFUOyGhNvSnqPakopDHUu6mZ9qTkUrGfMWFxUq1UWSrKSZqbGidyZV9asRjtVdalWTpWErmhbWplbAqqsnrzTxKK57dy1Is+ZTvN3cVV8wUGQLzmlyovnLDMBzUfnCqz3A6UkcmetHIHtOxdV91P3CqwYdqRpqTiaRloSStVKRs1LJJ1z0qpJMB3rWMTGUiC6l2qTmuV1vU2hRsGtvUbhdpwea4HxFdMQwBr3MFQ5pK54GPruEXY5nxBr7TB1f6V5nqlyWuDg8Guo19iuTnvXGXBLOc1+o5fRjCOh+P5piJVJ2kMP3c03FO7Uq9QK9k+eJ4CYYy3eiaUSqp71EzHkZ4pox+NSk9zRuysK1NpSc0lWjIKWkpaYC9RSUvSm1CGiUDFLSL0FLUlAOtOpo606pYwooopAFFFFAwakWlopiCrMKgrVarNv938allw1ZZhh3MKtNb46CnW67cGrSsO4zXFKbuenTpqxmSW525NV2jrWuIjt6cVTWEbuRWkamhnOnZ2K6oW4AzU0dqW5bir8FqpGelWBAi+9RKt2NI0epSS2GKZIu3vV5tm3jg1n3bAdOKiMnJlTiooZ5o/Gms5Y8nioF+71p3PAro5epzcxNu+Uiq7EZJp+Krz547CqiTN6DJZieBwKh+ppTTTWyOS9xM0UUVZB9cUU1qAa/DT+hx1LuptLSAdmnCo6NxoKuPx6ULxSb6XzKC1Ow6lBpm6kLHigp1CTjuaQso71EzH1puTT5SOZkhkHao99N2n+9TFG41ryognXrkVYjkqsrbad5gHJOKyauaxnY0FkzUgb3rLFwq/xUDUNp55rPkbNfao1d/vS+bjvWZ/aSmj7cPWp9kx+0iaW/wB6PM96zhd7j1qeO4TjLc0uSw1NPYtKd1TKcYrPkvkj71G2rIpxmpcJS2K9pFbs1fM9KY04FZcmrJtyGrKvNeEefm4+tXDDzk7Gc8TCC3OguLoKpJqjNeoy9a5hvEyM21n/AFqvca4qrndXoQwU+qPOnj4O9maWoXPXBrk9WZcMzHjFJfeKIo1JLc1w2veJHutyo3FfR4LBVHJaWPlswzCnGL1uZ3iK486Zgh4zXMSJ8xq/PMGzu6mqLV95Rh7OKR+aYmp7WbkQnjikpWpK7UeeL/DSUUU0MKKKKBBS0lFADmptOFNNQNEo6UtIOgpakYUoakooKAk59qVaSigQ6ikWkqbFC7qN1HFJTEKKuW/QYqlWjZqpAzUT0RtSXvGhEMIDUsZLNikVBtAqa3iy2T0rzpM9WEXdEzwmSMAVXltCvJrRMoRMDiqUl0OcnNZRb6G84x6kKttGM4oabaM5zVaSYGomcY610clzl530HyXnpVSSbc2CaG+tMbacE9a6IxSOSUmx4H5U9cVVeUhsDpRG7M3Jq2jNSVy6Kq3HT8atZ2xnHU1VkU4OamBpU+EqGm1Iyle1MIxXQjjYlFFFMk+mF8TwNjDVPHr0D4+cV4JH4kmDfeP51ch8WTL1Y5r4OWRvofpsOIovc95j1OJv4hVmO4V+hrw228bSRkZc10Ol+OPMwGevNrZPVpq6PUoZ3RqOzPVd1G6uTs/FSSKAWq5/wkUWOWzXkSwlSLtY9qOLpSV0zotw/wAilyDXNN4hiz94Uf8ACQR/3qPqs+xX1ul3Om3L3NNaZelcy3iBMZzzULeIFbvTWEn2E8ZTXU6V7gZqFrr3ArmG14En5qi/toHjNbxwkznljodGdQb4f3qFuh/erlW1ZfWpI9VGRzVvCtakLGpnVfaPQ5prS+pzWJHqIPG7FEmoDHXNY/V2b/WE+pqTXSpn1qhNqgXI3VjXmrBc81g32uAZw1ehRwcpHn1scqfU6x9cCd/1qnN4mEfO7j615/f+ICufnrGuNckkyFY5+tezSynm1Z4FbOuXZnqn/CZqp5kpV8dIGA3145JfTMclyBSLqDhvv12f2NTsef8A6wVbnsNx4y3chs1Ubxdv43YNebw6lIy9eaj/ALQkWTJP60o5TTiOWc1Ja3PTf+EkYrnfkVl3niBpFPzVyMd/JtHzVDJdSYyTxVwwEIszqZpOSsbFxrUitndzVO88Ty+Xt31kT3BZapPH5mMnmvTp4WG7R49XGVNossTanLdHluKg3H+8agkjK9OaakbsM4xXoKMYrQ8uVScn7wk0gVuagaQt7CpZIzu5qI9a3ikc8riUUUVoZBRRRQAUUUUAFFFKKAFFDUtI3Ss+oCqw6GjzDTKKZRIGGKXcPWo6NtICTNLUSnBpzN6daLAPopu7aBmjeKAHUUg56U9YyxwDSGhBVu2mHAHWo/svHWpIbfyznGazk00bxUk7mvbvujFWI5BGpzWdb5ZatbTtxXnyjqenGTsJNdHmqPnO2SelWtjbsYqrcYU4FawS2Mpye7GtKB3qs8xZuDxUTSFmPPFNya6lFI4ZVG9CRpT0pnmHNNoqjJscWp8cu01FRQClZl9ZC2CDxT/vdapxzBABjNOW5+bnpWfKdCmrallo1YYqu0C9qk87Oe4FQNMS3HSiNxyaI2XacU2ppI92SKj2mtDnYuTRvKtRSYoHdknnHrU9vePEwIOKq0VMoprUuM3F3R1NhrTqACxrUXVZH/iNcVbTFWBzWtb3W7GDXm1MPG97Hs0cXK1rm5Jq0kZGWqVNcdV+9WHNLuAPpVOS7CHArBYeMuhu8VOOtzqf7dYc7/1po1pmOd2fxrkGv2zjpU9tdFuDVvBxSvYSx8pPc64akXGc/rSDUiueawI7raMZzTJL7rzzWP1bXY3+tve50P8Aa3bOKmj1b/arjvtpZjirCXDFevFVLComONlfQ7RNYIAy1E2u/LjdXH/bmxjNQTXjepNYLBRbubvMJJaM3r3XN2fnzWBdas0jcHNVpJGcHJquxx1r06OHhHoeTXxVSfUjupmY53VUEnzcHmiXPOKaq4r0Ix0PHlNydy4rCQY70nk7WBzmoY5DG2an84MOlJlqSaJ4y3apfKYjOKZC3Tmr0fauabszsgrobCp24702RsKeKsfKpzVKaYBvas46s1l7qIWwfaoJJVTrUjtkEiqcgypOOa64o4py7DhdjPSh7sbcDg1V3Uu0nHFa8qObnZKspZhmkkX0rtPh98KdX8fzA2qC3s1/1t3LkIn+J9hXvGg/s7+FtJjje+efUrhRkhmCITgdhzXyObcU5Zk0uSvO8uy1Z9flXC2ZZxHnpQtDu9F8j5TjtZZuEjZvotQ32NOjL3P7lV+9u4xX2zDofh3w/C0FvptrFH/d8sE9PU1wHxDfwzqMZ02Sxt91xiPfsAPtX5vivFD3rYShp/ef6L/M/VMt8LKVVL65Xl/26l+bPkmfxrpFuRvusL037TtH44rTtdStL5Q0FxHKCMjawPFdX42+D+laDo88rOrtHJu2Y4xTdL0vwteeDYJHtbc3u3BYLhsc88VhhfEzFX5sRQTXk2v8z38d4S5Y4pYTEzUvNJr9Dn6KtqdNW32xbo9vADNkVGsME5PkXCu39xuDX6NlvGuVZhaMpezk+kv8z8mzbw9znLbypx9rBdY7/duQUq0ro0bFWGCOtItfd8ylHmi9D8zlGUJOMlZodRRRUEje9JS0lUUFO7U2igAopaeFHpQAzmnKoIpxGeKFXFK4CrxU9uPmzTIxlsHmrUcajkcVlJm0I3ZLH71PGu4e1QL8tOaQquBxWDV2dkXZal1VCjAq15f7vPes63ZmGTV1bj5cZrmmmdMGiGVscCs+4zuNXpWHPNULhsMTW9Pc56mxQopGPNC11nnC0UZ5opCCjFFFMdgooopDHKx9acqgnJ4FR07d8uKBom84Funy0nmrUNH40rD5h4GaCCOtSUjDIpDI6KKKAHJ97NWoZdhNU6nj6UmrmkHZ6FqS4LLVdjk06o2YLUxjY1lJ9QKg9RTlbbyKhaQ9uKbuPrVGPNbYuiZsdajd+5qsGI70rMWpcqK9o7FhGHBFXYHDLgnmsuI/NVyCQI49KmS0uaU5E9wxQHFVNx65NaEiiZeOhqlJDtXGPxrODRrNPoCtxzSPjFLHGW4Ip8ke1RzT2ZNm1qZskbKx44qOr/3veoZIdxGBiulSOOUOxWp6/dqT7McUzy3TnHFNtCjFrct2wzg1or8seaz7djuU1ZmnCrXLNXdjup6K4PcHacVQmk2tjrUgbdUc8O7kcGtIxS3MqknLYRLgMcY60lwp7DimxwtuGelSyMF+X1rUx3WpRMddl8N/h3d+PtYMEbC3soR5lxdOPljX/E9hXM2tr9suY4I2zLIwVQRxk1d/aG/aIg/Zr0O18B6dEr6tNAtxqFwOP3jjoD7DAr4rizP5ZLg/3CvVnpFfr8j7vgzhr/WHH8tV2pQ1k/0+Z7fqnxw8MeE7UaHptzHbWti3lbVYZZu7H1JNaXhn42WereWRMrLJwGzX5M6h8StV8U6o00Cz3N3M+7yoQWZz9K9V8G+PvF+h28Yv9IurZeudwLD8M1/KmJwWMxE3iKkryerP7Mw9PLaVNYajC0Y6I/Ty4uINT0x3LgOQSDmvnH4nXd5b+INMETf8vSbT/wACFcD4Z/aQuPLitbiZ1dsfLKhUjj3qzf8Aj4eIPFGjMRvh+1Jk/jXDCjKL95WZ1U6aot2d0aPxe8YSJb3cbNwX2gfhz/OvHrDxBdfY0+ZlQk8djya0vjL4hMmt39mWUfvCy7f0rzmHXobOELNJ8qjHXivUpUX7NWMalRc+p6Hp+sGaZjI+T1xmrN9rMK/vI2CD2PevBPEnxStdHZgs6jjH3q4i8+NxmZisxSNeFB7+4rrp4SpLU4qmLpRe59d6T4uDTCC5fcDwH7iurXDKGByDXyl4D+JkWpKjz3CjsK+h/BfiKPVIDAJN7IoK854r9j4L4gqUaiyvFu6fwvs+3p2PwnxC4WpYig85wKtKPxpdV39V1OooopG6V+3n82jaKKKsoKWgc1IBt4pACjApaKKkApUXcwFJT4fvik9hrcsRwgDPepV6DIqRPu80zpmseY7FGw9WDdeKnWNevUVREg3Y71M021eOKiUS4yVtSWa6WJcCoEuC3INVJH39aI5Ah9qpQSM5VLyLrSN61Xmk4x17U5ZN3vUU6quMdapJEyk2iDFJTqbWpzBTqbRQIdRRRSKCiiikMKKKKACir+l6PcatMI4VJNdrb/CHUJIUYq2SM1yVsXRoO1SVjvoYHEYlc1KF0cHRRRXScY2Qd6ZUjfdNR0CCnq5HFMop2BE+41E5yxptFIdwooop2JCiiikMM4qSOQqeajpCaBp6mtDLuXGean2h1rFjmK9elWork44PFYSpvodcKq6lossbY6etMkbf9KhkYyc1IqttFLl6mnNfQib0puacww1TWNvHdXkMU0wtoncK8xUsEBPLYHXFacyjHmZko80lFIg704puqLxbqek+EdSlsp7ueSVOVdYBsdT0ZW3cgjmp/D0cviiNH0xTdI2fnQYVcDJ3E/dwOea8ahnGBxLap1Vdb30f42PpMXw3muBjGdag+WWzVpL743GqNtEmGHvUH2hWUFXDA9CDkGo3mLcCvZjaSUkfNSk6bcJKzRPkKcZxUi/NVFX+bPWrkTj1q5IzhJN6hj8KR492DSyMBz0pfMGOKnUvTqb3w7t418baVI8fmrHMJNnY7eefbivkf486brHx4+PmozCPDNMyOVIIVFJ5ycD86+xPhjdRQeMrIzFVRlcbmAODsOOvQ5xzTf2cfhHH4q+Jutard2gfTpLuR5GYcPGhzs6fxMVHuu4V+EceTqSzWhTS+zp95/SnhnSowyjE1nvzK/olsYnwF/YVurvQILuW8/4R2ynXP22OENe3CHn5N2RGp/vck9RgdeG/bN+CXw9/Z10nS5UsdX1O9vUeaXVL2/nZIlUhckKfmYlugwBX6bsyQoSSqKo+gFeKftBeIvCmr+G5tM1fT7XWgMskMsXmMreq4+YfhXytP2NBp1NT7meJxOIfLTduyR+bvhfR47XXvDunvqMOuaD4itI7vTruNiWjWRmVCQwDI29SCp/WvqDw38HEsfCsWrXZ8kRMWHHUjjOa8++Hfwnl8UfErTb220pdG0HTZ1vJGPy5KcoOSTjOOp6DAr2L4leLrX4haEng3wVq9vHcRHyZZbkMiyHuFOOc818Vn1enUxKWG001PuMpjiY0FCuru+7WyPmP4qR6NeahLOJiJv8AZOSa8H8dxPDpRntX8yPs2OlfQ/j39lnxvY6aZ5L3TZJORtWZh+ZryjVPAuqeG/Dstr4jNnAJgRGEnVyQe4xRgqiUUnK5rjqSk7wWjPCY/C80bQ6hqM8OlWVwokS7vTjMZfaHBIOATnHGTivX9O/ZyuNYjkt01ZbiT7PFdJuSOe3nglBMcqMuMqwB9CK9c8OSfD74keBNJ0fxJZ2j6jp1utu8THy2IXgFD/EpwD3wc9DXceE7Pw94VszZ6NbrbxNtUkuXYhRhRknoBwAOBX3XtKHsPdXvHwFT28Kru9D4Y+IHwh174X3QukjdLYn/AJZEsn/AT1/A9K9E/Zv8WXtxrqJcu7q2EALE9a+pPHXh3TfFvh660+7RXjmQrnupxwR7ivk/4OaFL4a+J50mU7JLa5MZHrg9fxHP41z4Oo5Yqk4/EpL8ycRKM8JWU/hcZXXTZn2EvShulAoav6sP4oe42iiirAkTpmnU1fuinVABRRRQAVat4+M1XwKuW7BY+etRLY2prXUsDpTJBt6c0m+mvJ+NYKLudTkrFJs+YTQZGbqamlAbnpVf+Kt0cctBaKKKDMcGK9KTJPU5pKKCuZhTadTaaEFFGKKoABpd1JRQAu6jdSUUhigmpre0lumCxIzH2qJfmwB1r1D4Y+D5NSnRzjrXDi8THCUnUl0PRwODljKypRNn4T+GbhLqJ5bdse619Fw6UiwoPLHT+7UHhfw/Fp9qg2jIA5xXRbQO1fiOaZm8ZXc1of0VkuURwOHUHqz8+/L96aeDUhOKjY5NfvB/NTSEqKpaRl3UEkdFKylaSqJsFFFFAgooooAKKKKkoKRqDQ1UHS42nKxU5FNooJLkThhmpFkIBANUFJUjHFWo5Fb61LibxmOaQd60bGGwXS7i8nkluJYXAGn221ZJFIJ3Bm4wD6An2rOZe56VPot1YWt8kl9A1xbqCfKU4DNj5d3+znqByRXBjac54eUacmn/AHbX+Vz08trU6WLpyrQjKN9VJtR+dtbI4fxZ4s1u5s9z+EEi8PO2xmlcvMwJ525bO4c8heK5Dwx8ZdV8NRvo9lKttpdxHJBIsg52sCCSfWuy8WeEpPG2vG/1nUpZII2/0e1s18mOMdsdcfhj61U1n4T+GNWkWRIb20k/jMd0WDcdfmBP6mvxXGcK5vj5+3mr32UpLm+fQ/pfBcdcP5XS+p05Jd3CD5L+V9X6nmWk/E6/0W8jt4LpruBGJkimGVA9Ae34V6HYfFbS7hUE6SQMev8AEBXZ+Cfg18OdU0V/D+p29zpuozP/AKPrqTGQo54CyIeNue46V4P8X/hh4l+CviafSdai3QA/ubyLmOVOzD8K82tic/4ZqKk5vl6J6xf9eRtSocMcZ05VlTTl1a92S9bfrc9s0/WrDVF3Wt3HLnsrc/lWgkhU9K+So/EU1n80EzRt/smum8P/AB+1PQZVj1JP7StOnJxIv0P+NfY5Xx9CranmFPlfeO33bnwWc+GMqSdXKqvN/dlo/k1p96R9JmYnIIBpm49jxXFeFPi14b8XKPst8sFx3guPlb/69djHNFMmUdW9wa/TMPjsJioqdCqpJ+Z+OYzKsfgZuGJoyi15O337Groq3V1qFvFZqzXZYCML1z2r6d+DOlj4caXd2NzY3P2uGFHlnaMrHJI5LMAx4O0gZx0yK8L+E1sIdei1J9vk2ksbOWHq1e0ePPixDrUctpodq1wqcSXN0dsC/QDlq/B+O84wtPNoUp70o9Orl/kj+kvDbKMT/ZMpuN4Vpfdy6fiU/iZ8TrwWkhS7EcfRY4s4Ptxya848O+C7/wAXXB1DxDqMllpn3vstuMSv9T2rnNQ8R7NQlub24UsDgTSLgKP9lR0FZc/xkgkuoNLspWaHOHdj6/5/WvxzF5hicW37FcsfxP6Dhh6ODpeyopJvr1O3+IWn3+raSukaPbx6VoSjLpA2Gcert1J714trk3/CAK8ChpIiu3zEleNvqGUg5r6Yu9esdN8CLduqxRMMFuvavj34wG51q5itNNNxqV/cSkwxpyX4J4z2xmvHwdOpVq2ZssVGlRlpZL8fU53VfjBqPiaz1SKbV9SSw0zCLbmcN5hYgD5yNwA9Dk+9eZa5rP8AbsKwhHcLx87M5/U10Fn8K9Zs9H1ESmNZ7sl5YRklWByOfw/WuJWaXTdQmhuVMVzGSrRMeV9P8+9fbSoyppHzUsbHEaJkWmqulyC1u4mntHbI3ffi91Pb6V1dtrF/4Z2TW161zYdfMVslB/tKT+orIu7KDVLdDbcFTySc1r6TpKXFuIS2xzx9aI15QMZU4y0krnc6L8SXv1j811kQ8eZGeK57RbW2vfj+t1CysrIJG2nq4jrkta8Oaj4UlNzZ/wCqY5Mak7T/AIVa8N+KdPF9DqEZS11aORC3y7WbBxye4xkV9BleLoUcXSrzV0pJv7zwM2y32+Cr0sM+WcotLtsfUuaSmwyedEkg6Mob8xT6/rGMlJKS6n8Lyi4ycXuhKUDNUrzWrDT5AlzeQwuf4GcbvyrqPCUXh/Vtkt3qoWMn/Vx8MfxP+FfOZpxFlmTxbxdZJrotX9yPq8n4TzjPGng6Dcf5npH73+hkhTwAM1NBZT3TBIomkY8AKMmvT21r4b+H4vMmtklIGf30hb8etct4k/aq8NeF7eSHQLCEysvyi3jABP1r8zxHihhX7uCw05vzsl+p+o4TwjxzaeMxEYryu/8AIxdY0C78N2KX2sxPplqzKitONrMzdAFJyfrWt/YOjeHYBeeJtXht7YjcsNnKsssmemMZA/U18wfE346az8RtYjl1XbHFaA+TBG+VDH+I+9ZmkeMp7dbe4c+ZNAwaIucgGvJxHGmb4iFopQT7K7Xo31+R9xgfDnh/DSi6jlUce7sm/NLoj6s1C88IXenvJo8esfaTwv2xAiD35XJrCSRl4zXK+EfEmsapAk1yLPVLWQf6y3mIdD/tBgCK6jPfG32zmv1Th3FVa+HtWU297ys0/Ro/D+McBQweKUsO6SW3LDmTVu6lqPZm65wKaHNDNuptfWn54OZi1NoooICiiigAooooEFNp1NxTGOpp60UUwCiiimAUUVLbR+ZMoxxSeiHFXdibT9OuL64RYY2Yk+lfV/wd8EjT9JinuVxMRmuI+DXg+11BRNInK9B619DafZLYW6xooAA6V+U8S5w6n+yw0sftfCeRqlbGVNbliNVjXAHFO4opdor82P1jbY/PlqjqUjNRkYr+mz+QpCUjNtpaY2c0EiZJpKKKaEwooopiCiiigQUUUUAITSE5pKKB3CikJpNxp2EB604Nj2ptFUK5L55bg03NRbhTqVguOoptGaVguSRsY5Aw6g1698VvCtv8Zfgbo+r6moW9sXNu8iLywUcE/hXj6nkV9Cf2pp9j+zvYQTyBZJpHwvT5uea/OuNqcHgITa1Uj9U8O6tSOaShF6OLv96Pzt8cfDGPT5pZrG5H2XJOyQcjHpivLNY02S3YgnI7EZr6S8VRLDczbDvRjgZrkz4S0zXVlilbbLjK7fX/ADmvw1009Uf01zvY8f8AB80ej3RuJADLngE17b4a8Y/bGijtyTKeOteeal8M7vT5Gkh2y227AwctXovwd8HtdeILSJJEL7hlZOOh5xmvMxdOcU5rc9XBVY35JbH0t8OLTU7Xw/dQ3Cqv2pUwqj5wNw6n15/CvT/FzwaDo8awxKsSx/e/vHH61X03wreaTfWM2FaPgMCR3HpTPiu4Tw3dRFOYxyQM8+n0r4vlq16/tK7v6nvzqUqUYww9kvLQ+UfiH4pn1K9mgX9zGp+7GOv19a4nRr5rXVIn5J35Zjzmr3iW8i+3TAEBmONtZEUbNNGqjLtjOOor6SNJcumx5sqsnK7Z6R8ZPi7dQ+EtL0+z8x44+XCnvXiFh4g8RzeKLLUtLEsepWUqzw3RO7aw5B5yD+PGK7Pxtb3R0pAI/MVVJzjkH1rzHSrzWJLx44jIIx8p8sY/CtcJCNOPumWKnKfuvY9m1Lx58RNQiaeXRtFhupl3GaOJlVjnrs3Yz/hXhGsSO2o3txqySQ37SF3bH3mJ5PpX0R44vp9K8HWr2sReZIUI9en+NeC6hcXXiC6ZbyHa2cN8vPtXqSloeTTpqL91Fjwy0S2GBJ5jFsk/jW9GxilyOCOax9Nsv7PjUrwF5rTmulmUOpBxXmyjzNs9RSskmdhDeJq2mC2mwx7bq838XeGV0++ilhHz7gcY6jNdJp18scgO/A9KPEEyTL5mOQvBz/Ks43g7ouVpKzILj4z6/hLW3vBaLGojULGCeOByaS+8Y+KNQtXDa7eYYdInCdf90Vyd5ZhpFcDB9a17NmkRAoLsvURrX0rznMJJR9tL72fMRyTLacm/YQ7/AAr/ACMy3W8t7gvLNIztyWYkk/j6101j41udLi3NdLFsHPPJ+gqX/hEdW1zH2e08hGH+sm4x2rX0X4UQ2lwJb+b7XKBkr2H/ANavPcHW1qHpRqexXLTZy134o1XxNfKIYZpyx/dlwcH6V6z8OvhmPsf23XE825c5SEHCge/rW74c0a2juk/cooQcYUYrtlQLgD7vav0fg3J8NjMROrVjdQ6d2z8q4+4gxeXYOFGhJqVRvXsl29THu/Beh3xBm0q0cr0JiGaWTwXoE0Bhk0ezeM9QYhWzRX7e8Hhnr7OP3I/m+OZ45aKvL/wJ/wCZgaD4FtfDdw8unzzxQMcm3YhlA9ATzj610FSq3yYUZp8en3Fw2I4XY+wqMPhaGDTVGPKnqa43MMZmkoyxMnOUVZPrb16/MrUV0uieAdV1qYJHbsPqK6yb4D62Y1aGMux6jFRVzDC0Zcs6iTFRyvGYiPPTptr0PLqK9Mh+A/iJnKyW5Qf3q2LX9mzWZwCZlXPtXPLOMBDeqjrhkOZVPhos8bor1/8A4Zu19rwRAr5ZOPMNbn/DLd4sBJvQXxnj1rGefZfC16qNocNZpUvai9DwSivTNY+BGvaazbI/OVf7tcveeAtWsmIktpFI/wBmu+lmGFrK8KiZ5tbKsZh3apTaOborQuNDurcHfEwx7VTaGReqkV3RnGWzPOlSnD4kRbaSpAjHoKmSxlfotVzJbkxhKWyKtFasOg3E2MI1alj4NnmYZVqxniKcFds6qeErVHZROZjhaQ4ArY0nRpppl2ozEnsK9A0P4bvcsm5MD6V6v4Z+GttZojNEC3uK+cx2eUcPFpas+ry7huviZXeiHfB7TZbGzXzIynH8Qr19fmwc9qx9L0yOzjVVAGK1tw6V+PY6v9arOr3P3fLsL9ToRo3vYfjmlpFPvS15h6p+fRGKawz9afuFIa/ps/kVohopSuKSgyGsvemVLTWXPTigQyilKkUlMApM0tNPWmSGaKSigApN1DGkqhXCkpajfrVCHF6YWJpKKYgpQxFJRQA9X9afUSjcaeFx3pAOro/HN5dab8OtLsp2K+eWmWN+u3sQPTr1rnVOGB963PizMb+HSpWfdD9lWMMemQOcCvzXjirKOCp00tHL8kfsHhtQhPMKtVvWMdPmzwzVYxcK7MD7k96z9J02SaQ7RgGugvrdLlmRGyvsOBV/QdLWNypXO3+WK/EnLQ/o2xBoNiyzeXKu9CcdMivX/BPw40u7vYnEZhdsAyLwfr+dc3pekgTI4UAN+leteCE8lY/RTiuepK6sy43i7o9P0r4N3NxZosWqzLAR8vzHj3q7rn7PP9taU1qddmDlcBpE3D8a7LwTqwuLMBhhUGB6V2EZDDdn73pXPDC0J6tHLUx2Ig9JH58+Of2OfEeiazLIZobyEncs0eRnn07UeGf2YZ/tQe7k+ZTkqCMV996nYrfW7K43EDK/WuFeGLTdQKtGXyclgPetnh47dCoY6pLXqfN+p/s82clnKHaRVbjbg5PuTXl9/wDDvTvBd28KwLJIz7y23H419y6la201o0gAK7cncPu18vfFeFLbXggAx5ZP50oYeFN6Gv1upV0kzzjxPDBqHlKI1dSoGFHoPSuR1L4Y2l1G8sSeVLjk5+tdrY7WaZX+VlHB9K2LSzT7PuYYDAgY5Fa1KaehUKso7HgF38M71YXZSDzjaBXLXnhXVNJZx9naRG7r0r6I1ZoIQBDkE9j9azVtBLHhtjL1rH2MEbuvNng+jeENb1SfKWxjj/vSHAruP+FW211pYju7gtOedytgA13q2peRcHavSmS27b9jjknhhWfLGLvYp1ZyW557p/wl02EhbuWScZ4+b9K6bSvD9jouFtLdQF4DMM1uw6eZG6Dd0Zc4zinSKgBAGMetac3ZGOrepCsYbcCNgxx7VFFY5kGemfvVMp2yAitC2QFlyu3PGanme4WEv5P7CisPKUFLm4WN2kXI2n37V0I5GadqVqt14XeKYKjoQ0bN03A8fSoLWRpbeNmXY2OV9DX7XwDVhKhWhb3k0fz94mUqirYerf3bNW8yWnqu5gPWmqu5gK774d+Bz4gv498ZePPNfpuIxEMNTdSo9EfjuEwtTGVVSprVi+C/A8mtNGUQt68V794V+F0FvCnmwJn3Fdd4R8H2Wg2KJDAqHHXFdOFCjAr8czTPquKm403ZH77k/DNHB01KsryMrTfC9hpoBigRG9QK1VhReigfhS7qTd718jOpOo7yZ9vCnTprlhGw8KvpTtqjtUO6l3e9QaXRK2FphYU3dRx60BcRo426qD+FUbrQbC8Yma3Rj9K0OPWm7quM5R+FmUoQmrSVzlNU+GWi6lGw+zKpPpXlni74GxQ73tEyOuK9+3U2SNJBhhkV62FzbFYWSam2jw8bkmCxkWpQSZ8Xah4FuNPuSjREAe1a+j+EmkxmP9K+l9Y8H2epZJjUN64rOt/A0Vm3C9Pavrv9ZPaU9dz4j/VN0qr5dUeUaf4L+UEx/pXUab4RWPGUH5V6BHo0cOBtqf7IsZ4ArxK2bVKnU+gw+Rwp2ujF0vQUt8HaBXQR2/lLgCmKNtStISuOleHVqyqu7PpaOHhRVooljmCjBNP+0L61RZvekyTWFjpNFZx1BpftH+1VDOOtN8xfWpsFz4X2kfSinUn3TX9Jn8n76MSm7QacaKZJGy7abUtNKelBDiMqNhtNSlSKQjNBJFTWqQrim07k2GUUpFJTEI1JTqTbVCEpGXdS0UxDPL96XYKdRQIaFApSoalooARV20tFFABXoFtZW/iXwCLcRB7y3LYYjoK8/rq/h9rBsNSMRICSDBLHjHX/APX7CvjOLcI8Vlc3HeGp+icCY76nnMIy2mnH79vxPNrzw6dPkKyctklh61oabp4DhuB6n3rvPFXhtF1QuozG/O7265rNXS1WQBeMDJNfzi5vof1dYm0mx+XaBg4wK9D8OWRjRMfd3c59q5HTdscmcdz1rutFuFFqMeoGKybGemeF7iS1Kg/cHOM16VpV4txboT1I/wAivJ9DugsY5yq811mi6v5c3lltwzuGD0FOEuV3PPr0+Y7qePzIzzjiub1TR3mlaRl3ADj/AD/npW5aXgnIRTuOM9auSR74znuK9BR9oro85ScGeVeJLoWNlLznjLnPP0r5i+JF4l74iDFs8f8A6hX0j8Uofs8M8cfBIGW/EE18h+LtS/4m9wpGG31ipHqU43VxI1PmhV/1svB4rY2tBAf4lAHXgDrXOWt6ryRyK5ZlXGe9aF5qh643K350Slc3UWjMvbUySMSuGXOR1FUI1VVCkZBOM9MV0qQrLC/GCByf8/hXOXjCBsL+vas5SVrFomUJH82PlIzTZNvyktyOn+FV0uQ6uv4j2pRJvYDoOlYlk0cgfO4YJ4z71XuMFjnuefrSvIAVP8J6j3qF5A0nBpDQ2GLdJgHnPFbGnwmSQKRxkcVVtIRyzdjkVt6XHi7UH7rVIM1PE0YTQY7Vl+eRhhh/Ws6NdsajrxUviaRrjUrO3BOYRlwD+VRiv3jgPDuGCqVmvil+R/N/iViVPG0cOn8Mb/eya1jMkyqOua+rfgn4WOl6PHcuMtIMivmrwnoc+raxbxIjYZhyBX2p4R0ltN0W2hJ5VBmu3izF8lGNGL3ODgjA+0ryxE1tsbkbbeOnFS7vSo/LNKqkZr8klufuA4c0uBS0Y4qREbOB2pPO/wBnimPw5pu6teVEcxL5o+lJ5nXnFR5NA9KOUadyTzqTzKbtFG0VNl1GL5ppd+feoyKTB7VdkQ27koapFYNwag5pytUuPYpSJWjGOBzUEkeOoqTcfWmMxbrRFsGtCpJEOeMGq7dvrV4iq0kJ5I6VqjMr4NPK7FyaVVGc1Q1K8MYIHTFPd2IlKy1Fu7xY++KyW1T5jyKy728dmPJxWe07Z611xpaHnzr6nzARSEZqQrTCMV/QKZ/McojOlLu9qUik21oToG6kpdtID60BZdAppUU/bSUySGmMvcVOy5qOgyehFTakZfSm0yRlFLikpiCm06kYd6pAJRRRTJCiiigAooooAKPMaMEp97oOaKF61jWpqtSlTls1Y6cLXlhq8K0N4tP7j02xZdY8K2c4w0wG1s8nGTj88flWV5LLM4K8gVS+GuuJ/aGoabJjzHxKvP8ACBgD/PrWzfMsUkjddxPH8q/knGUXhsRUov7La/E/t/CV1isPTxC2mk/vRQjjEPBPLHvW9pN58wXOUY8f41zs2WZWY9BVm3uPJYKOp4FcZ2HpOj64Y1dM5ycc+wrYg14QNJg/d43DvXnNjfHzFjBAz19q3YJfNULu5bNSS0up7D4J8TC6vFjJyXIGfbP+NelnG32xXzNpOpTaLqEUsRICkmve9H8VWeo6LHcCdA2wBgTznHNehhaqimpM8rFUWmnE4X4rWvm2zOnJD7uPTFfFfjzT3j16XB+RuQw/GvsjxVrSavDMo+95fA+vb9K+YfH9ikfmv12n5f8AP41zqerZ3UotRSZ55p8xjZAD1BDfrzWw1wJFXIHPp24rn9PkUgjPRsVoxzARs3boKlvU6LHS2p8uBXHJYDNcf4ikEL9eR1/OtuPVo47EszBdp5rgb/Vv7W1C42NuToMVAJEtjqTyXBQDoa2o2O49hnrWPp9qLdcqckjNasTdM9OlO47C3DcHHBP86ns7fcpZuvX6VFDHumweR2rUt4QWwOmDSAmWPEfTnNbmhwZnDN9xSCKy0T5tq+vWtPVbv+x9DeRf9YwAX3JIGKqEXOSit2ZVJKMXJlSSRrzVbuXhsPtQjn5e1d34D+Hs/ia8jJRjFnmuM0OzbzIIVBc5AJ9a+wfhH4TTT9HhmJ+Zhnp0r+hKtX+wMqp0IaSt+PU/mKnQXE2d1cRPWF/wWw/wX8KbbQljlKDzByOK9IhjEKBQMCpFQKoAor8rxOKqYufPUd2fsuEwVHBQUKMbIKKKTIrkO4U0lIzcUz60EsZL940ynM1GOK22Rna7ALRxS036UtZFjqKbQoquVCTuBoxSnpTcEjJNTzAOxRkL2pvI6Ggml6jFOD0pKNwHSlzVK6E9RMZqN1qSkxmqJaK02VQisK+j3A+ldFNHlTzWJfbemacb3MJbHJXwCseKzWY5PFbOpIMk5rGbG416UdUeRUSufNrL+VRmrHWo2j/Gv3dM/nKxFtpMGn4pKu5m4jKRhUlNqrk27DA1O60EZpnPerJ0YtNZc0/71JTJaIaa696mZc0wj1oM2iGkxT2XuKbTuSNxSU+m4piG7aNtLRTEGKMUUUCsG2iiigLBRRRSAqafdSaT4z0y5RSVkOyQ+1enajCDH5nYr/WvOWjRbq2mc48uQN06Dv8ApXrVxapcaakgH7vAYAjnnmv5q4voewzirZfFZ/ej+veC8S8TkGHk3rG8fuf+RygLMy5pzZWTg5OeKvLYMW3AZYjp6dqG011fa3BHGa+NPuLD7GbY248nNdDpM2enzOTj6VzRjePKgHA7it7QJsMqMOnTHek5IXK2dV9m3x5J6DrWIdeutKvJIllZIsE7c9zXaadZm7jGBgVzvi3wlLuEgXIJyajcaaW5F/wkkfmSZf2PPua8h+ImrQS/afmXuRj6f/Xp/iS/n0Ka4QlssOOa8b8UeJp7qaSMMeSRWsYsHbdDINQEbON2Dk1eOqD7OEDc55rkreGV/XLEVrWllIy98dKuQITVNWlkiaCJuW4NQaPp7WikufnNaVppOJDIwzU1wuxgV4wakY+FguPXrVnzBjA5rNkkP3uhFXtOjNwyntSCxp2ikYJ962IVCwl6pQwnaoq+FMcZwM4qkQyzYjdIQPTpWX4sv/tfiDR9LQkcmeQZ6qBx+uK3NFtfOk3k9uRXOWsZ1D4harMcFLWJYVPuTk19Lw7hVi8zo03te/3anyfE2MeBynEVlvay+eh6X4Dt4ptYh875Vz3FfZ/hCOKPSYVi+6FGK+NfCFrPLfReVC8jbhjaua+ufApurfS4kuk2MF6V+ncWe9y6n5BwT7nNeO/U7CmU6Nt4yKDG1fmR+vdBjMeKa3FSbc0mwUE2IeWpwj9eak2j1opiImjpm0rVik4pisV6bViRAy1XxxmtIsTQUq05Yy3PapFjFEpdiYpkRpGBIGKn8kUeWFqOYuxBg0mPwq1gUjKKfMBWop8i8kg1C2a0TuZMUuBVeS6K8D86bNJ1AqhcS4zzVEti3moMq/e/WudvdROThqsalOdhNc/JudjXVTh1POrVOiEupmk781RMZzVto2xUHNd0Ukjgeu585EYpKlZajK461+3n88sYyelMK+oqWg807iIMUlSMuPpTCKoloZSU+mniruZNDPuml4pabtI96tMn1CkZd1KP0pcelUJoh2kUlTYprLmgz5SFk9KZUxUrSYoJIdtJz6VIy46U2ncQzn0op9FMBlLTqKBCAUtFO2GlcLCwxpLIqvjZkZz6Zr2jRLV5vDsaOoZ4xjnvgcGvGI1IavoD4VKut+D3ldVZ7U+U655PHyk1+P8AH2CvGjjYrb3X+a/U/efDTMbKvgJvtJfk/wBDlLfT5LeQ7j8y84/AYqzPZiQbuMjP866y60KFlUPlZMlTjoecdf8APes9tL3PKMZUkgEdvp+lfiTkfv0bHNyWSI6gDtVzTbMeaAo9zVy60uSMFsZNSaXCxmHGBu9KynI1ij0fwrp4ZYweuMnjpW3rmixXEHyjPaqnhSRfnPTsK6aRd8ee/XFXSkeVXk+c+Wfi14VEfnuE5BwP518yaroLNqDZHGa+5/ifpa3kMiqvO3ccV8qazZLDrEiso6/1r04NNFxb3Oa03w2GjDEYNbdroKRKSRkYyMVqWseFwBjbzippNqK/p2rKVjS7Zzd5bLDnbwKxJlDMeOvFbupMWyBWHLyvvWRvEoyR7eK2NCj+Ws9YTKwyOgrZsI/JT/PpSLlLQ1YtuxRnBpylt7KOeefzqqk23GPTNX9PtvtFxvHO4A4B/wA+1aI5mbenRrZ2cl452xxgsT+FT/Dnwiuqa15YX57yYzSe2TnH5U++t/N/s/R4QGuLlhJIufuxqck/ngV7T8HfAclnrS3jp+7UcGv03hinTwWFrZhP4to/qfknF9SpjsVQyynrG/NL9F+p6v4P8D6foVnGsVtGrYGWwM12lvarGvTiooVCBR0FXR0rxMRXqVpuU3ds+hw2Hp4eChTVkgX5enFP3+9Rk1G0lctrnbzWJWb3xUXm89ajZj3OaZv5rRRRnzXJjIT0NNLsOhpFpGqgHeYfWl8w+tRngZpvmClyphe2hNvNL2qNTTt1Q00O9ybjbTfMxUe4n6U0tj2oSuMlabHamtMT04qHJbvxQufrT5RcxI0h70m5iKTbuqRUpaRAZtZuxNO8gt7VOq7RTuKXMPlKMtjuqhcacWrdNIVFHOxciOUm0Uy5B/lVb/hFQxz2rs/JX0FL5S1XtZIy9hF9Di28M7VPGaj/AOEZX+7Xb+WtJ5aegrRV5dyfq8ex8I00rUmKTFf0Jc/l5ohKelNIIqYimlfWruRYiqNlx9KlZdtJVIkgxSVKy46VGVq7k2G7abT6KZDiM2im9KftpKtMkbupetLtpuMVVydwI9aYU9Kfmj6UyWiIqRSFQamppUGgnlIfLFJ5fvU3l+9JtPpQTZkRQj3o8s+tS7fajZ+FArDQMUVIF/Gl2j0oK5RgU/SvcP2Zbe7uta1GERGTT2gxMxPyqeqn6k8fnXj2k6bJq2pW1nCN0k8ixqPcnAr7S+H/AIF0/wCGnh/7NHJvuJcPcTtxuYDoPQCvz/jLF0KeBeGqfFLVfJ7n6ZwLg8RLMPrVP4Ypp/NbfqcprGitBcbAfl3ccf5+tZsdmFjAZQGUenfpn9K6vxLqFtJIx81VOcHBrgNQ1R45GkDh9uOvr6V/OMl7zsf09Sk3FXJp7aJY0WRgHIOM/n/WsdfLFwvknco9KwNa8QO3mF5dsig5HbmuGk8fz+H7wCcYTfknP8NYygz0IWaPo/QZWt4QT1xmugj11G4Y4wMGvJPBnxS0rW8olwokAAKk47Vp+LPE0WlwySo4xt9aIwl0OOpBOXvEnjbxJFFHcICrHB/rXy94pnR9Wd0x1P8AOtvxT8SDdXEqoxYf/Wrz241Jru48wnknFejTulqLlS0R0cNwME5x0qOa6/dYzzWK16yt16HNHmPJIMnApsBbptzcc564rPuIwIyTxWheSRW6j5h69axdS1ONgEjIYnpioLLMJCsOOtbEcYaEnGOBWTpts02xn4J5/Wt+DbCAjcAt830qkiZMZ9jkWTGMFVP+f51reH1FpMPMO0L61V+1P8wVQdwK7j6GrNlaSzMpbqRjH9KsyN74F3Q8X+IdV1qUiRZbhre2B/hiQ44+rAmvsXwnZrY2aBQPWvkPwHGvw/mhWGLFmzs0fH3QTkj8ya+rPh/rSa5p6SqeMCv1XE0Y/wBm0J4b4OVff1/E/HMPWlLNsRDE6VOZ2/w9PwO1jcyLnGKtwvgYJpkEQ8vPSnV8nJrY+zirD2YYqEjGadmmOeKheRQlNAWk59aK3IbH7himbj9BSH6UGkHMObLDFIseDnNAp9MkKKKKACm06g0D1GUKT+FBpvHrSd+gKxKvtUqvVXzKXzDWfKzW6LXm+uRTGuMGq0k4Uc8CqkmpKnpTUbkymkaom96XzvesJtW54o/taq9mZ+0N/wC0D1oNwPWsH+1Qf4sUNqCt/HUuBXtDXa8C96Z9sHrWHPqAXoar/wBqN/eq1TbM3WSPkXikNO2+1JzX9BH8x+o0im0+kIqjNxI2X8qjZcdOlTUhWrTIsQU1lzUxUH2pjLtqibERUimkVNTSg7cVVxENJipCp9KTbVXI5SPbRin4NJTuLlGbabg1IVpKvmIsxm6l+lKRSbaq5OjDaaTaaXBFJzQKwbaMUc+tFMfKLj3o20lGaB8p1Xwvnjt/H2iSynEa3UeckAdfWvc/jp8RpPDt2bKKQqVUE7T6186eHobibVrVbSNpLoyr5aqMktnjiuq/aqvls/HMUU0gEsltG8ig99vP65r8V4/pp1KMr73P3bw1l7teDXZmNN8Xrhrks7+YhcbsnoPQCmzfE5Lxm2Fk4yN3+fpXkn2/qEHHvjrU1pa3125Mdu0aEcPJwDzX5phcur4x8uHpuXoj9jxWYYbAx58TUUF5ux3+seLDJGShZ2kzu9uen5VxniC4m1GNiMkhdp71ah0G7bma6VfZFzj86tw6DAv+sZ5j/tNX1mG4KzSu/fioLzf6I+NxXH2TYVe5Nzfkn+bsjz6zh1XSboz28/luDuADV1Vx8R/EGoWRt54jO23G6u20/SIUsZfs1tG0+087eFHqTXLWchsZpFiiW4umODJIcjPoAP515WcZK8nnGnKfM2e5kWfRz+lKtCHKl3OP8++uH2ta4dugJ71z2qeLLfQbhkvZY7dlOAGau61q9OjtLdzlXn2nG3jbnivm74maq2o3eDgnmvnVOV7H1ThFK56d/wALQ0qRh/xMLUeu5iP6VsWPiq21VkW31KwLehuVXt7kV8xW9sHUEirf2cqu3HFbxjc527H1FN4P8Vala/arWxa9tTyJbSRZRj1+Umse30y5s7krdRSwyL1SRSCK8P8ACuqanoWpwzadqF1Yup4a2lZCPyNfYfw/+JmoazpMcXiC3s/EMJQKTeQjzf8Av4MNn3Oa9jA5LiMxbjh2rrueFmefYbKYqWJTs+xyFpK25QOCB+Va0K7udwBA5U12t14Z8Jas2bVrvQZiOPM/fw5x7YYfrVR/hxqnLWElnrEYGQbWdfMx67Gww/KpxeR5hgv41Jpd7XX3ozwfEOV5gv8AZ68W+z0f3OxipGnyk/pWzp0kagBhyRgHNY11a3WlybLy2ntpAcETRle3vU1jdKWAJGFOeDXhyhKN00fQJqSujur2ZJ9Bxt+ZGXDAdK9u+Bt066aqOy47ba+fWn8yyWBMAud22vWvhDpd3YyRz+cTET93NfrGU0b8PJSe8m0fiedV3Hie8I7RimfSEMh2VJu3VSsbgTRqOpxVzGBXyE1Y+6g+ZXA9KiZieKVyeKaKmKKewppMmkLUVqZhRRRQA5aXcfWmdKje4WPrzQImZqi83bVG41IDocVm3GrbSfmqlFszlUijda5Xd97FNa8Ve/61yk2rk9DVf+1Hz1rVUZGTxEUdcdSWk/tBa5P+0ieeaVdRYHqar2LI+sLodWt0rnrRJeBFIBrljqTeuKP7QZlxup+wYvrCNO+1LGeTWRNqDtzmoJpi3U1Wdtw4rpjSSOWdZssHUH/vfrSf2g/96s+RetMxgVr7NGHtGan9ov3al/tFvWsbcd2KGZuxp+yQvatGvJqDEHLGofth9f1rM8w+tG+n7Owe0Z4TTWTg1JtpCK/Y7n4KVitNxVhkzUTxntVpk2GEU3FP9jSYqjNxGYppWpNtNqrmbRC0fpTcVPtpNvtV3JIaQqDUjJ6U3aaYrEWw0hU+lS4op3EQ7aTaanpjL6VQiHbRtp5FNp3J5RtJTiM02qM2hrdaKdRVcwtUNxVmx0+fUrmO3tonnmkbaqRrkk+wqOKJppFRQSScYFe/eHNN0f4M6PFc6i8T+KruHzUiYgtbIR0A9cHk/hXzOfZ7RyPCutU1k9l3f+R9Zw5w9ieIsWsPRWnV9kQ+G/Cdh8G9AuPEXiBov7ZEZMEJOfswx94/7Z/SvlTXtUv/AIxeObrWbu4kjsYTsUdWYfwrk+1a/wAaPiveeMdWmtlume2U5YZzn2qXwzpo0vRbaED52XzHP+03J/wr8hyDD1eK82ljsw1jBbdPJH71xK6PAuRRwWX6VajtzddN3/Xcls9BsrNgyQguOjPyR9PSr20elO20u2v3uhRpYaChRiory0P5jxGJr4uo6uIm5SfVu43aPSk207FG0niui5y2aOgt/Li8O3K79rMOi/eavK7rUI9FaU7maU89eB7AV6pp9mJtOkBPbkgcV4142tbdrtoGkCEk9T82P6V+K8YUk68Z3P6K8P6zWElTscb4u8SSXiYLcsc8mvG/FUZE25s5PrXf+Ipre1m2RsJM8DH868/8UXCyS46kV+aOK6H69zOxj2aBpFFb1vZqqnIyMflWPp4HmKTXTw7XhBXrj8q0iYSIrG3EN5G2QRnqRkV9IeAUSTTYmULnA5X6V86wL5cinque3FfRfw1VX0mIjpj+lfpXB8/9pcT8o48p/wCxqZ26rhRzSjg5BIPtSqpOOK6Hw34Nu9fl+UFFH94V+yVa1OlHmm9D+e6NGdaajTV2VNN1LVJYxaxu11b4x9nmHmJ69D71fk+GknieL/QtLk0m/JwskJzbt/vKeV+oP4V7J8P/AIXpYMHuEDN9K9h0vw7bWKDEagfSvynPsVl2Jco+yTfdaP8AA/aOG8LmuEUZe3aj/K9V+P6H5p61qniT4b/ElLPxDbeWtuvltCjZWRM5JB9a+5vg7pum694YtdT0y6S7tJlyGQ8qe6sOxHoa85/bi+HsN94TtfE8EA+02ThZHUclT6184/BP4v618M9ZhvtMlL2zsou7Fj8k6ehHY+jdq/NMPmmIwdN4ST9y5+zYjI8LmnLj6cbVLW9fL/I/SKDTzbY2npUuWH1rL8FeN9N8feG7XWtLk32045RvvxsOqMOxFaztntXoxn7RX3PAnTdF8jVmiNv1ozihiKa1WZXBqSl3VFJIEBoC5Jk0m4jvWbcahs71UOsHn5uKtQkzJ1Et2atxccdayby6xnmoJNU3Z/nWdc3W/JLVtGmzCpV00G3V02eDWfLMc8mnMSeTVaVhmuyMbI86cmP84mm+YaYKQsBxWiizIl8xvSn5NQq9L5gquQVyRnKim+dz1qOSQN0qBm54NUohcttMPrUfnH6VX3YprS+lWok8xO0m7rTGOe9ReZSbqqxPMyTgU1qbu96TdTsTcCaTJopKBniVFOpCK/WT8PGbaSn0hFO5NiBo+c0wrg1YpCu6qTJK1JipWj9KjI28VdyWhpFJT6TFURYYRTak20lNMixGy7qYV29al20lXcmxFRUmwUw/L14pisMZd1MZfWpaKYiDFNxUzL6UzbVE2GbRRtFO20badw5S1pN4unalbXLJ5ghkWTYf4sEHH6VH8dNSuBp3iPx4ly8194jv/wCzdPhYc2duiqzKP9piQOOy+9RballuHnt4IJSJYbeb7RFHIAypJx8wB78D8q+Q4hyCGeUopO047Ppbrofe8JcUT4ZxEpuPNCS1Ste/TU8X0XQnuvFMlgWaTyZikrN6KfmP5ivYFXbwBgdqYtjbR313dx28cU91IZZmjULuYnJP51NVcOZJ/YmHcJu85btF8ZcTLibFwqU4uNOCsk97vdsbRT6XafSvrbn5/ZEdLtNP2n0pyrjrSuOx0tjNHBoczOVzswPlzXzp4wt2utUuGLeWjMevGfrXvUO2a1ZPuZH3s814L8TdNmh1GVlJ2Hqy1+ScW0JXjPofu/AWIj7OVJbnlHijybGViZd7/wAvc155ql55kwOcCut8VWpjbk4B5Oa4i6XzGH14/OvzCSsfsd2XtOkLOK6a1Yr061zWlwlZgOoNbyXCwsCxxVRV0SzZsoPNnj9zX0d8P7NbfSYtoxwCfyrxj4e6H/bFzG7KTHuHIHevojRrEWFmkYGAB+VfqvCOBqQk8RJaPY/FeOsxpVILCxeps6SqtfRBxwTX0L8P9Jjkji2qB05xXz9o8fmajAvX5hX1X4A0wRabA/T5RX0HElb2dNa7nx3CmH9tWemx2GnaesMYq8XOAOBTFcKoxSbs1+TSk5O7P22EVFJI5v4oeGh4y+H+taUyh2kgYoMfxAZr8sZo7jRdYu9LIZZY3ZN2PukHAzX65q/Xv6g14ve/sreC9Q8SeINWuYZnOqhGEStt+zsCSzKe+T6+leRicLKpNSgfT5bmVPC03Cr8jnP2N9A8T+H/AApqA8QWMlpHceVJAzEbZflJ3qM9wV5r6I3bvrVTTrKLS7C2s4QRBbxLEg/2VAA/lU7NtBNejRp+xgoHhYrEfWKrqNbg3y81G0+OpqG4uOOtZV1feX0NdMYuR58pKO5qNdBapXWodfWsmTUix5NVJbzdxnNbxpHLKsuhZup2Yk1RaQjvTWuGaomb1NdcVY45SuOaQ+uKiaakZutRsQVzWyiY8zCSYY9KiVRJnkUj4zTFUr3q4xJbF+7xSFqezg9sVXZs1pYzbJPMFIWFQs1Jv3d6ZF0TbhTNwqMt6mmNIFHFA+YmLVC7UzzjTWbd0plbjvMx70ecajoHWmRYeGO7rxTt2O9MoqLiJPNNHm1HRRqNI8eIpKkxTa/Wdz8UsxlIRipCtNI9aCWhlN20/bSUyRlRvHu6VPTdtO4rFYxkU2rRWo2j3dBVqRNiGkqTyzTSpHaquTYZikp9JiqIcRm2kp+2kp3IsR7abtqTbRVXEQ0m0elSlaQpVXJsR7RSeX70/bSc07isMMdJtNSUUwIwpzTglOoouAmB6UtFFK4BRS9qdtyPekBZ09QzYY4z0CjJrzP4uSJbOwVNzEfxHBxXp2lpuuOSR2rxz4xXIm1cRbwozgK3f3PtXwPFjSwh+qcCKUsZ5Hg3iKVruRkaMKB0I5rkJ7XypsGvSNYt0klChU2Z+ZlNcHrS+XebAMf/AK6/Fm7n9CuNhsO2PHqKW9n37QOCT+tRKCkZYDJHNVrOb7dqkUB4BYV0Uo3konLWnyQbZ9N/A+xj/s2NniaKVhz3B/z+Ve+aXoqXUYXHJryT4T2Js9JgU/dI4Pcexr2rw4T5ic96/fcFF0MFHl00P5gzKpHE5jPm1TZ0fhP4fj7fDK43BWzX0Vodqtpaxoq4GK8+8IKDsOO1ek2TfKor8+znF1MRUSm9j9KyHBUsLT5qa3Ly0maTdTGbFfMn2I/dS1AZDn2p+4YpEyY5iFqvNJUp+Zc1nX0xRTzVRXMzKT0uVry6EYPPNYN1d7mNF5cMzkZqjIxbFejCHKrnmVKl2K0wpnmd81G5HGKbWy1OW9x5mNR+cehptNNbKKJJPONNaX8qZuFMZt30qrE3FaQmkDGkpM1ZLHNIKhLcU2aTtUO/irSbM7j2Y7ai3Fe9LuzSMatR7iQMxakoopWQxKKWioFdhSrQPWlqWyhaKXFLUjURuDS0tJn2oKSseQlStJRRX6qfiwdKaw3UUVcSWMpKKKszDbSbTRRSJEpuMUUVSEJSFaKKYiNo/bmosEUUVSJYUmM0UVZNribaNpoopk2ExTdtFFBmJSbaKKtMQbabtooqhBto20UUAG32pQlFFADgKKKKQFi1laNjsOGPevAfi14h/s3xM8TW0bykcO68L+J9qKK/O+MP91Xqfrnh9/vU/Q8h1zxZHcT4jBKDlnHAP0Fcde3hurwHPJoor8cP32RcVx5Qz97tXVfCjw1DrXiAC5ttyE/K+OAaKK+gyanGpjIKSPl8/qSpYCpKDs7H1v4f0dNLtkjUcKOM13Xhw/vU+ooor94rxUaNl2P5koTc8RzS3ue4eESPKTiu9tWPFFFfj2YfxWfumV/wkXww2jnmmHmiivHPd6CNS0UVJmLnAIrK1JS0ZxRRWtPczn8JzVwvznNVXoor0+iPHnuV2+XOKaGoorWBCAketQyHpRRWqJkNpKKKpEMTJpKKKoRDIDmmYBoooTMhClJ5Z9aKK3WxQ8Q+tI0YHFFFZvcVxhUr70KhbpRRSK6Evk+9L5Y9aKKzEDLtpAM0UUjUeFHpS7R6UUUAf//Z;movable=0;resizable=0;rotatable=0;deletable=0;editable=0;locked=1;connectable=0;" vertex="1" parent="1">
          <mxGeometry x="30" y="81" width="276" height="155.16" as="geometry" />
        </mxCell>
        <mxCell id="B0hOVwlSUektJ_psYXs9-3" value="&lt;font style=&quot;&quot;&gt;&lt;font style=&quot;font-size: 18px;&quot;&gt;Rescaling&lt;/font&gt;&lt;br&gt;&lt;/font&gt;" style="rounded=0;whiteSpace=wrap;html=1;fillColor=#FFE599;strokeColor=#000000;strokeWidth=2;movable=0;resizable=0;rotatable=0;deletable=0;editable=0;locked=1;connectable=0;" vertex="1" parent="1">
          <mxGeometry x="377" y="30" width="100" height="260" as="geometry" />
        </mxCell>
        <mxCell id="B0hOVwlSUektJ_psYXs9-12" style="edgeStyle=orthogonalEdgeStyle;rounded=0;orthogonalLoop=1;jettySize=auto;html=1;strokeWidth=2;entryX=0;entryY=0.5;entryDx=0;entryDy=0;exitX=1.005;exitY=0.269;exitDx=0;exitDy=0;exitPerimeter=0;movable=0;resizable=0;rotatable=0;deletable=0;editable=0;locked=1;connectable=0;" edge="1" parent="1" source="B0hOVwlSUektJ_psYXs9-3" target="B0hOVwlSUektJ_psYXs9-2">
          <mxGeometry relative="1" as="geometry">
            <mxPoint x="683" y="-120.00000000000023" as="targetPoint" />
            <mxPoint x="477" y="100" as="sourcePoint" />
          </mxGeometry>
        </mxCell>
        <mxCell id="B0hOVwlSUektJ_psYXs9-6" value="" style="shape=image;verticalLabelPosition=bottom;labelBackgroundColor=default;verticalAlign=top;aspect=fixed;imageAspect=0;image=data:image/jpeg,/9j/4AAQSkZJRgABAQEAlgCWAAD/2wBDAAMCAgMCAgMDAwMEAwMEBQgFBQQEBQoHBwYIDAoMDAsKCwsNDhIQDQ4RDgsLEBYQERMUFRUVDA8XGBYUGBIUFRT/2wBDAQMEBAUEBQkFBQkUDQsNFBQUFBQUFBQUFBQUFBQUFBQUFBQUFBQUFBQUFBQUFBQUFBQUFBQUFBQUFBQUFBQUFBT/wAARCAE4AisDASIAAhEBAxEB/8QAHwAAAQUBAQEBAQEAAAAAAAAAAAECAwQFBgcICQoL/8QAtRAAAgEDAwIEAwUFBAQAAAF9AQIDAAQRBRIhMUEGE1FhByJxFDKBkaEII0KxwRVS0fAkM2JyggkKFhcYGRolJicoKSo0NTY3ODk6Q0RFRkdISUpTVFVWV1hZWmNkZWZnaGlqc3R1dnd4eXqDhIWGh4iJipKTlJWWl5iZmqKjpKWmp6ipqrKztLW2t7i5usLDxMXGx8jJytLT1NXW19jZ2uHi4+Tl5ufo6erx8vP09fb3+Pn6/8QAHwEAAwEBAQEBAQEBAQAAAAAAAAECAwQFBgcICQoL/8QAtREAAgECBAQDBAcFBAQAAQJ3AAECAxEEBSExBhJBUQdhcRMiMoEIFEKRobHBCSMzUvAVYnLRChYkNOEl8RcYGRomJygpKjU2Nzg5OkNERUZHSElKU1RVVldYWVpjZGVmZ2hpanN0dXZ3eHl6goOEhYaHiImKkpOUlZaXmJmaoqOkpaanqKmqsrO0tba3uLm6wsPExcbHyMnK0tPU1dbX2Nna4uPk5ebn6Onq8vP09fb3+Pn6/9oADAMBAAIRAxEAPwD7bpGPFLTW9cV9afCDAxHvT1YGo6KkZNT1X1qJD2qVDxUmiHUUUVQmOWo/m39afuwKYXG4mmhSJEcsOaduqOP7pqRaBrYNtG2nbTTgh9KVx6irVmOolXFTLxUFj91Opo5qWNMsKzbsihVjJq3GpVaake2p0SudyvuWojl6U6nBcUpXisJWOiCsQ05aGHNC9aA2ZJSbaWnbu3apNNyvJVSRauyVSmPJraJhIhY4FVLnOzFWpD8tZ95MFU89K66aucs3ZanK6+rKGIJryzxTdbAwY16T4i1IQq27pXj3jC/W6kIjPevvsnpttXWh+cZ5WjGLSepyM7B5SR0plLSZr9BVkrI/Lnq7sueTmNcVWkj2tVizctkE8Ul6v3TWcfisbSScboq0UUVsc45elLTadUMBNtNp5plCGhyfeqSmR96fSZQq0tItLUMoKKKKQBRRRQAUUUUwFpQabTlpDRatztXNW9ysBkVRgyO1TMaxktTsg9Alf0pjSU1s56U2rSsjGUnckUk9adSL92lpgFTKowSTUO0npU6xk96zkbQQzd82AKkWMsuSakVQvbmlk/d4rK5rYptwxqKQgc1anj/iFVJlNbxd0c1RWImYn6U1qdtPpTWXHNWjAbS7TSE02qJPrcwim+UBUzMKacetfhx/RHMyEwqaQ247GpsUu2gFJlfydnPWlVehzVjGeO1N2YpNGkZDKXaafgU5cUja6I2j3DHShYB35qbFFUOyGhNvSnqPakopDHUu6mZ9qTkUrGfMWFxUq1UWSrKSZqbGidyZV9asRjtVdalWTpWErmhbWplbAqqsnrzTxKK57dy1Is+ZTvN3cVV8wUGQLzmlyovnLDMBzUfnCqz3A6UkcmetHIHtOxdV91P3CqwYdqRpqTiaRloSStVKRs1LJJ1z0qpJMB3rWMTGUiC6l2qTmuV1vU2hRsGtvUbhdpwea4HxFdMQwBr3MFQ5pK54GPruEXY5nxBr7TB1f6V5nqlyWuDg8Guo19iuTnvXGXBLOc1+o5fRjCOh+P5piJVJ2kMP3c03FO7Uq9QK9k+eJ4CYYy3eiaUSqp71EzHkZ4pox+NSk9zRuysK1NpSc0lWjIKWkpaYC9RSUvSm1CGiUDFLSL0FLUlAOtOpo606pYwooopAFFFFAwakWlopiCrMKgrVarNv938allw1ZZhh3MKtNb46CnW67cGrSsO4zXFKbuenTpqxmSW525NV2jrWuIjt6cVTWEbuRWkamhnOnZ2K6oW4AzU0dqW5bir8FqpGelWBAi+9RKt2NI0epSS2GKZIu3vV5tm3jg1n3bAdOKiMnJlTiooZ5o/Gms5Y8nioF+71p3PAro5epzcxNu+Uiq7EZJp+Krz547CqiTN6DJZieBwKh+ppTTTWyOS9xM0UUVZB9cUU1qAa/DT+hx1LuptLSAdmnCo6NxoKuPx6ULxSb6XzKC1Ow6lBpm6kLHigp1CTjuaQso71EzH1puTT5SOZkhkHao99N2n+9TFG41ryognXrkVYjkqsrbad5gHJOKyauaxnY0FkzUgb3rLFwq/xUDUNp55rPkbNfao1d/vS+bjvWZ/aSmj7cPWp9kx+0iaW/wB6PM96zhd7j1qeO4TjLc0uSw1NPYtKd1TKcYrPkvkj71G2rIpxmpcJS2K9pFbs1fM9KY04FZcmrJtyGrKvNeEefm4+tXDDzk7Gc8TCC3OguLoKpJqjNeoy9a5hvEyM21n/AFqvca4qrndXoQwU+qPOnj4O9maWoXPXBrk9WZcMzHjFJfeKIo1JLc1w2veJHutyo3FfR4LBVHJaWPlswzCnGL1uZ3iK486Zgh4zXMSJ8xq/PMGzu6mqLV95Rh7OKR+aYmp7WbkQnjikpWpK7UeeL/DSUUU0MKKKKBBS0lFADmptOFNNQNEo6UtIOgpakYUoakooKAk59qVaSigQ6ikWkqbFC7qN1HFJTEKKuW/QYqlWjZqpAzUT0RtSXvGhEMIDUsZLNikVBtAqa3iy2T0rzpM9WEXdEzwmSMAVXltCvJrRMoRMDiqUl0OcnNZRb6G84x6kKttGM4oabaM5zVaSYGomcY610clzl530HyXnpVSSbc2CaG+tMbacE9a6IxSOSUmx4H5U9cVVeUhsDpRG7M3Jq2jNSVy6Kq3HT8atZ2xnHU1VkU4OamBpU+EqGm1Iyle1MIxXQjjYlFFFMk+mF8TwNjDVPHr0D4+cV4JH4kmDfeP51ch8WTL1Y5r4OWRvofpsOIovc95j1OJv4hVmO4V+hrw228bSRkZc10Ol+OPMwGevNrZPVpq6PUoZ3RqOzPVd1G6uTs/FSSKAWq5/wkUWOWzXkSwlSLtY9qOLpSV0zotw/wAilyDXNN4hiz94Uf8ACQR/3qPqs+xX1ul3Om3L3NNaZelcy3iBMZzzULeIFbvTWEn2E8ZTXU6V7gZqFrr3ArmG14En5qi/toHjNbxwkznljodGdQb4f3qFuh/erlW1ZfWpI9VGRzVvCtakLGpnVfaPQ5prS+pzWJHqIPG7FEmoDHXNY/V2b/WE+pqTXSpn1qhNqgXI3VjXmrBc81g32uAZw1ehRwcpHn1scqfU6x9cCd/1qnN4mEfO7j615/f+ICufnrGuNckkyFY5+tezSynm1Z4FbOuXZnqn/CZqp5kpV8dIGA3145JfTMclyBSLqDhvv12f2NTsef8A6wVbnsNx4y3chs1Ubxdv43YNebw6lIy9eaj/ALQkWTJP60o5TTiOWc1Ja3PTf+EkYrnfkVl3niBpFPzVyMd/JtHzVDJdSYyTxVwwEIszqZpOSsbFxrUitndzVO88Ty+Xt31kT3BZapPH5mMnmvTp4WG7R49XGVNossTanLdHluKg3H+8agkjK9OaakbsM4xXoKMYrQ8uVScn7wk0gVuagaQt7CpZIzu5qI9a3ikc8riUUUVoZBRRRQAUUUUAFFFKKAFFDUtI3Ss+oCqw6GjzDTKKZRIGGKXcPWo6NtICTNLUSnBpzN6daLAPopu7aBmjeKAHUUg56U9YyxwDSGhBVu2mHAHWo/svHWpIbfyznGazk00bxUk7mvbvujFWI5BGpzWdb5ZatbTtxXnyjqenGTsJNdHmqPnO2SelWtjbsYqrcYU4FawS2Mpye7GtKB3qs8xZuDxUTSFmPPFNya6lFI4ZVG9CRpT0pnmHNNoqjJscWp8cu01FRQClZl9ZC2CDxT/vdapxzBABjNOW5+bnpWfKdCmrallo1YYqu0C9qk87Oe4FQNMS3HSiNxyaI2XacU2ppI92SKj2mtDnYuTRvKtRSYoHdknnHrU9vePEwIOKq0VMoprUuM3F3R1NhrTqACxrUXVZH/iNcVbTFWBzWtb3W7GDXm1MPG97Hs0cXK1rm5Jq0kZGWqVNcdV+9WHNLuAPpVOS7CHArBYeMuhu8VOOtzqf7dYc7/1po1pmOd2fxrkGv2zjpU9tdFuDVvBxSvYSx8pPc64akXGc/rSDUiueawI7raMZzTJL7rzzWP1bXY3+tve50P8Aa3bOKmj1b/arjvtpZjirCXDFevFVLComONlfQ7RNYIAy1E2u/LjdXH/bmxjNQTXjepNYLBRbubvMJJaM3r3XN2fnzWBdas0jcHNVpJGcHJquxx1r06OHhHoeTXxVSfUjupmY53VUEnzcHmiXPOKaq4r0Ix0PHlNydy4rCQY70nk7WBzmoY5DG2an84MOlJlqSaJ4y3apfKYjOKZC3Tmr0fauabszsgrobCp24702RsKeKsfKpzVKaYBvas46s1l7qIWwfaoJJVTrUjtkEiqcgypOOa64o4py7DhdjPSh7sbcDg1V3Uu0nHFa8qObnZKspZhmkkX0rtPh98KdX8fzA2qC3s1/1t3LkIn+J9hXvGg/s7+FtJjje+efUrhRkhmCITgdhzXyObcU5Zk0uSvO8uy1Z9flXC2ZZxHnpQtDu9F8j5TjtZZuEjZvotQ32NOjL3P7lV+9u4xX2zDofh3w/C0FvptrFH/d8sE9PU1wHxDfwzqMZ02Sxt91xiPfsAPtX5vivFD3rYShp/ef6L/M/VMt8LKVVL65Xl/26l+bPkmfxrpFuRvusL037TtH44rTtdStL5Q0FxHKCMjawPFdX42+D+laDo88rOrtHJu2Y4xTdL0vwteeDYJHtbc3u3BYLhsc88VhhfEzFX5sRQTXk2v8z38d4S5Y4pYTEzUvNJr9Dn6KtqdNW32xbo9vADNkVGsME5PkXCu39xuDX6NlvGuVZhaMpezk+kv8z8mzbw9znLbypx9rBdY7/duQUq0ro0bFWGCOtItfd8ylHmi9D8zlGUJOMlZodRRRUEje9JS0lUUFO7U2igAopaeFHpQAzmnKoIpxGeKFXFK4CrxU9uPmzTIxlsHmrUcajkcVlJm0I3ZLH71PGu4e1QL8tOaQquBxWDV2dkXZal1VCjAq15f7vPes63ZmGTV1bj5cZrmmmdMGiGVscCs+4zuNXpWHPNULhsMTW9Pc56mxQopGPNC11nnC0UZ5opCCjFFFMdgooopDHKx9acqgnJ4FR07d8uKBom84Funy0nmrUNH40rD5h4GaCCOtSUjDIpDI6KKKAHJ97NWoZdhNU6nj6UmrmkHZ6FqS4LLVdjk06o2YLUxjY1lJ9QKg9RTlbbyKhaQ9uKbuPrVGPNbYuiZsdajd+5qsGI70rMWpcqK9o7FhGHBFXYHDLgnmsuI/NVyCQI49KmS0uaU5E9wxQHFVNx65NaEiiZeOhqlJDtXGPxrODRrNPoCtxzSPjFLHGW4Ip8ke1RzT2ZNm1qZskbKx44qOr/3veoZIdxGBiulSOOUOxWp6/dqT7McUzy3TnHFNtCjFrct2wzg1or8seaz7djuU1ZmnCrXLNXdjup6K4PcHacVQmk2tjrUgbdUc8O7kcGtIxS3MqknLYRLgMcY60lwp7DimxwtuGelSyMF+X1rUx3WpRMddl8N/h3d+PtYMEbC3soR5lxdOPljX/E9hXM2tr9suY4I2zLIwVQRxk1d/aG/aIg/Zr0O18B6dEr6tNAtxqFwOP3jjoD7DAr4rizP5ZLg/3CvVnpFfr8j7vgzhr/WHH8tV2pQ1k/0+Z7fqnxw8MeE7UaHptzHbWti3lbVYZZu7H1JNaXhn42WereWRMrLJwGzX5M6h8StV8U6o00Cz3N3M+7yoQWZz9K9V8G+PvF+h28Yv9IurZeudwLD8M1/KmJwWMxE3iKkryerP7Mw9PLaVNYajC0Y6I/Ty4uINT0x3LgOQSDmvnH4nXd5b+INMETf8vSbT/wACFcD4Z/aQuPLitbiZ1dsfLKhUjj3qzf8Aj4eIPFGjMRvh+1Jk/jXDCjKL95WZ1U6aot2d0aPxe8YSJb3cbNwX2gfhz/OvHrDxBdfY0+ZlQk8djya0vjL4hMmt39mWUfvCy7f0rzmHXobOELNJ8qjHXivUpUX7NWMalRc+p6Hp+sGaZjI+T1xmrN9rMK/vI2CD2PevBPEnxStdHZgs6jjH3q4i8+NxmZisxSNeFB7+4rrp4SpLU4qmLpRe59d6T4uDTCC5fcDwH7iurXDKGByDXyl4D+JkWpKjz3CjsK+h/BfiKPVIDAJN7IoK854r9j4L4gqUaiyvFu6fwvs+3p2PwnxC4WpYig85wKtKPxpdV39V1OooopG6V+3n82jaKKKsoKWgc1IBt4pACjApaKKkApUXcwFJT4fvik9hrcsRwgDPepV6DIqRPu80zpmseY7FGw9WDdeKnWNevUVREg3Y71M021eOKiUS4yVtSWa6WJcCoEuC3INVJH39aI5Ah9qpQSM5VLyLrSN61Xmk4x17U5ZN3vUU6quMdapJEyk2iDFJTqbWpzBTqbRQIdRRRSKCiiikMKKKKACir+l6PcatMI4VJNdrb/CHUJIUYq2SM1yVsXRoO1SVjvoYHEYlc1KF0cHRRRXScY2Qd6ZUjfdNR0CCnq5HFMop2BE+41E5yxptFIdwooop2JCiiikMM4qSOQqeajpCaBp6mtDLuXGean2h1rFjmK9elWork44PFYSpvodcKq6lossbY6etMkbf9KhkYyc1IqttFLl6mnNfQib0puacww1TWNvHdXkMU0wtoncK8xUsEBPLYHXFacyjHmZko80lFIg704puqLxbqek+EdSlsp7ueSVOVdYBsdT0ZW3cgjmp/D0cviiNH0xTdI2fnQYVcDJ3E/dwOea8ahnGBxLap1Vdb30f42PpMXw3muBjGdag+WWzVpL743GqNtEmGHvUH2hWUFXDA9CDkGo3mLcCvZjaSUkfNSk6bcJKzRPkKcZxUi/NVFX+bPWrkTj1q5IzhJN6hj8KR492DSyMBz0pfMGOKnUvTqb3w7t418baVI8fmrHMJNnY7eefbivkf486brHx4+PmozCPDNMyOVIIVFJ5ycD86+xPhjdRQeMrIzFVRlcbmAODsOOvQ5xzTf2cfhHH4q+Jutard2gfTpLuR5GYcPGhzs6fxMVHuu4V+EceTqSzWhTS+zp95/SnhnSowyjE1nvzK/olsYnwF/YVurvQILuW8/4R2ynXP22OENe3CHn5N2RGp/vck9RgdeG/bN+CXw9/Z10nS5UsdX1O9vUeaXVL2/nZIlUhckKfmYlugwBX6bsyQoSSqKo+gFeKftBeIvCmr+G5tM1fT7XWgMskMsXmMreq4+YfhXytP2NBp1NT7meJxOIfLTduyR+bvhfR47XXvDunvqMOuaD4itI7vTruNiWjWRmVCQwDI29SCp/WvqDw38HEsfCsWrXZ8kRMWHHUjjOa8++Hfwnl8UfErTb220pdG0HTZ1vJGPy5KcoOSTjOOp6DAr2L4leLrX4haEng3wVq9vHcRHyZZbkMiyHuFOOc818Vn1enUxKWG001PuMpjiY0FCuru+7WyPmP4qR6NeahLOJiJv8AZOSa8H8dxPDpRntX8yPs2OlfQ/j39lnxvY6aZ5L3TZJORtWZh+ZryjVPAuqeG/Dstr4jNnAJgRGEnVyQe4xRgqiUUnK5rjqSk7wWjPCY/C80bQ6hqM8OlWVwokS7vTjMZfaHBIOATnHGTivX9O/ZyuNYjkt01ZbiT7PFdJuSOe3nglBMcqMuMqwB9CK9c8OSfD74keBNJ0fxJZ2j6jp1utu8THy2IXgFD/EpwD3wc9DXceE7Pw94VszZ6NbrbxNtUkuXYhRhRknoBwAOBX3XtKHsPdXvHwFT28Kru9D4Y+IHwh174X3QukjdLYn/AJZEsn/AT1/A9K9E/Zv8WXtxrqJcu7q2EALE9a+pPHXh3TfFvh660+7RXjmQrnupxwR7ivk/4OaFL4a+J50mU7JLa5MZHrg9fxHP41z4Oo5Yqk4/EpL8ycRKM8JWU/hcZXXTZn2EvShulAoav6sP4oe42iiirAkTpmnU1fuinVABRRRQAVat4+M1XwKuW7BY+etRLY2prXUsDpTJBt6c0m+mvJ+NYKLudTkrFJs+YTQZGbqamlAbnpVf+Kt0cctBaKKKDMcGK9KTJPU5pKKCuZhTadTaaEFFGKKoABpd1JRQAu6jdSUUhigmpre0lumCxIzH2qJfmwB1r1D4Y+D5NSnRzjrXDi8THCUnUl0PRwODljKypRNn4T+GbhLqJ5bdse619Fw6UiwoPLHT+7UHhfw/Fp9qg2jIA5xXRbQO1fiOaZm8ZXc1of0VkuURwOHUHqz8+/L96aeDUhOKjY5NfvB/NTSEqKpaRl3UEkdFKylaSqJsFFFFAgooooAKKKKkoKRqDQ1UHS42nKxU5FNooJLkThhmpFkIBANUFJUjHFWo5Fb61LibxmOaQd60bGGwXS7i8nkluJYXAGn221ZJFIJ3Bm4wD6An2rOZe56VPot1YWt8kl9A1xbqCfKU4DNj5d3+znqByRXBjac54eUacmn/AHbX+Vz08trU6WLpyrQjKN9VJtR+dtbI4fxZ4s1u5s9z+EEi8PO2xmlcvMwJ525bO4c8heK5Dwx8ZdV8NRvo9lKttpdxHJBIsg52sCCSfWuy8WeEpPG2vG/1nUpZII2/0e1s18mOMdsdcfhj61U1n4T+GNWkWRIb20k/jMd0WDcdfmBP6mvxXGcK5vj5+3mr32UpLm+fQ/pfBcdcP5XS+p05Jd3CD5L+V9X6nmWk/E6/0W8jt4LpruBGJkimGVA9Ae34V6HYfFbS7hUE6SQMev8AEBXZ+Cfg18OdU0V/D+p29zpuozP/AKPrqTGQo54CyIeNue46V4P8X/hh4l+CviafSdai3QA/ubyLmOVOzD8K82tic/4ZqKk5vl6J6xf9eRtSocMcZ05VlTTl1a92S9bfrc9s0/WrDVF3Wt3HLnsrc/lWgkhU9K+So/EU1n80EzRt/smum8P/AB+1PQZVj1JP7StOnJxIv0P+NfY5Xx9CranmFPlfeO33bnwWc+GMqSdXKqvN/dlo/k1p96R9JmYnIIBpm49jxXFeFPi14b8XKPst8sFx3guPlb/69djHNFMmUdW9wa/TMPjsJioqdCqpJ+Z+OYzKsfgZuGJoyi15O337Groq3V1qFvFZqzXZYCML1z2r6d+DOlj4caXd2NzY3P2uGFHlnaMrHJI5LMAx4O0gZx0yK8L+E1sIdei1J9vk2ksbOWHq1e0ePPixDrUctpodq1wqcSXN0dsC/QDlq/B+O84wtPNoUp70o9Orl/kj+kvDbKMT/ZMpuN4Vpfdy6fiU/iZ8TrwWkhS7EcfRY4s4Ptxya848O+C7/wAXXB1DxDqMllpn3vstuMSv9T2rnNQ8R7NQlub24UsDgTSLgKP9lR0FZc/xkgkuoNLspWaHOHdj6/5/WvxzF5hicW37FcsfxP6Dhh6ODpeyopJvr1O3+IWn3+raSukaPbx6VoSjLpA2Gcert1J714trk3/CAK8ChpIiu3zEleNvqGUg5r6Yu9esdN8CLduqxRMMFuvavj34wG51q5itNNNxqV/cSkwxpyX4J4z2xmvHwdOpVq2ZssVGlRlpZL8fU53VfjBqPiaz1SKbV9SSw0zCLbmcN5hYgD5yNwA9Dk+9eZa5rP8AbsKwhHcLx87M5/U10Fn8K9Zs9H1ESmNZ7sl5YRklWByOfw/WuJWaXTdQmhuVMVzGSrRMeV9P8+9fbSoyppHzUsbHEaJkWmqulyC1u4mntHbI3ffi91Pb6V1dtrF/4Z2TW161zYdfMVslB/tKT+orIu7KDVLdDbcFTySc1r6TpKXFuIS2xzx9aI15QMZU4y0krnc6L8SXv1j811kQ8eZGeK57RbW2vfj+t1CysrIJG2nq4jrkta8Oaj4UlNzZ/wCqY5Mak7T/AIVa8N+KdPF9DqEZS11aORC3y7WbBxye4xkV9BleLoUcXSrzV0pJv7zwM2y32+Cr0sM+WcotLtsfUuaSmwyedEkg6Mob8xT6/rGMlJKS6n8Lyi4ycXuhKUDNUrzWrDT5AlzeQwuf4GcbvyrqPCUXh/Vtkt3qoWMn/Vx8MfxP+FfOZpxFlmTxbxdZJrotX9yPq8n4TzjPGng6Dcf5npH73+hkhTwAM1NBZT3TBIomkY8AKMmvT21r4b+H4vMmtklIGf30hb8etct4k/aq8NeF7eSHQLCEysvyi3jABP1r8zxHihhX7uCw05vzsl+p+o4TwjxzaeMxEYryu/8AIxdY0C78N2KX2sxPplqzKitONrMzdAFJyfrWt/YOjeHYBeeJtXht7YjcsNnKsssmemMZA/U18wfE346az8RtYjl1XbHFaA+TBG+VDH+I+9ZmkeMp7dbe4c+ZNAwaIucgGvJxHGmb4iFopQT7K7Xo31+R9xgfDnh/DSi6jlUce7sm/NLoj6s1C88IXenvJo8esfaTwv2xAiD35XJrCSRl4zXK+EfEmsapAk1yLPVLWQf6y3mIdD/tBgCK6jPfG32zmv1Th3FVa+HtWU297ys0/Ro/D+McBQweKUsO6SW3LDmTVu6lqPZm65wKaHNDNuptfWn54OZi1NoooICiiigAooooEFNp1NxTGOpp60UUwCiiimAUUVLbR+ZMoxxSeiHFXdibT9OuL64RYY2Yk+lfV/wd8EjT9JinuVxMRmuI+DXg+11BRNInK9B619DafZLYW6xooAA6V+U8S5w6n+yw0sftfCeRqlbGVNbliNVjXAHFO4opdor82P1jbY/PlqjqUjNRkYr+mz+QpCUjNtpaY2c0EiZJpKKKaEwooopiCiiigQUUUUAITSE5pKKB3CikJpNxp2EB604Nj2ptFUK5L55bg03NRbhTqVguOoptGaVguSRsY5Aw6g1698VvCtv8Zfgbo+r6moW9sXNu8iLywUcE/hXj6nkV9Cf2pp9j+zvYQTyBZJpHwvT5uea/OuNqcHgITa1Uj9U8O6tSOaShF6OLv96Pzt8cfDGPT5pZrG5H2XJOyQcjHpivLNY02S3YgnI7EZr6S8VRLDczbDvRjgZrkz4S0zXVlilbbLjK7fX/ADmvw1009Uf01zvY8f8AB80ej3RuJADLngE17b4a8Y/bGijtyTKeOteeal8M7vT5Gkh2y227AwctXovwd8HtdeILSJJEL7hlZOOh5xmvMxdOcU5rc9XBVY35JbH0t8OLTU7Xw/dQ3Cqv2pUwqj5wNw6n15/CvT/FzwaDo8awxKsSx/e/vHH61X03wreaTfWM2FaPgMCR3HpTPiu4Tw3dRFOYxyQM8+n0r4vlq16/tK7v6nvzqUqUYww9kvLQ+UfiH4pn1K9mgX9zGp+7GOv19a4nRr5rXVIn5J35Zjzmr3iW8i+3TAEBmONtZEUbNNGqjLtjOOor6SNJcumx5sqsnK7Z6R8ZPi7dQ+EtL0+z8x44+XCnvXiFh4g8RzeKLLUtLEsepWUqzw3RO7aw5B5yD+PGK7Pxtb3R0pAI/MVVJzjkH1rzHSrzWJLx44jIIx8p8sY/CtcJCNOPumWKnKfuvY9m1Lx58RNQiaeXRtFhupl3GaOJlVjnrs3Yz/hXhGsSO2o3txqySQ37SF3bH3mJ5PpX0R44vp9K8HWr2sReZIUI9en+NeC6hcXXiC6ZbyHa2cN8vPtXqSloeTTpqL91Fjwy0S2GBJ5jFsk/jW9GxilyOCOax9Nsv7PjUrwF5rTmulmUOpBxXmyjzNs9RSskmdhDeJq2mC2mwx7bq838XeGV0++ilhHz7gcY6jNdJp18scgO/A9KPEEyTL5mOQvBz/Ks43g7ouVpKzILj4z6/hLW3vBaLGojULGCeOByaS+8Y+KNQtXDa7eYYdInCdf90Vyd5ZhpFcDB9a17NmkRAoLsvURrX0rznMJJR9tL72fMRyTLacm/YQ7/AAr/ACMy3W8t7gvLNIztyWYkk/j6101j41udLi3NdLFsHPPJ+gqX/hEdW1zH2e08hGH+sm4x2rX0X4UQ2lwJb+b7XKBkr2H/ANavPcHW1qHpRqexXLTZy134o1XxNfKIYZpyx/dlwcH6V6z8OvhmPsf23XE825c5SEHCge/rW74c0a2juk/cooQcYUYrtlQLgD7vav0fg3J8NjMROrVjdQ6d2z8q4+4gxeXYOFGhJqVRvXsl29THu/Beh3xBm0q0cr0JiGaWTwXoE0Bhk0ezeM9QYhWzRX7e8Hhnr7OP3I/m+OZ45aKvL/wJ/wCZgaD4FtfDdw8unzzxQMcm3YhlA9ATzj610FSq3yYUZp8en3Fw2I4XY+wqMPhaGDTVGPKnqa43MMZmkoyxMnOUVZPrb16/MrUV0uieAdV1qYJHbsPqK6yb4D62Y1aGMux6jFRVzDC0Zcs6iTFRyvGYiPPTptr0PLqK9Mh+A/iJnKyW5Qf3q2LX9mzWZwCZlXPtXPLOMBDeqjrhkOZVPhos8bor1/8A4Zu19rwRAr5ZOPMNbn/DLd4sBJvQXxnj1rGefZfC16qNocNZpUvai9DwSivTNY+BGvaazbI/OVf7tcveeAtWsmIktpFI/wBmu+lmGFrK8KiZ5tbKsZh3apTaOborQuNDurcHfEwx7VTaGReqkV3RnGWzPOlSnD4kRbaSpAjHoKmSxlfotVzJbkxhKWyKtFasOg3E2MI1alj4NnmYZVqxniKcFds6qeErVHZROZjhaQ4ArY0nRpppl2ozEnsK9A0P4bvcsm5MD6V6v4Z+GttZojNEC3uK+cx2eUcPFpas+ry7huviZXeiHfB7TZbGzXzIynH8Qr19fmwc9qx9L0yOzjVVAGK1tw6V+PY6v9arOr3P3fLsL9ToRo3vYfjmlpFPvS15h6p+fRGKawz9afuFIa/ps/kVohopSuKSgyGsvemVLTWXPTigQyilKkUlMApM0tNPWmSGaKSigApN1DGkqhXCkpajfrVCHF6YWJpKKYgpQxFJRQA9X9afUSjcaeFx3pAOro/HN5dab8OtLsp2K+eWmWN+u3sQPTr1rnVOGB963PizMb+HSpWfdD9lWMMemQOcCvzXjirKOCp00tHL8kfsHhtQhPMKtVvWMdPmzwzVYxcK7MD7k96z9J02SaQ7RgGugvrdLlmRGyvsOBV/QdLWNypXO3+WK/EnLQ/o2xBoNiyzeXKu9CcdMivX/BPw40u7vYnEZhdsAyLwfr+dc3pekgTI4UAN+leteCE8lY/RTiuepK6sy43i7o9P0r4N3NxZosWqzLAR8vzHj3q7rn7PP9taU1qddmDlcBpE3D8a7LwTqwuLMBhhUGB6V2EZDDdn73pXPDC0J6tHLUx2Ig9JH58+Of2OfEeiazLIZobyEncs0eRnn07UeGf2YZ/tQe7k+ZTkqCMV996nYrfW7K43EDK/WuFeGLTdQKtGXyclgPetnh47dCoY6pLXqfN+p/s82clnKHaRVbjbg5PuTXl9/wDDvTvBd28KwLJIz7y23H419y6la201o0gAK7cncPu18vfFeFLbXggAx5ZP50oYeFN6Gv1upV0kzzjxPDBqHlKI1dSoGFHoPSuR1L4Y2l1G8sSeVLjk5+tdrY7WaZX+VlHB9K2LSzT7PuYYDAgY5Fa1KaehUKso7HgF38M71YXZSDzjaBXLXnhXVNJZx9naRG7r0r6I1ZoIQBDkE9j9azVtBLHhtjL1rH2MEbuvNng+jeENb1SfKWxjj/vSHAruP+FW211pYju7gtOedytgA13q2peRcHavSmS27b9jjknhhWfLGLvYp1ZyW557p/wl02EhbuWScZ4+b9K6bSvD9jouFtLdQF4DMM1uw6eZG6Dd0Zc4zinSKgBAGMetac3ZGOrepCsYbcCNgxx7VFFY5kGemfvVMp2yAitC2QFlyu3PGanme4WEv5P7CisPKUFLm4WN2kXI2n37V0I5GadqVqt14XeKYKjoQ0bN03A8fSoLWRpbeNmXY2OV9DX7XwDVhKhWhb3k0fz94mUqirYerf3bNW8yWnqu5gPWmqu5gK774d+Bz4gv498ZePPNfpuIxEMNTdSo9EfjuEwtTGVVSprVi+C/A8mtNGUQt68V794V+F0FvCnmwJn3Fdd4R8H2Wg2KJDAqHHXFdOFCjAr8czTPquKm403ZH77k/DNHB01KsryMrTfC9hpoBigRG9QK1VhReigfhS7qTd718jOpOo7yZ9vCnTprlhGw8KvpTtqjtUO6l3e9QaXRK2FphYU3dRx60BcRo426qD+FUbrQbC8Yma3Rj9K0OPWm7quM5R+FmUoQmrSVzlNU+GWi6lGw+zKpPpXlni74GxQ73tEyOuK9+3U2SNJBhhkV62FzbFYWSam2jw8bkmCxkWpQSZ8Xah4FuNPuSjREAe1a+j+EmkxmP9K+l9Y8H2epZJjUN64rOt/A0Vm3C9Pavrv9ZPaU9dz4j/VN0qr5dUeUaf4L+UEx/pXUab4RWPGUH5V6BHo0cOBtqf7IsZ4ArxK2bVKnU+gw+Rwp2ujF0vQUt8HaBXQR2/lLgCmKNtStISuOleHVqyqu7PpaOHhRVooljmCjBNP+0L61RZvekyTWFjpNFZx1BpftH+1VDOOtN8xfWpsFz4X2kfSinUn3TX9Jn8n76MSm7QacaKZJGy7abUtNKelBDiMqNhtNSlSKQjNBJFTWqQrim07k2GUUpFJTEI1JTqTbVCEpGXdS0UxDPL96XYKdRQIaFApSoalooARV20tFFABXoFtZW/iXwCLcRB7y3LYYjoK8/rq/h9rBsNSMRICSDBLHjHX/APX7CvjOLcI8Vlc3HeGp+icCY76nnMIy2mnH79vxPNrzw6dPkKyctklh61oabp4DhuB6n3rvPFXhtF1QuozG/O7265rNXS1WQBeMDJNfzi5vof1dYm0mx+XaBg4wK9D8OWRjRMfd3c59q5HTdscmcdz1rutFuFFqMeoGKybGemeF7iS1Kg/cHOM16VpV4txboT1I/wAivJ9DugsY5yq811mi6v5c3lltwzuGD0FOEuV3PPr0+Y7qePzIzzjiub1TR3mlaRl3ADj/AD/npW5aXgnIRTuOM9auSR74znuK9BR9oro85ScGeVeJLoWNlLznjLnPP0r5i+JF4l74iDFs8f8A6hX0j8Uofs8M8cfBIGW/EE18h+LtS/4m9wpGG31ipHqU43VxI1PmhV/1svB4rY2tBAf4lAHXgDrXOWt6ryRyK5ZlXGe9aF5qh643K350Slc3UWjMvbUySMSuGXOR1FUI1VVCkZBOM9MV0qQrLC/GCByf8/hXOXjCBsL+vas5SVrFomUJH82PlIzTZNvyktyOn+FV0uQ6uv4j2pRJvYDoOlYlk0cgfO4YJ4z71XuMFjnuefrSvIAVP8J6j3qF5A0nBpDQ2GLdJgHnPFbGnwmSQKRxkcVVtIRyzdjkVt6XHi7UH7rVIM1PE0YTQY7Vl+eRhhh/Ws6NdsajrxUviaRrjUrO3BOYRlwD+VRiv3jgPDuGCqVmvil+R/N/iViVPG0cOn8Mb/eya1jMkyqOua+rfgn4WOl6PHcuMtIMivmrwnoc+raxbxIjYZhyBX2p4R0ltN0W2hJ5VBmu3izF8lGNGL3ODgjA+0ryxE1tsbkbbeOnFS7vSo/LNKqkZr8klufuA4c0uBS0Y4qREbOB2pPO/wBnimPw5pu6teVEcxL5o+lJ5nXnFR5NA9KOUadyTzqTzKbtFG0VNl1GL5ppd+feoyKTB7VdkQ27koapFYNwag5pytUuPYpSJWjGOBzUEkeOoqTcfWmMxbrRFsGtCpJEOeMGq7dvrV4iq0kJ5I6VqjMr4NPK7FyaVVGc1Q1K8MYIHTFPd2IlKy1Fu7xY++KyW1T5jyKy728dmPJxWe07Z611xpaHnzr6nzARSEZqQrTCMV/QKZ/McojOlLu9qUik21oToG6kpdtID60BZdAppUU/bSUySGmMvcVOy5qOgyehFTakZfSm0yRlFLikpiCm06kYd6pAJRRRTJCiiigAooooAKPMaMEp97oOaKF61jWpqtSlTls1Y6cLXlhq8K0N4tP7j02xZdY8K2c4w0wG1s8nGTj88flWV5LLM4K8gVS+GuuJ/aGoabJjzHxKvP8ACBgD/PrWzfMsUkjddxPH8q/knGUXhsRUov7La/E/t/CV1isPTxC2mk/vRQjjEPBPLHvW9pN58wXOUY8f41zs2WZWY9BVm3uPJYKOp4FcZ2HpOj64Y1dM5ycc+wrYg14QNJg/d43DvXnNjfHzFjBAz19q3YJfNULu5bNSS0up7D4J8TC6vFjJyXIGfbP+NelnG32xXzNpOpTaLqEUsRICkmve9H8VWeo6LHcCdA2wBgTznHNehhaqimpM8rFUWmnE4X4rWvm2zOnJD7uPTFfFfjzT3j16XB+RuQw/GvsjxVrSavDMo+95fA+vb9K+YfH9ikfmv12n5f8AP41zqerZ3UotRSZ55p8xjZAD1BDfrzWw1wJFXIHPp24rn9PkUgjPRsVoxzARs3boKlvU6LHS2p8uBXHJYDNcf4ikEL9eR1/OtuPVo47EszBdp5rgb/Vv7W1C42NuToMVAJEtjqTyXBQDoa2o2O49hnrWPp9qLdcqckjNasTdM9OlO47C3DcHHBP86ns7fcpZuvX6VFDHumweR2rUt4QWwOmDSAmWPEfTnNbmhwZnDN9xSCKy0T5tq+vWtPVbv+x9DeRf9YwAX3JIGKqEXOSit2ZVJKMXJlSSRrzVbuXhsPtQjn5e1d34D+Hs/ia8jJRjFnmuM0OzbzIIVBc5AJ9a+wfhH4TTT9HhmJ+Zhnp0r+hKtX+wMqp0IaSt+PU/mKnQXE2d1cRPWF/wWw/wX8KbbQljlKDzByOK9IhjEKBQMCpFQKoAor8rxOKqYufPUd2fsuEwVHBQUKMbIKKKTIrkO4U0lIzcUz60EsZL940ynM1GOK22Rna7ALRxS036UtZFjqKbQoquVCTuBoxSnpTcEjJNTzAOxRkL2pvI6Ggml6jFOD0pKNwHSlzVK6E9RMZqN1qSkxmqJaK02VQisK+j3A+ldFNHlTzWJfbemacb3MJbHJXwCseKzWY5PFbOpIMk5rGbG416UdUeRUSufNrL+VRmrHWo2j/Gv3dM/nKxFtpMGn4pKu5m4jKRhUlNqrk27DA1O60EZpnPerJ0YtNZc0/71JTJaIaa696mZc0wj1oM2iGkxT2XuKbTuSNxSU+m4piG7aNtLRTEGKMUUUCsG2iiigLBRRRSAqafdSaT4z0y5RSVkOyQ+1enajCDH5nYr/WvOWjRbq2mc48uQN06Dv8ApXrVxapcaakgH7vAYAjnnmv5q4voewzirZfFZ/ej+veC8S8TkGHk3rG8fuf+RygLMy5pzZWTg5OeKvLYMW3AZYjp6dqG011fa3BHGa+NPuLD7GbY248nNdDpM2enzOTj6VzRjePKgHA7it7QJsMqMOnTHek5IXK2dV9m3x5J6DrWIdeutKvJIllZIsE7c9zXaadZm7jGBgVzvi3wlLuEgXIJyajcaaW5F/wkkfmSZf2PPua8h+ImrQS/afmXuRj6f/Xp/iS/n0Ka4QlssOOa8b8UeJp7qaSMMeSRWsYsHbdDINQEbON2Dk1eOqD7OEDc55rkreGV/XLEVrWllIy98dKuQITVNWlkiaCJuW4NQaPp7WikufnNaVppOJDIwzU1wuxgV4wakY+FguPXrVnzBjA5rNkkP3uhFXtOjNwyntSCxp2ikYJ962IVCwl6pQwnaoq+FMcZwM4qkQyzYjdIQPTpWX4sv/tfiDR9LQkcmeQZ6qBx+uK3NFtfOk3k9uRXOWsZ1D4harMcFLWJYVPuTk19Lw7hVi8zo03te/3anyfE2MeBynEVlvay+eh6X4Dt4ptYh875Vz3FfZ/hCOKPSYVi+6FGK+NfCFrPLfReVC8jbhjaua+ufApurfS4kuk2MF6V+ncWe9y6n5BwT7nNeO/U7CmU6Nt4yKDG1fmR+vdBjMeKa3FSbc0mwUE2IeWpwj9eak2j1opiImjpm0rVik4pisV6bViRAy1XxxmtIsTQUq05Yy3PapFjFEpdiYpkRpGBIGKn8kUeWFqOYuxBg0mPwq1gUjKKfMBWop8i8kg1C2a0TuZMUuBVeS6K8D86bNJ1AqhcS4zzVEti3moMq/e/WudvdROThqsalOdhNc/JudjXVTh1POrVOiEupmk781RMZzVto2xUHNd0Ukjgeu585EYpKlZajK461+3n88sYyelMK+oqWg807iIMUlSMuPpTCKoloZSU+mniruZNDPuml4pabtI96tMn1CkZd1KP0pcelUJoh2kUlTYprLmgz5SFk9KZUxUrSYoJIdtJz6VIy46U2ncQzn0op9FMBlLTqKBCAUtFO2GlcLCwxpLIqvjZkZz6Zr2jRLV5vDsaOoZ4xjnvgcGvGI1IavoD4VKut+D3ldVZ7U+U655PHyk1+P8AH2CvGjjYrb3X+a/U/efDTMbKvgJvtJfk/wBDlLfT5LeQ7j8y84/AYqzPZiQbuMjP866y60KFlUPlZMlTjoecdf8APes9tL3PKMZUkgEdvp+lfiTkfv0bHNyWSI6gDtVzTbMeaAo9zVy60uSMFsZNSaXCxmHGBu9KynI1ij0fwrp4ZYweuMnjpW3rmixXEHyjPaqnhSRfnPTsK6aRd8ee/XFXSkeVXk+c+Wfi14VEfnuE5BwP518yaroLNqDZHGa+5/ifpa3kMiqvO3ccV8qazZLDrEiso6/1r04NNFxb3Oa03w2GjDEYNbdroKRKSRkYyMVqWseFwBjbzippNqK/p2rKVjS7Zzd5bLDnbwKxJlDMeOvFbupMWyBWHLyvvWRvEoyR7eK2NCj+Ws9YTKwyOgrZsI/JT/PpSLlLQ1YtuxRnBpylt7KOeefzqqk23GPTNX9PtvtFxvHO4A4B/wA+1aI5mbenRrZ2cl452xxgsT+FT/Dnwiuqa15YX57yYzSe2TnH5U++t/N/s/R4QGuLlhJIufuxqck/ngV7T8HfAclnrS3jp+7UcGv03hinTwWFrZhP4to/qfknF9SpjsVQyynrG/NL9F+p6v4P8D6foVnGsVtGrYGWwM12lvarGvTiooVCBR0FXR0rxMRXqVpuU3ds+hw2Hp4eChTVkgX5enFP3+9Rk1G0lctrnbzWJWb3xUXm89ajZj3OaZv5rRRRnzXJjIT0NNLsOhpFpGqgHeYfWl8w+tRngZpvmClyphe2hNvNL2qNTTt1Q00O9ybjbTfMxUe4n6U0tj2oSuMlabHamtMT04qHJbvxQufrT5RcxI0h70m5iKTbuqRUpaRAZtZuxNO8gt7VOq7RTuKXMPlKMtjuqhcacWrdNIVFHOxciOUm0Uy5B/lVb/hFQxz2rs/JX0FL5S1XtZIy9hF9Di28M7VPGaj/AOEZX+7Xb+WtJ5aegrRV5dyfq8ex8I00rUmKTFf0Jc/l5ohKelNIIqYimlfWruRYiqNlx9KlZdtJVIkgxSVKy46VGVq7k2G7abT6KZDiM2im9KftpKtMkbupetLtpuMVVydwI9aYU9Kfmj6UyWiIqRSFQamppUGgnlIfLFJ5fvU3l+9JtPpQTZkRQj3o8s+tS7fajZ+FArDQMUVIF/Gl2j0oK5RgU/SvcP2Zbe7uta1GERGTT2gxMxPyqeqn6k8fnXj2k6bJq2pW1nCN0k8ixqPcnAr7S+H/AIF0/wCGnh/7NHJvuJcPcTtxuYDoPQCvz/jLF0KeBeGqfFLVfJ7n6ZwLg8RLMPrVP4Ypp/NbfqcprGitBcbAfl3ccf5+tZsdmFjAZQGUenfpn9K6vxLqFtJIx81VOcHBrgNQ1R45GkDh9uOvr6V/OMl7zsf09Sk3FXJp7aJY0WRgHIOM/n/WsdfLFwvknco9KwNa8QO3mF5dsig5HbmuGk8fz+H7wCcYTfknP8NYygz0IWaPo/QZWt4QT1xmugj11G4Y4wMGvJPBnxS0rW8olwokAAKk47Vp+LPE0WlwySo4xt9aIwl0OOpBOXvEnjbxJFFHcICrHB/rXy94pnR9Wd0x1P8AOtvxT8SDdXEqoxYf/Wrz241Jru48wnknFejTulqLlS0R0cNwME5x0qOa6/dYzzWK16yt16HNHmPJIMnApsBbptzcc564rPuIwIyTxWheSRW6j5h69axdS1ONgEjIYnpioLLMJCsOOtbEcYaEnGOBWTpts02xn4J5/Wt+DbCAjcAt830qkiZMZ9jkWTGMFVP+f51reH1FpMPMO0L61V+1P8wVQdwK7j6GrNlaSzMpbqRjH9KsyN74F3Q8X+IdV1qUiRZbhre2B/hiQ44+rAmvsXwnZrY2aBQPWvkPwHGvw/mhWGLFmzs0fH3QTkj8ya+rPh/rSa5p6SqeMCv1XE0Y/wBm0J4b4OVff1/E/HMPWlLNsRDE6VOZ2/w9PwO1jcyLnGKtwvgYJpkEQ8vPSnV8nJrY+zirD2YYqEjGadmmOeKheRQlNAWk59aK3IbH7himbj9BSH6UGkHMObLDFIseDnNAp9MkKKKKACm06g0D1GUKT+FBpvHrSd+gKxKvtUqvVXzKXzDWfKzW6LXm+uRTGuMGq0k4Uc8CqkmpKnpTUbkymkaom96XzvesJtW54o/taq9mZ+0N/wC0D1oNwPWsH+1Qf4sUNqCt/HUuBXtDXa8C96Z9sHrWHPqAXoar/wBqN/eq1TbM3WSPkXikNO2+1JzX9BH8x+o0im0+kIqjNxI2X8qjZcdOlTUhWrTIsQU1lzUxUH2pjLtqibERUimkVNTSg7cVVxENJipCp9KTbVXI5SPbRin4NJTuLlGbabg1IVpKvmIsxm6l+lKRSbaq5OjDaaTaaXBFJzQKwbaMUc+tFMfKLj3o20lGaB8p1Xwvnjt/H2iSynEa3UeckAdfWvc/jp8RpPDt2bKKQqVUE7T6186eHobibVrVbSNpLoyr5aqMktnjiuq/aqvls/HMUU0gEsltG8ig99vP65r8V4/pp1KMr73P3bw1l7teDXZmNN8Xrhrks7+YhcbsnoPQCmzfE5Lxm2Fk4yN3+fpXkn2/qEHHvjrU1pa3125Mdu0aEcPJwDzX5phcur4x8uHpuXoj9jxWYYbAx58TUUF5ux3+seLDJGShZ2kzu9uen5VxniC4m1GNiMkhdp71ah0G7bma6VfZFzj86tw6DAv+sZ5j/tNX1mG4KzSu/fioLzf6I+NxXH2TYVe5Nzfkn+bsjz6zh1XSboz28/luDuADV1Vx8R/EGoWRt54jO23G6u20/SIUsZfs1tG0+087eFHqTXLWchsZpFiiW4umODJIcjPoAP515WcZK8nnGnKfM2e5kWfRz+lKtCHKl3OP8++uH2ta4dugJ71z2qeLLfQbhkvZY7dlOAGau61q9OjtLdzlXn2nG3jbnivm74maq2o3eDgnmvnVOV7H1ThFK56d/wALQ0qRh/xMLUeu5iP6VsWPiq21VkW31KwLehuVXt7kV8xW9sHUEirf2cqu3HFbxjc527H1FN4P8Vala/arWxa9tTyJbSRZRj1+Umse30y5s7krdRSwyL1SRSCK8P8ACuqanoWpwzadqF1Yup4a2lZCPyNfYfw/+JmoazpMcXiC3s/EMJQKTeQjzf8Av4MNn3Oa9jA5LiMxbjh2rrueFmefYbKYqWJTs+xyFpK25QOCB+Va0K7udwBA5U12t14Z8Jas2bVrvQZiOPM/fw5x7YYfrVR/hxqnLWElnrEYGQbWdfMx67Gww/KpxeR5hgv41Jpd7XX3ozwfEOV5gv8AZ68W+z0f3OxipGnyk/pWzp0kagBhyRgHNY11a3WlybLy2ntpAcETRle3vU1jdKWAJGFOeDXhyhKN00fQJqSujur2ZJ9Bxt+ZGXDAdK9u+Bt066aqOy47ba+fWn8yyWBMAud22vWvhDpd3YyRz+cTET93NfrGU0b8PJSe8m0fiedV3Hie8I7RimfSEMh2VJu3VSsbgTRqOpxVzGBXyE1Y+6g+ZXA9KiZieKVyeKaKmKKewppMmkLUVqZhRRRQA5aXcfWmdKje4WPrzQImZqi83bVG41IDocVm3GrbSfmqlFszlUijda5Xd97FNa8Ve/61yk2rk9DVf+1Hz1rVUZGTxEUdcdSWk/tBa5P+0ieeaVdRYHqar2LI+sLodWt0rnrRJeBFIBrljqTeuKP7QZlxup+wYvrCNO+1LGeTWRNqDtzmoJpi3U1Wdtw4rpjSSOWdZssHUH/vfrSf2g/96s+RetMxgVr7NGHtGan9ov3al/tFvWsbcd2KGZuxp+yQvatGvJqDEHLGofth9f1rM8w+tG+n7Owe0Z4TTWTg1JtpCK/Y7n4KVitNxVhkzUTxntVpk2GEU3FP9jSYqjNxGYppWpNtNqrmbRC0fpTcVPtpNvtV3JIaQqDUjJ6U3aaYrEWw0hU+lS4op3EQ7aTaanpjL6VQiHbRtp5FNp3J5RtJTiM02qM2hrdaKdRVcwtUNxVmx0+fUrmO3tonnmkbaqRrkk+wqOKJppFRQSScYFe/eHNN0f4M6PFc6i8T+KruHzUiYgtbIR0A9cHk/hXzOfZ7RyPCutU1k9l3f+R9Zw5w9ieIsWsPRWnV9kQ+G/Cdh8G9AuPEXiBov7ZEZMEJOfswx94/7Z/SvlTXtUv/AIxeObrWbu4kjsYTsUdWYfwrk+1a/wAaPiveeMdWmtlume2U5YZzn2qXwzpo0vRbaED52XzHP+03J/wr8hyDD1eK82ljsw1jBbdPJH71xK6PAuRRwWX6VajtzddN3/Xcls9BsrNgyQguOjPyR9PSr20elO20u2v3uhRpYaChRiory0P5jxGJr4uo6uIm5SfVu43aPSk207FG0niui5y2aOgt/Li8O3K79rMOi/eavK7rUI9FaU7maU89eB7AV6pp9mJtOkBPbkgcV4142tbdrtoGkCEk9T82P6V+K8YUk68Z3P6K8P6zWElTscb4u8SSXiYLcsc8mvG/FUZE25s5PrXf+Ipre1m2RsJM8DH868/8UXCyS46kV+aOK6H69zOxj2aBpFFb1vZqqnIyMflWPp4HmKTXTw7XhBXrj8q0iYSIrG3EN5G2QRnqRkV9IeAUSTTYmULnA5X6V86wL5cinque3FfRfw1VX0mIjpj+lfpXB8/9pcT8o48p/wCxqZ26rhRzSjg5BIPtSqpOOK6Hw34Nu9fl+UFFH94V+yVa1OlHmm9D+e6NGdaajTV2VNN1LVJYxaxu11b4x9nmHmJ69D71fk+GknieL/QtLk0m/JwskJzbt/vKeV+oP4V7J8P/AIXpYMHuEDN9K9h0vw7bWKDEagfSvynPsVl2Jco+yTfdaP8AA/aOG8LmuEUZe3aj/K9V+P6H5p61qniT4b/ElLPxDbeWtuvltCjZWRM5JB9a+5vg7pum694YtdT0y6S7tJlyGQ8qe6sOxHoa85/bi+HsN94TtfE8EA+02ThZHUclT6184/BP4v618M9ZhvtMlL2zsou7Fj8k6ehHY+jdq/NMPmmIwdN4ST9y5+zYjI8LmnLj6cbVLW9fL/I/SKDTzbY2npUuWH1rL8FeN9N8feG7XWtLk32045RvvxsOqMOxFaztntXoxn7RX3PAnTdF8jVmiNv1ozihiKa1WZXBqSl3VFJIEBoC5Jk0m4jvWbcahs71UOsHn5uKtQkzJ1Et2atxccdayby6xnmoJNU3Z/nWdc3W/JLVtGmzCpV00G3V02eDWfLMc8mnMSeTVaVhmuyMbI86cmP84mm+YaYKQsBxWiizIl8xvSn5NQq9L5gquQVyRnKim+dz1qOSQN0qBm54NUohcttMPrUfnH6VX3YprS+lWok8xO0m7rTGOe9ReZSbqqxPMyTgU1qbu96TdTsTcCaTJopKBniVFOpCK/WT8PGbaSn0hFO5NiBo+c0wrg1YpCu6qTJK1JipWj9KjI28VdyWhpFJT6TFURYYRTak20lNMixGy7qYV29al20lXcmxFRUmwUw/L14pisMZd1MZfWpaKYiDFNxUzL6UzbVE2GbRRtFO20badw5S1pN4unalbXLJ5ghkWTYf4sEHH6VH8dNSuBp3iPx4ly8194jv/wCzdPhYc2duiqzKP9piQOOy+9RballuHnt4IJSJYbeb7RFHIAypJx8wB78D8q+Q4hyCGeUopO047Ppbrofe8JcUT4ZxEpuPNCS1Ste/TU8X0XQnuvFMlgWaTyZikrN6KfmP5ivYFXbwBgdqYtjbR313dx28cU91IZZmjULuYnJP51NVcOZJ/YmHcJu85btF8ZcTLibFwqU4uNOCsk97vdsbRT6XafSvrbn5/ZEdLtNP2n0pyrjrSuOx0tjNHBoczOVzswPlzXzp4wt2utUuGLeWjMevGfrXvUO2a1ZPuZH3s814L8TdNmh1GVlJ2Hqy1+ScW0JXjPofu/AWIj7OVJbnlHijybGViZd7/wAvc155ql55kwOcCut8VWpjbk4B5Oa4i6XzGH14/OvzCSsfsd2XtOkLOK6a1Yr061zWlwlZgOoNbyXCwsCxxVRV0SzZsoPNnj9zX0d8P7NbfSYtoxwCfyrxj4e6H/bFzG7KTHuHIHevojRrEWFmkYGAB+VfqvCOBqQk8RJaPY/FeOsxpVILCxeps6SqtfRBxwTX0L8P9Jjkji2qB05xXz9o8fmajAvX5hX1X4A0wRabA/T5RX0HElb2dNa7nx3CmH9tWemx2GnaesMYq8XOAOBTFcKoxSbs1+TSk5O7P22EVFJI5v4oeGh4y+H+taUyh2kgYoMfxAZr8sZo7jRdYu9LIZZY3ZN2PukHAzX65q/Xv6g14ve/sreC9Q8SeINWuYZnOqhGEStt+zsCSzKe+T6+leRicLKpNSgfT5bmVPC03Cr8jnP2N9A8T+H/AApqA8QWMlpHceVJAzEbZflJ3qM9wV5r6I3bvrVTTrKLS7C2s4QRBbxLEg/2VAA/lU7NtBNejRp+xgoHhYrEfWKrqNbg3y81G0+OpqG4uOOtZV1feX0NdMYuR58pKO5qNdBapXWodfWsmTUix5NVJbzdxnNbxpHLKsuhZup2Yk1RaQjvTWuGaomb1NdcVY45SuOaQ+uKiaakZutRsQVzWyiY8zCSYY9KiVRJnkUj4zTFUr3q4xJbF+7xSFqezg9sVXZs1pYzbJPMFIWFQs1Jv3d6ZF0TbhTNwqMt6mmNIFHFA+YmLVC7UzzjTWbd0plbjvMx70ecajoHWmRYeGO7rxTt2O9MoqLiJPNNHm1HRRqNI8eIpKkxTa/Wdz8UsxlIRipCtNI9aCWhlN20/bSUyRlRvHu6VPTdtO4rFYxkU2rRWo2j3dBVqRNiGkqTyzTSpHaquTYZikp9JiqIcRm2kp+2kp3IsR7abtqTbRVXEQ0m0elSlaQpVXJsR7RSeX70/bSc07isMMdJtNSUUwIwpzTglOoouAmB6UtFFK4BRS9qdtyPekBZ09QzYY4z0CjJrzP4uSJbOwVNzEfxHBxXp2lpuuOSR2rxz4xXIm1cRbwozgK3f3PtXwPFjSwh+qcCKUsZ5Hg3iKVruRkaMKB0I5rkJ7XypsGvSNYt0klChU2Z+ZlNcHrS+XebAMf/AK6/Fm7n9CuNhsO2PHqKW9n37QOCT+tRKCkZYDJHNVrOb7dqkUB4BYV0Uo3konLWnyQbZ9N/A+xj/s2NniaKVhz3B/z+Ve+aXoqXUYXHJryT4T2Js9JgU/dI4Pcexr2rw4T5ic96/fcFF0MFHl00P5gzKpHE5jPm1TZ0fhP4fj7fDK43BWzX0Vodqtpaxoq4GK8+8IKDsOO1ek2TfKor8+znF1MRUSm9j9KyHBUsLT5qa3Ly0maTdTGbFfMn2I/dS1AZDn2p+4YpEyY5iFqvNJUp+Zc1nX0xRTzVRXMzKT0uVry6EYPPNYN1d7mNF5cMzkZqjIxbFejCHKrnmVKl2K0wpnmd81G5HGKbWy1OW9x5mNR+cehptNNbKKJJPONNaX8qZuFMZt30qrE3FaQmkDGkpM1ZLHNIKhLcU2aTtUO/irSbM7j2Y7ai3Fe9LuzSMatR7iQMxakoopWQxKKWioFdhSrQPWlqWyhaKXFLUjURuDS0tJn2oKSseQlStJRRX6qfiwdKaw3UUVcSWMpKKKszDbSbTRRSJEpuMUUVSEJSFaKKYiNo/bmosEUUVSJYUmM0UVZNribaNpoopk2ExTdtFFBmJSbaKKtMQbabtooqhBto20UUAG32pQlFFADgKKKKQFi1laNjsOGPevAfi14h/s3xM8TW0bykcO68L+J9qKK/O+MP91Xqfrnh9/vU/Q8h1zxZHcT4jBKDlnHAP0Fcde3hurwHPJoor8cP32RcVx5Qz97tXVfCjw1DrXiAC5ttyE/K+OAaKK+gyanGpjIKSPl8/qSpYCpKDs7H1v4f0dNLtkjUcKOM13Xhw/vU+ooor94rxUaNl2P5koTc8RzS3ue4eESPKTiu9tWPFFFfj2YfxWfumV/wkXww2jnmmHmiivHPd6CNS0UVJmLnAIrK1JS0ZxRRWtPczn8JzVwvznNVXoor0+iPHnuV2+XOKaGoorWBCAketQyHpRRWqJkNpKKKpEMTJpKKKoRDIDmmYBoooTMhClJ5Z9aKK3WxQ8Q+tI0YHFFFZvcVxhUr70KhbpRRSK6Evk+9L5Y9aKKzEDLtpAM0UUjUeFHpS7R6UUUAf//Z;movable=0;resizable=0;rotatable=0;deletable=0;editable=0;locked=1;connectable=0;" vertex="1" parent="1">
          <mxGeometry x="722" y="93" width="134.61" height="75.67" as="geometry" />
        </mxCell>
        <mxCell id="B0hOVwlSUektJ_psYXs9-16" style="edgeStyle=orthogonalEdgeStyle;rounded=0;orthogonalLoop=1;jettySize=auto;html=1;strokeWidth=2;entryX=0.003;entryY=0.328;entryDx=0;entryDy=0;exitX=0.998;exitY=0.219;exitDx=0;exitDy=0;entryPerimeter=0;startSize=6;endArrow=classic;endFill=1;movable=0;resizable=0;rotatable=0;deletable=0;editable=0;locked=1;connectable=0;exitPerimeter=0;" edge="1" parent="1" source="B0hOVwlSUektJ_psYXs9-1" target="B0hOVwlSUektJ_psYXs9-3">
          <mxGeometry relative="1" as="geometry">
            <mxPoint x="357" y="129.44000000000005" as="targetPoint" />
            <mxPoint x="297" y="129" as="sourcePoint" />
          </mxGeometry>
        </mxCell>
        <mxCell id="B0hOVwlSUektJ_psYXs9-17" style="edgeStyle=orthogonalEdgeStyle;rounded=0;orthogonalLoop=1;jettySize=auto;html=1;strokeWidth=2;entryX=0;entryY=0.5;entryDx=0;entryDy=0;exitX=1;exitY=0.5;exitDx=0;exitDy=0;movable=0;resizable=0;rotatable=0;deletable=0;editable=0;locked=1;connectable=0;" edge="1" parent="1" source="B0hOVwlSUektJ_psYXs9-4" target="B0hOVwlSUektJ_psYXs9-6">
          <mxGeometry relative="1" as="geometry">
            <mxPoint x="815.5" y="181" as="targetPoint" />
            <mxPoint x="730" y="180" as="sourcePoint" />
          </mxGeometry>
        </mxCell>
        <mxCell id="B0hOVwlSUektJ_psYXs9-23" value="&lt;font style=&quot;font-size: 16px;&quot;&gt;Discarded&lt;/font&gt;" style="rounded=0;whiteSpace=wrap;html=1;fillColor=#f5f5f5;strokeColor=none;movable=0;resizable=0;rotatable=0;deletable=0;editable=0;locked=1;connectable=0;" vertex="1" parent="1">
          <mxGeometry x="738" y="51" width="89" height="30" as="geometry" />
        </mxCell>
        <mxCell id="B0hOVwlSUektJ_psYXs9-25" value="&lt;font style=&quot;&quot;&gt;&lt;font style=&quot;font-size: 18px;&quot;&gt;HF generator&lt;/font&gt;&lt;br&gt;&lt;/font&gt;" style="rounded=0;whiteSpace=wrap;html=1;fillColor=#FFE599;strokeColor=#000000;movable=0;resizable=0;rotatable=0;deletable=0;editable=0;locked=1;connectable=0;strokeWidth=2;" vertex="1" parent="1">
          <mxGeometry x="719.5799999999999" y="220" width="138.42" height="70" as="geometry" />
        </mxCell>
        <mxCell id="B0hOVwlSUektJ_psYXs9-31" value="" style="edgeStyle=orthogonalEdgeStyle;rounded=0;orthogonalLoop=1;jettySize=auto;html=1;strokeWidth=2;movable=0;resizable=0;rotatable=0;deletable=0;editable=0;locked=1;connectable=0;" edge="1" parent="1" source="B0hOVwlSUektJ_psYXs9-6" target="B0hOVwlSUektJ_psYXs9-25">
          <mxGeometry relative="1" as="geometry" />
        </mxCell>
        <mxCell id="B0hOVwlSUektJ_psYXs9-28" value="" style="edgeStyle=orthogonalEdgeStyle;rounded=0;orthogonalLoop=1;jettySize=auto;html=1;strokeWidth=2;entryX=1.003;entryY=0.864;entryDx=0;entryDy=0;entryPerimeter=0;movable=0;resizable=0;rotatable=0;deletable=0;editable=0;locked=1;connectable=0;" edge="1" parent="1" source="B0hOVwlSUektJ_psYXs9-26" target="B0hOVwlSUektJ_psYXs9-3">
          <mxGeometry relative="1" as="geometry">
            <mxPoint x="477" y="258" as="targetPoint" />
          </mxGeometry>
        </mxCell>
        <mxCell id="B0hOVwlSUektJ_psYXs9-26" value="&lt;font style=&quot;font-size: 16px;&quot;&gt;high-frequency&#39;&lt;br style=&quot;box-sizing: border-box; color: transparent; cursor: text; position: absolute; transform-origin: 0px 0px; font-family: Lato, sans-serif; text-align: start; background-color: rgb(255, 255, 255);&quot; role=&quot;presentation&quot;&gt;&lt;span style=&quot;box-sizing: border-box; color: transparent; cursor: text; position: absolute; transform-origin: 0px 0px; text-align: start; background-color: rgb(255, 255, 255); left: 496.155px; top: 989.987px; font-family: sans-serif; transform: scaleX(0.837922);&quot; dir=&quot;ltr&quot; role=&quot;presentation&quot;&gt;frequency&lt;/span&gt;&lt;/font&gt;" style="rounded=0;whiteSpace=wrap;html=1;fillColor=#c7c7c7;strokeWidth=2;movable=0;resizable=0;rotatable=0;deletable=0;editable=0;locked=1;connectable=0;" vertex="1" parent="1">
          <mxGeometry x="524.5" y="226.17999999999984" width="149" height="57.64" as="geometry" />
        </mxCell>
        <mxCell id="B0hOVwlSUektJ_psYXs9-27" value="" style="edgeStyle=orthogonalEdgeStyle;rounded=0;orthogonalLoop=1;jettySize=auto;html=1;strokeWidth=2;movable=0;resizable=0;rotatable=0;deletable=0;editable=0;locked=1;connectable=0;" edge="1" parent="1" source="B0hOVwlSUektJ_psYXs9-25" target="B0hOVwlSUektJ_psYXs9-26">
          <mxGeometry relative="1" as="geometry" />
        </mxCell>
        <mxCell id="B0hOVwlSUektJ_psYXs9-34" value="" style="edgeStyle=orthogonalEdgeStyle;rounded=0;orthogonalLoop=1;jettySize=auto;html=1;strokeWidth=2;exitX=0.5;exitY=1;exitDx=0;exitDy=0;entryX=1.003;entryY=0.637;entryDx=0;entryDy=0;entryPerimeter=0;movable=0;resizable=0;rotatable=0;deletable=0;editable=0;locked=1;connectable=0;" edge="1" parent="1" source="B0hOVwlSUektJ_psYXs9-6" target="B0hOVwlSUektJ_psYXs9-3">
          <mxGeometry relative="1" as="geometry">
            <mxPoint x="910" y="225" as="sourcePoint" />
            <mxPoint x="910" y="290" as="targetPoint" />
          </mxGeometry>
        </mxCell>
        <mxCell id="B0hOVwlSUektJ_psYXs9-37" style="edgeStyle=orthogonalEdgeStyle;rounded=0;orthogonalLoop=1;jettySize=auto;html=1;strokeWidth=2;entryX=1;entryY=0.75;entryDx=0;entryDy=0;exitX=-0.005;exitY=0.643;exitDx=0;exitDy=0;exitPerimeter=0;movable=0;resizable=0;rotatable=0;deletable=0;editable=0;locked=1;connectable=0;" edge="1" parent="1" source="B0hOVwlSUektJ_psYXs9-3" target="B0hOVwlSUektJ_psYXs9-1">
          <mxGeometry relative="1" as="geometry">
            <mxPoint x="367" y="139.44000000000005" as="targetPoint" />
            <mxPoint x="307" y="139" as="sourcePoint" />
          </mxGeometry>
        </mxCell>
        <mxCell id="B0hOVwlSUektJ_psYXs9-38" value="" style="group;strokeColor=#CFCFCF;strokeWidth=1;movable=0;resizable=0;rotatable=0;deletable=0;editable=0;locked=1;connectable=0;" vertex="1" connectable="0" parent="1">
          <mxGeometry x="510" y="30" width="178" height="140" as="geometry" />
        </mxCell>
        <mxCell id="B0hOVwlSUektJ_psYXs9-2" value="&lt;font style=&quot;font-size: 24px;&quot;&gt;&lt;br&gt;&lt;/font&gt;" style="rounded=0;whiteSpace=wrap;html=1;fillColor=#f5f5f5;strokeWidth=2;movable=0;resizable=0;rotatable=0;deletable=0;editable=0;locked=1;connectable=0;" vertex="1" parent="B0hOVwlSUektJ_psYXs9-38">
          <mxGeometry width="178" height="140" as="geometry" />
        </mxCell>
        <mxCell id="B0hOVwlSUektJ_psYXs9-4" value="&lt;font style=&quot;font-size: 16px;&quot;&gt;low-frequency&lt;br style=&quot;box-sizing: border-box; color: transparent; cursor: text; position: absolute; transform-origin: 0px 0px; font-family: Lato, sans-serif; text-align: start; background-color: rgb(255, 255, 255);&quot; role=&quot;presentation&quot;&gt;&lt;span style=&quot;box-sizing: border-box; color: transparent; cursor: text; position: absolute; transform-origin: 0px 0px; text-align: start; background-color: rgb(255, 255, 255); left: 496.155px; top: 989.987px; font-family: sans-serif; transform: scaleX(0.837922);&quot; dir=&quot;ltr&quot; role=&quot;presentation&quot;&gt;frequency&lt;/span&gt;&lt;/font&gt;" style="rounded=0;whiteSpace=wrap;html=1;fillColor=#c7c7c7;strokeWidth=1;movable=0;resizable=0;rotatable=0;deletable=0;editable=0;locked=1;connectable=0;" vertex="1" parent="B0hOVwlSUektJ_psYXs9-38">
          <mxGeometry x="14.9579831932773" y="77.33333333333326" width="148.08403361344534" height="46.66666666666666" as="geometry" />
        </mxCell>
        <mxCell id="B0hOVwlSUektJ_psYXs9-5" value="&lt;font style=&quot;font-size: 16px;&quot;&gt;high-frequency&lt;br style=&quot;box-sizing: border-box; color: transparent; cursor: text; position: absolute; transform-origin: 0px 0px; font-family: Lato, sans-serif; text-align: start; background-color: rgb(255, 255, 255);&quot; role=&quot;presentation&quot;&gt;&lt;span style=&quot;box-sizing: border-box; color: transparent; cursor: text; position: absolute; transform-origin: 0px 0px; text-align: start; background-color: rgb(255, 255, 255); left: 496.155px; top: 989.987px; font-family: sans-serif; transform: scaleX(0.837922);&quot; dir=&quot;ltr&quot; role=&quot;presentation&quot;&gt;frequency&lt;/span&gt;&lt;/font&gt;" style="rounded=0;whiteSpace=wrap;html=1;fillColor=#c7c7c7;strokeWidth=1;movable=0;resizable=0;rotatable=0;deletable=0;editable=0;locked=1;connectable=0;" vertex="1" parent="B0hOVwlSUektJ_psYXs9-38">
          <mxGeometry x="14.9579831932773" y="14" width="148.08403361344534" height="47.66666666666666" as="geometry" />
        </mxCell>
        <mxCell id="B0hOVwlSUektJ_psYXs9-21" style="edgeStyle=orthogonalEdgeStyle;rounded=0;orthogonalLoop=1;jettySize=auto;html=1;strokeWidth=2;exitX=1.008;exitY=0.458;exitDx=0;exitDy=0;exitPerimeter=0;entryX=0;entryY=0.5;entryDx=0;entryDy=0;movable=0;resizable=0;rotatable=0;deletable=0;editable=0;locked=1;connectable=0;" edge="1" parent="1" source="B0hOVwlSUektJ_psYXs9-5" target="B0hOVwlSUektJ_psYXs9-23">
          <mxGeometry relative="1" as="geometry">
            <mxPoint x="797" y="81" as="targetPoint" />
            <mxPoint x="728" y="90" as="sourcePoint" />
          </mxGeometry>
        </mxCell>
        <mxCell id="B0hOVwlSUektJ_psYXs9-45" value="Upscale" style="text;html=1;align=center;verticalAlign=middle;resizable=0;points=[];autosize=1;strokeColor=none;fillColor=none;movable=0;rotatable=0;deletable=0;editable=0;locked=1;connectable=0;" vertex="1" parent="1">
          <mxGeometry x="304" y="166.67000000000007" width="70" height="30" as="geometry" />
        </mxCell>
        <mxCell id="B0hOVwlSUektJ_psYXs9-46" value="Downscale" style="text;html=1;align=center;verticalAlign=middle;resizable=0;points=[];autosize=1;strokeColor=none;fillColor=none;movable=0;rotatable=0;deletable=0;editable=0;locked=1;connectable=0;" vertex="1" parent="1">
          <mxGeometry x="300" y="85" width="80" height="30" as="geometry" />
        </mxCell>
        <mxCell id="B0hOVwlSUektJ_psYXs9-240" value="③" style="text;html=1;align=center;verticalAlign=middle;resizable=0;points=[];autosize=1;strokeColor=none;fillColor=none;movable=0;rotatable=0;deletable=0;editable=0;locked=1;connectable=0;" vertex="1" parent="1">
          <mxGeometry x="496" y="715" width="40" height="30" as="geometry" />
        </mxCell>
      </root>
    </mxGraphModel>
  </diagram>
</mxfile>
